<svg width="800" height="800" xmlns="http://www.w3.org/2000/svg">
  <g id="first-floor">
   <rect id="svg_2" height="38" width="54" y="162" x="127" stroke="#000" fill="#fff"/>
   <rect id="svg_3" height="38" width="54" y="200" x="127" stroke="#000" fill="#fff"/>
   <rect id="svg_4" height="59" width="55" y="86" x="126" stroke="#000" fill="#fff"/>
   <rect stroke="#000" id="svg_5" height="59" width="38" y="86" x="181" fill="#fff"/>
   <rect id="svg_6" height="60" width="66" y="88" x="235" stroke="#000" fill="#fff"/>
   <rect id="svg_7" height="65" width="93" y="112" x="333" stroke="#000" fill="#fff"/>
   <rect stroke="#000" id="svg_8" height="158" width="123" y="161" x="197" fill="#fff"/>
   <rect stroke="#000" id="svg_9" height="71" width="74" y="177" x="320" fill="#fff"/>
   <rect stroke="#000" id="svg_10" height="71" width="74" y="248" x="320" fill="#fff"/>
   <rect stroke="#000" id="svg_12" height="34" width="70" y="193" x="436" fill="#fff"/>
   <rect id="svg_13" height="46" width="54" y="181" x="506" stroke="#000" fill="#fff"/>
   <rect stroke="#000" id="svg_14" height="41" width="49" y="243" x="584" fill="#fff"/>
   <rect stroke="#000" id="svg_19" height="42" width="49" y="284" x="584" fill="#fff"/>
   <rect stroke="#000" id="svg_20" height="37" width="49" y="326" x="584" fill="#fff"/>
   <rect stroke="#000" id="svg_21" height="41" width="49" y="363" x="584" fill="#fff"/>
   <rect stroke="#000" id="svg_23" height="55" width="41" y="347" x="493" fill="#fff"/>
   <rect stroke="#000" id="svg_25" height="55" width="34" y="347" x="534" fill="#fff"/>
   <rect stroke="#000" id="svg_26" height="77" width="46" y="323" x="447" fill="#fff"/>
   <rect stroke="#000" id="svg_27" height="66.00001" width="60" y="256.99999" x="447" fill="#fff"/>
   <rect stroke="#000" id="svg_28" height="104.00001" width="79" y="368" x="304" fill="#fff"/>
   <rect id="svg_29" height="33" width="17" y="368" x="383" stroke="#000" fill="#fff"/>
   <rect id="svg_30" height="30" width="52" y="434" x="417" stroke="#000" fill="#fff"/>
   <rect id="svg_31" height="100" width="133" y="421" x="469" stroke="#000" fill="#fff">Auditorium</rect>
   <rect id="svg_32" height="109" width="53" y="420" x="602" stroke="#000" fill="#fff"/>
   <rect stroke="#000" id="svg_33" height="36" width="56" y="436" x="248" fill="#fff"/>
   <rect id="svg_34" height="101" width="134" y="335" x="144" stroke="#000" fill="#fff"/>
   <rect id="svg_35" height="89" width="54" y="453" x="179" stroke="#000" fill="#fff"/>
   <rect stroke="#000" id="svg_37" height="64" width="61" y="241" x="507" fill="#fff"/>
   <rect stroke="#000" id="svg_38" height="34" width="25" y="193" x="411" fill="#fff"/>
   <line stroke="#000" id="svg_40" y2="153" x2="148" y1="153" x1="101" fill="none"/>
   <line stroke="#000" id="svg_41" y2="153" x2="189" y1="153" x1="148" fill="none"/>
   <line stroke="#000" id="svg_42" y2="153" x2="224" y1="153" x1="189" fill="none"/>
   <line stroke="#000" id="svg_44" y2="153" x2="318" y1="153" x1="224" fill="none"/>
   <line stroke="#000" id="svg_45" y2="153" x2="318" y1="120" x1="318" fill="none"/>
   <line stroke="#000" id="svg_46" y2="153" x2="326" y1="153" x1="318" fill="none"/>
   <line stroke="#000" id="svg_47" y2="170" x2="326" y1="153" x1="326" fill="none"/>
   <line stroke="#000" id="svg_50" y2="120" x2="318" y1="120" x1="301" fill="none"/>
   <line stroke="#000" id="svg_51" y2="120" x2="333" y1="120" x1="318" fill="none"/>
   <line stroke="#000" id="svg_52" y2="170" x2="326" y1="170" x1="320" fill="none"/>
   <line stroke="#000" id="svg_53" y2="187" x2="404" y1="177" x1="404" fill="none"/>
   <line stroke="#000" id="svg_54" y2="187" x2="459" y1="187" x1="404" fill="none"/>
   <line stroke="#000" id="svg_55" y2="235" x2="404" y1="187" x1="404" fill="none"/>
   <line stroke="#000" id="svg_56" y2="235" x2="424" y1="235" x1="404" fill="none"/>
   <line stroke="#000" id="svg_57" y2="235" x2="424" y1="227" x1="424" fill="none"/>
   <line stroke="#000" id="svg_58" y2="235" x2="444" y1="235" x1="424" fill="none"/>
   <line stroke="#000" id="svg_59" y2="153" x2="224" y1="144" x1="224" fill="none"/>
   <line stroke="#000" id="svg_60" y2="144" x2="234" y1="144" x1="224" fill="none"/>
   <line stroke="#000" id="svg_61" y2="193" x2="189" y1="153" x1="189" fill="none"/>
   <line stroke="#000" id="svg_62" y2="153" x2="189" y1="145" x1="189" fill="none"/>
   <line stroke="#000" id="svg_63" y2="153" x2="148" y1="145" x1="148" fill="none"/>
   <line stroke="#000" id="svg_64" y2="193" x2="189" y1="193" x1="181" fill="none"/>
   <line stroke="#000" id="svg_66" y2="209" x2="189" y1="193" x1="189" fill="none"/>
   <line stroke="#000" id="svg_67" y2="209" x2="189" y1="209" x1="181" fill="none"/>
   <line stroke="#000" id="svg_68" y2="249" x2="189" y1="209" x1="189" fill="none"/>
   <line stroke="#000" id="svg_69" y2="268" x2="424" y1="234" x1="424" fill="none"/>
   <line stroke="#000" id="svg_70" y2="268" x2="424" y1="268" x1="405" fill="none"/>
   <line stroke="#000" id="svg_71" y2="346" x2="405" y1="268" x1="405" fill="none"/>
   <line stroke="#000" id="svg_72" y2="396" x2="405" y1="346" x1="405" fill="none"/>
   <line stroke="#000" id="svg_73" y2="410" x2="405" y1="396" x1="405" fill="none"/>
   <line stroke="#000" id="svg_74" y2="423" x2="405" y1="410" x1="405" fill="none"/>
   <line stroke="#000" id="svg_75" y2="478.00001" x2="405" y1="423" x1="405" fill="none"/>
   <line stroke="#000" id="svg_76" y2="482" x2="405" y1="478" x1="405" fill="none"/>
   <line stroke="#000" id="svg_77" y2="482" x2="405" y1="482" x1="383" fill="none"/>
   <line stroke="#000" id="svg_78" y2="482" x2="383" y1="482" x1="321" fill="none"/>
   <line stroke="#000" id="svg_79" y2="482" x2="321" y1="482" x1="254" fill="none"/>
   <line stroke="#000" id="svg_80" y2="482" x2="254" y1="482" x1="240" fill="none"/>
   <line stroke="#000" id="svg_81" y2="468" x2="240" y1="436" x1="240" fill="none"/>
   <line stroke="#000" id="svg_82" y2="482" x2="240" y1="468" x1="240" fill="none"/>
   <line stroke="#000" id="svg_83" y2="468" x2="240" y1="468" x1="233" fill="none"/>
   <line stroke="#000" id="svg_84" y2="482" x2="254" y1="472" x1="254" fill="none"/>
   <line stroke="#000" id="svg_85" y2="482" x2="321" y1="472" x1="321" fill="none"/>
   <line stroke="#000" id="svg_86" y2="478" x2="425" y1="478" x1="405" fill="none"/>
   <line stroke="#000" id="svg_87" y2="478" x2="425" y1="464" x1="425" fill="none"/>
   <line stroke="#000" id="svg_88" y2="478" x2="469" y1="478" x1="425" fill="none"/>
   <line stroke="#000" id="svg_89" y2="423" x2="425" y1="423" x1="405" fill="none"/>
   <line stroke="#000" id="svg_90" y2="396" x2="405" y1="396" x1="400" fill="none"/>
   <line stroke="#000" id="svg_91" y2="410" x2="453" y1="410" x1="405" fill="none"/>
   <line stroke="#000" id="svg_92" y2="330" x2="405" y1="330" x1="310.99999" fill="none"/>
   <line stroke="#000" id="svg_93" y2="346" x2="311" y1="330" x1="311" fill="none"/>
   <line stroke="#000" id="svg_94" y2="330" x2="311" y1="319" x1="311" fill="none"/>
   <line stroke="#000" id="svg_95" y2="330" x2="311" y1="330" x1="279.99999" fill="none"/>
   <line stroke="#000" id="svg_96" y2="330" x2="280" y1="330" x1="267" fill="none"/>
   <line stroke="#000" id="svg_97" y2="330" x2="280" y1="319" x1="280" fill="none"/>
   <line stroke="#000" id="svg_98" y2="335" x2="267" y1="330" x1="267" fill="none"/>
   <line stroke="#000" id="svg_99" y2="235" x2="444" y1="227" x1="444" fill="none"/>
   <line stroke="#000" id="svg_100" y2="274" x2="424" y1="268" x1="424" fill="none"/>
   <rect id="svg_102" height="125" width="34" y="274" x="413" stroke="#000" fill="none"/>
   <line stroke="#000" id="svg_103" y2="330" x2="413" y1="330" x1="405" fill="none"/>
   <line stroke="#000" id="svg_104" y2="268" x2="405" y1="256" x1="405" fill="none"/>
   <line stroke="#000" id="svg_105" y2="256" x2="405" y1="256" x1="394" fill="none"/>
   <line stroke="#000" id="svg_106" y2="246" x2="405" y1="246" x1="394" fill="none"/>
   <line stroke="#000" id="svg_107" y2="256" x2="405" y1="246" x1="405" fill="none"/>
   <line stroke="#000" id="svg_108" y2="235" x2="484" y1="235" x1="444" fill="none"/>
   <line stroke="#000" id="svg_109" y2="257" x2="484" y1="235" x1="484" fill="none"/>
   <line stroke="#000" id="svg_110" y2="235" x2="498" y1="235" x1="484" fill="none"/>
   <line stroke="#000" id="svg_111" y2="235" x2="498" y1="227" x1="498" fill="none"/>
   <line stroke="#000" id="svg_112" y2="235" x2="574" y1="235" x1="498" fill="none"/>
   <line stroke="#000" id="svg_113" y2="235" x2="641" y1="235" x1="574" fill="none"/>
   <line stroke="#000" id="svg_114" y2="280" x2="574" y1="235" x1="574" fill="none"/>
   <line stroke="#000" id="svg_115" y2="288" x2="574" y1="280" x1="574" fill="none"/>
   <line stroke="#000" id="svg_116" y2="280" x2="584" y1="280" x1="574" fill="none"/>
   <line stroke="#000" id="svg_117" y2="288" x2="584" y1="288" x1="574" fill="none"/>
   <line stroke="#000" id="svg_118" y2="329.00001" x2="574" y1="288" x1="574" fill="none"/>
   <line stroke="#000" id="svg_119" y2="329" x2="573.99999" y1="329" x1="497" fill="none"/>
   <line stroke="#000" id="svg_120" y2="329" x2="497" y1="323" x1="497" fill="none"/>
   <line stroke="#000" id="svg_121" y2="359" x2="574" y1="329" x1="574" fill="none"/>
   <line stroke="#000" id="svg_122" y2="359" x2="584" y1="359" x1="574" fill="none"/>
   <line stroke="#000" id="svg_123" y2="410.00001" x2="574" y1="359" x1="574" fill="none"/>
   <line stroke="#000" id="svg_124" y2="410" x2="539" y1="402" x1="539" fill="none"/>
   <line stroke="#000" id="svg_125" y2="410" x2="526" y1="402" x1="526" fill="none"/>
   <line stroke="#000" id="svg_126" y2="410" x2="453" y1="400" x1="453" fill="none"/>
   <line stroke="#000" id="svg_127" y2="410" x2="622" y1="404" x1="622" fill="none"/>
   <line stroke="#000" id="svg_128" y2="410" x2="632" y1="410" x1="622" fill="none"/>
   <line stroke="#000" id="svg_129" y2="410" x2="526" y1="410" x1="453" fill="none"/>
   <line stroke="#000" id="svg_130" y2="410" x2="539" y1="410" x1="526" fill="none"/>
   <line stroke="#000" id="svg_131" y2="410" x2="574" y1="410" x1="539" fill="none"/>
   <line stroke="#000" id="svg_132" y2="410" x2="622" y1="410" x1="574" fill="none"/>
   <line stroke="#000" id="svg_133" y2="288" x2="574" y1="288" x1="568" fill="none"/>
   <line stroke="#000" id="svg_134" y2="187" x2="459" y1="177" x1="459" fill="none"/>
   <line stroke="#000" id="svg_135" y2="120" x2="404" y1="120" x1="333" fill="none"/>
   <line stroke="#000" id="svg_136" y2="177" x2="404" y1="120" x1="404" fill="none"/>
   <line stroke="#000" id="svg_137" y2="496" x2="383" y1="482" x1="383" fill="none"/>
   <line stroke="#000" id="svg_138" y2="258" x2="668" y1="231" x1="668" fill="none"/>
   <line stroke="#000" id="svg_139" y2="235" x2="652" y1="235" x1="640" fill="none"/>
   <rect stroke="#000" id="svg_140" height="108.99999" width="49" y="122.00001" x="662" fill="none"/>
   <line stroke="#000" id="svg_142" y2="258" x2="641" y1="235" x1="641" fill="none"/>
   <line stroke="#000" id="svg_143" y2="258" x2="668" y1="258" x1="641" fill="none"/>
   <text xml:space="preserve" text-anchor="start" font-family="Noto Sans JP" font-size="18" stroke-width="0" id="svg_146" y="187" x="133" stroke="#000" fill="#000000">H107</text>
   <text xml:space="preserve" text-anchor="start" font-family="Noto Sans JP" font-size="18" stroke-width="0" id="svg_147" y="226" x="133" stroke="#000" fill="#000000">H108</text>
   <text xml:space="preserve" text-anchor="start" font-family="Noto Sans JP" font-size="18" stroke-width="0" id="svg_148" y="125" x="248" stroke="#000" fill="#000000">FITT</text>
   <text style="cursor: move;" xml:space="preserve" text-anchor="start" font-family="Noto Sans JP" font-size="18" stroke-width="0" id="svg_149" y="243" x="227" stroke="#000" fill="#000000">HGYM</text>
   <g id="svg_152">
    <text stroke="#000" transform="matrix(0.794794 0 0 1 70.3335 -1)" stroke-width="0" xml:space="preserve" text-anchor="start" font-family="Noto Sans JP" font-size="14" id="svg_150" y="147" x="335.51637" fill="#000000">Middle School</text>
    <text stroke="#000" transform="matrix(0.794794 0 0 1 69.3335 17)" stroke-width="0" xml:space="preserve" text-anchor="start" font-family="Noto Sans JP" font-size="14" id="svg_151" y="144" x="351.87282" fill="#000000">Cafeteria</text>
   </g>
   <g id="svg_162">
    <text xml:space="preserve" text-anchor="start" font-family="Noto Sans JP" font-size="14" stroke-width="0" id="svg_153" y="198" x="338" stroke="#000" fill="#000000">Boy's</text>
    <text xml:space="preserve" text-anchor="start" font-family="Noto Sans JP" font-size="14" stroke-width="0" id="svg_154" y="216" x="334" stroke="#000" fill="#000000">Locker</text>
    <text xml:space="preserve" text-anchor="start" font-family="Noto Sans JP" font-size="14" stroke-width="0" id="svg_155" y="234" x="336" stroke="#000" fill="#000000">Room</text>
   </g>
   <g id="svg_163">
    <text xml:space="preserve" text-anchor="start" font-family="Noto Sans JP" font-size="14" stroke-width="0" id="svg_159" y="271" x="338" stroke="#000" fill="#000000">Girl's</text>
    <text xml:space="preserve" text-anchor="start" font-family="Noto Sans JP" font-size="14" stroke-width="0" id="svg_160" y="289" x="334" stroke="#000" fill="#000000">Locker</text>
    <text xml:space="preserve" text-anchor="start" font-family="Noto Sans JP" font-size="14" stroke-width="0" id="svg_161" y="307" x="336" stroke="#000" fill="#000000">Room</text>
   </g>
   <text xml:space="preserve" text-anchor="start" font-family="Noto Sans JP" font-size="14" stroke-width="0" id="svg_165" y="214" x="445" stroke="#000" fill="#000000">Cafeteria</text>
   <g id="svg_169">
    <text xml:space="preserve" text-anchor="start" font-family="Noto Sans JP" font-size="14" stroke-width="0" id="svg_167" y="286" x="460" stroke="#000" fill="#000000">Band</text>
    <text xml:space="preserve" text-anchor="start" font-family="Noto Sans JP" font-size="14" stroke-width="0" id="svg_168" y="305" x="459" stroke="#000" fill="#000000">Room</text>
   </g>
   <text xml:space="preserve" text-anchor="start" font-family="Noto Sans JP" font-size="14" stroke-width="0" id="svg_170" y="366" x="458" stroke="#000" fill="#000000">LGI</text>
   <text xml:space="preserve" text-anchor="start" font-family="Noto Sans JP" font-size="14" stroke-width="0" id="svg_171" y="379" x="498" stroke="#000" fill="#000000">H100</text>
   <text xml:space="preserve" text-anchor="start" font-family="Noto Sans JP" font-size="14" stroke-width="0" id="svg_172" y="379" x="536" stroke="#000" fill="#000000">H101</text>
   <text xml:space="preserve" text-anchor="start" font-family="Noto Sans JP" font-size="14" stroke-width="0" id="svg_173" y="268" x="593" stroke="#000" fill="#000000">H105</text>
   <text style="cursor: move;" xml:space="preserve" text-anchor="start" font-family="Noto Sans JP" font-size="14" stroke-width="0" id="svg_174" y="310" x="593" stroke="#000" fill="#000000">H104</text>
   <text style="cursor: move;" xml:space="preserve" text-anchor="start" font-family="Noto Sans JP" font-size="14" stroke-width="0" id="svg_175" y="351" x="593" stroke="#000" fill="#000000">H103</text>
   <text style="cursor: move;" xml:space="preserve" text-anchor="start" font-family="Noto Sans JP" font-size="14" stroke-width="0" id="svg_176" y="387" x="593" stroke="#000" fill="#000000">H102</text>
   <text transform="rotate(90 430.008 336.25)" xml:space="preserve" text-anchor="start" font-family="Noto Sans JP" font-size="18" id="svg_177" y="342" x="393" stroke-width="0" stroke="#000" fill="#000000">Commons</text>
   <text xml:space="preserve" text-anchor="start" font-family="Noto Sans JP" font-size="18" id="svg_178" y="279.80939" x="510.84959" stroke-width="0" stroke="#000" fill="#000000">Faculty</text>
   <text transform="rotate(90 390.07 383.977)" xml:space="preserve" text-anchor="start" font-family="Noto Sans JP" font-size="14" stroke-width="0" id="svg_179" y="388.47815" x="378.79517" stroke="#000" fill="#000000">WC</text>
   <text xml:space="preserve" text-anchor="start" font-family="Noto Sans JP" font-size="18" stroke-width="0" id="svg_181" y="427" x="318" stroke="#000" fill="#000000">Library</text>
   <text xml:space="preserve" text-anchor="start" font-family="Noto Sans JP" font-size="18" stroke-width="0" id="svg_182" y="394" x="179" stroke="#000" fill="#000000">MGYM</text>
   <text xml:space="preserve" text-anchor="start" font-family="Noto Sans JP" font-size="18" stroke-width="0" id="svg_183" y="149" x="665" stroke="#000" fill="#000000">Port 2</text>
   <text xml:space="preserve" text-anchor="start" font-family="Noto Sans JP" font-size="18" stroke-width="0" id="svg_184" y="205" x="665" stroke="#000" fill="#000000">Port 1</text>
   <text xml:space="preserve" text-anchor="start" font-family="Noto Sans JP" font-size="18" id="svg_185" y="460" x="255" stroke-width="0" stroke="#000" fill="#000000">M100</text>
   <text style="cursor: move;" xml:space="preserve" text-anchor="start" font-family="Noto Sans JP" font-size="18" id="svg_186" y="502" x="184" stroke-width="0" stroke="#000" fill="#000000">M101</text>
   <text xml:space="preserve" text-anchor="start" font-family="Noto Sans JP" font-size="18" id="svg_187" y="454" x="421" stroke-width="0" stroke="#000" fill="#000000">Nurse</text>
   <text xml:space="preserve" text-anchor="start" font-family="Noto Sans JP" font-size="18" id="svg_188" y="480" x="496" stroke-width="0" stroke="#000" fill="#000000">Auditorium</text>
   <text transform="rotate(90 628 476.25)" xml:space="preserve" text-anchor="start" font-family="Noto Sans JP" font-size="18" id="svg_189" y="482" x="608" stroke-width="0" stroke="#000" fill="#000000">Stage</text>
  </g>
</svg>