<svg version="1.1" viewBox="0.0 0.0 1374.724409448819 872.8923884514436" fill="none" stroke="none" stroke-linecap="square" stroke-miterlimit="10" xmlns:xlink="http://www.w3.org/1999/xlink" xmlns="http://www.w3.org/2000/svg"><clipPath id="p.0"><path d="m0 0l1374.7244 0l0 872.8924l-1374.7244 0l0 -872.8924z" clip-rule="nonzero"/></clipPath><g clip-path="url(#p.0)"><path fill="#000000" fill-opacity="0.0" d="m0 0l1374.7244 0l0 872.8924l-1374.7244 0z" fill-rule="evenodd"/><path fill="#ffffff" d="m649.5477 450.4626l0 0c0.87628174 -11.888855 11.236023 -20.994965 23.139038 -20.33905l596.9935 32.897186c5.7160645 0.31497192 11.030884 2.8850403 14.7751465 7.144806c3.7442627 4.2597656 5.611328 9.860291 5.1905518 15.569489l-26.362915 357.66653c-0.8762207 11.888855 -11.235962 20.994934 -23.139038 20.33905l-596.9935 -32.897217l0 0c-11.903076 -0.6558838 -20.84198 -10.825439 -19.965698 -22.714294z" fill-rule="evenodd"/><path stroke="#999999" stroke-width="1.0" stroke-linejoin="round" stroke-linecap="butt" d="m649.5477 450.4626l0 0c0.87628174 -11.888855 11.236023 -20.994965 23.139038 -20.33905l596.9935 32.897186c5.7160645 0.31497192 11.030884 2.8850403 14.7751465 7.144806c3.7442627 4.2597656 5.611328 9.860291 5.1905518 15.569489l-26.362915 357.66653c-0.8762207 11.888855 -11.235962 20.994934 -23.139038 20.33905l-596.9935 -32.897217l0 0c-11.903076 -0.6558838 -20.84198 -10.825439 -19.965698 -22.714294z" fill-rule="evenodd"/><path fill="#f0f2f5" d="m677.7785 473.3939l0 0c2.4414062E-4 -0.0026550293 0.0025634766 -0.004699707 0.0052490234 -0.004547119l580.4915 31.992676c0.0012207031 6.1035156E-5 0.0024414062 6.4086914E-4 0.0032958984 0.0015869141c8.544922E-4 9.765625E-4 0.0012207031 0.0022277832 0.0010986328 0.0035095215l-24.213257 328.43753c-2.4414062E-4 0.0026855469 -0.0025634766 0.004699707 -0.0052490234 0.0045776367l-580.4915 -31.992676l0 0c-0.0026245117 -1.8310547E-4 -0.004638672 -0.0024414062 -0.0044555664 -0.005126953z" fill-rule="evenodd"/><path stroke="#b7b7b7" stroke-width="1.0" stroke-linejoin="round" stroke-linecap="butt" d="m677.7785 473.3939l0 0c2.4414062E-4 -0.0026550293 0.0025634766 -0.004699707 0.0052490234 -0.004547119l580.4915 31.992676c0.0012207031 6.1035156E-5 0.0024414062 6.4086914E-4 0.0032958984 0.0015869141c8.544922E-4 9.765625E-4 0.0012207031 0.0022277832 0.0010986328 0.0035095215l-24.213257 328.43753c-2.4414062E-4 0.0026855469 -0.0025634766 0.004699707 -0.0052490234 0.0045776367l-580.4915 -31.992676l0 0c-0.0026245117 -1.8310547E-4 -0.004638672 -0.0024414062 -0.0044555664 -0.005126953z" fill-rule="evenodd"/><path fill="#ffffff" d="m712.6399 638.6266l0 0c0.8206787 -9.094421 8.868652 -15.926575 17.975647 -15.260071l67.555115 4.9439697l0 0c4.373352 0.32006836 8.411011 2.3618774 11.2247925 5.6763306c2.8137207 3.3144531 4.1730347 7.630066 3.7789917 11.997314l-5.9436646 65.86554c-0.8206787 9.094421 -8.868652 15.926575 -17.975647 15.260071l-67.555115 -4.9439697l0 0c-9.106995 -0.6665039 -15.824402 -8.579285 -15.003723 -17.673645z" fill-rule="evenodd"/><path fill="#6fa8dc" d="m719.5873 561.63837l0 0c0.8206177 -9.094421 8.868591 -15.926575 17.975586 -15.260132l67.555176 4.944031l0 0c4.373291 0.32000732 8.41095 2.3618774 11.224731 5.6763306c2.8137207 3.3144531 4.1730957 7.630005 3.7789917 11.997314l-5.9436646 65.86554c-0.8206787 9.09436 -8.868652 15.926575 -17.975647 15.260071l-67.555115 -4.9439697l0 0c-9.106995 -0.6665039 -15.824402 -8.579285 -15.003723 -17.673706z" fill-rule="evenodd"/><path fill="#999999" d="m722.17255 661.88934l0 0c0.08355713 -0.92578125 0.902771 -1.6212158 1.829773 -1.5533447l74.06641 5.420471c0.44519043 0.032592773 0.8562012 0.24041748 1.1426392 0.5778198c0.28637695 0.33740234 0.42474365 0.77667236 0.38464355 1.2212524l-0.6050415 6.704529c-0.083496094 0.9257202 -0.90270996 1.6211548 -1.8297119 1.5533447l-74.06647 -5.420532l0 0c-0.92700195 -0.067871094 -1.6107788 -0.873291 -1.5272827 -1.7990112z" fill-rule="evenodd"/><path fill="#999999" d="m719.8756 687.34296l0 0c0.08355713 -0.9257202 0.902771 -1.6212158 1.829773 -1.5533447l74.06647 5.420471c0.44519043 0.032592773 0.85614014 0.24041748 1.1425781 0.5778198c0.286438 0.33740234 0.4248047 0.77667236 0.38464355 1.2212524l-0.60498047 6.704529c-0.08355713 0.9257202 -0.902771 1.6211548 -1.829773 1.5533447l-74.06647 -5.420532l0 0c-0.92700195 -0.06781006 -1.6107788 -0.873291 -1.5272217 -1.7990112z" fill-rule="evenodd"/><path fill="#ffffff" d="m843.16956 643.543l0 0c0.8206787 -9.094421 8.868652 -15.926575 17.975647 -15.260132l67.555115 4.944031l0 0c4.373352 0.32000732 8.411011 2.3618774 11.224731 5.6763306c2.8137207 3.3144531 4.1730957 7.630005 3.7789917 11.997314l-5.9436035 65.86554c-0.8206787 9.09436 -8.868652 15.926575 -17.975647 15.260071l-67.555115 -4.9439697l0 0c-9.107056 -0.6665039 -15.824402 -8.579285 -15.003784 -17.673706z" fill-rule="evenodd"/><path fill="#f6b26b" d="m850.1169 566.55475l0 0c0.8206787 -9.09436 8.868652 -15.926575 17.975647 -15.260071l67.555115 4.9439697l0 0c4.373352 0.32006836 8.411011 2.3619385 11.224731 5.6763916c2.8137817 3.3144531 4.1730957 7.630005 3.7789917 11.997314l-5.9436035 65.86548c-0.8206787 9.094421 -8.868652 15.926575 -17.975647 15.260132l-67.555115 -4.944031l0 0c-9.106995 -0.6664429 -15.824402 -8.579224 -15.003723 -17.673645z" fill-rule="evenodd"/><path fill="#999999" d="m852.70215 666.8057l0 0c0.08355713 -0.9257202 0.902771 -1.6211548 1.829773 -1.5533447l74.06647 5.420532c0.44519043 0.032592773 0.85614014 0.24041748 1.1425781 0.5778198c0.286438 0.3373413 0.4248047 0.77667236 0.38464355 1.2211914l-0.60498047 6.704529c-0.08355713 0.9257202 -0.902771 1.6212158 -1.829773 1.5533447l-74.06647 -5.420471l0 0c-0.92700195 -0.067871094 -1.6107788 -0.873291 -1.5272217 -1.7990723z" fill-rule="evenodd"/><path fill="#999999" d="m850.4053 692.25934l0 0c0.08355713 -0.9257202 0.902771 -1.6211548 1.829773 -1.5533447l74.06641 5.420532c0.44519043 0.032592773 0.8562012 0.24041748 1.1425781 0.5778198c0.286438 0.3373413 0.4248047 0.77667236 0.3847046 1.2211914l-0.6050415 6.704529c-0.083496094 0.92578125 -0.90270996 1.6212158 -1.8297119 1.5533447l-74.06647 -5.420471l0 0c-0.92700195 -0.067871094 -1.6107788 -0.873291 -1.5272827 -1.7990112z" fill-rule="evenodd"/><path fill="#ffffff" d="m972.27057 654.0117l0 0c0.8206787 -9.094421 8.868652 -15.926575 17.975647 -15.260132l67.555176 4.944031l0 0c4.373291 0.32006836 8.411011 2.3618774 11.224731 5.6763306c2.8137207 3.3144531 4.1730957 7.630005 3.7789307 11.997314l-5.9436035 65.86554c-0.8206787 9.09436 -8.868652 15.926575 -17.975586 15.260071l-67.555176 -4.9439697l0 0c-9.106995 -0.6665039 -15.824402 -8.579285 -15.003723 -17.673706z" fill-rule="evenodd"/><path fill="#e06666" d="m979.2179 577.02344l0 0c0.8206787 -9.09436 8.868652 -15.926575 17.975647 -15.260071l67.555115 4.9439697l0 0c4.373413 0.32006836 8.411011 2.3619385 11.224731 5.6763916c2.8138428 3.3144531 4.1730957 7.630005 3.7790527 11.997314l-5.9436035 65.86548c-0.8206787 9.094421 -8.868652 15.926575 -17.975708 15.260132l-67.555115 -4.944031l0 0c-9.106995 -0.6664429 -15.824402 -8.579224 -15.003723 -17.673645z" fill-rule="evenodd"/><path fill="#999999" d="m981.8032 677.2744l0 0c0.08355713 -0.9257202 0.902771 -1.6211548 1.829773 -1.5533447l74.06647 5.420532c0.44506836 0.032592773 0.8560791 0.24041748 1.1425781 0.5778198c0.28637695 0.3373413 0.4248047 0.77667236 0.38464355 1.2211914l-0.60498047 6.704529c-0.083618164 0.92578125 -0.90283203 1.6212158 -1.829834 1.5533447l-74.06641 -5.420471l0 0c-0.92700195 -0.067871094 -1.6107788 -0.873291 -1.5272827 -1.7990112z" fill-rule="evenodd"/><path fill="#999999" d="m979.5063 702.7281l0 0c0.08355713 -0.92578125 0.902771 -1.6212158 1.829773 -1.5533447l74.06641 5.420471c0.44519043 0.032592773 0.8562012 0.24041748 1.1425781 0.5778198c0.28649902 0.33740234 0.4248047 0.77667236 0.38476562 1.2211914l-0.60510254 6.70459c-0.083496094 0.9257202 -0.90270996 1.6211548 -1.8297119 1.5533447l-74.06647 -5.420532l0 0c-0.92700195 -0.067871094 -1.6107788 -0.873291 -1.5272217 -1.7990112z" fill-rule="evenodd"/><path fill="#ffffff" d="m1102.4338 660.3519l0 0c0.8206787 -9.094421 8.868652 -15.926575 17.975708 -15.260071l67.55505 4.9439697l0 0c4.373413 0.32006836 8.411011 2.3618774 11.224731 5.6763306c2.8138428 3.3144531 4.1730957 7.630005 3.7790527 11.997314l-5.9436035 65.86554c-0.8206787 9.094421 -8.868652 15.926575 -17.975708 15.260071l-67.55505 -4.9439697l0 0c-9.107056 -0.6665039 -15.824463 -8.579285 -15.003784 -17.673645z" fill-rule="evenodd"/><path fill="#c27ba0" d="m1109.3812 583.36365l0 0c0.8206787 -9.09436 8.868652 -15.926575 17.975586 -15.260071l67.555176 4.9439697l0 0c4.373291 0.32006836 8.411011 2.3619385 11.224731 5.6763916c2.8137207 3.3144531 4.1730957 7.630005 3.7789307 11.997314l-5.9436035 65.86548c-0.8206787 9.094421 -8.868652 15.926636 -17.975586 15.260132l-67.555176 -4.9439697l0 0c-9.106934 -0.6665039 -15.824341 -8.579285 -15.003662 -17.673706z" fill-rule="evenodd"/><path fill="#999999" d="m1111.9666 683.6147l0 0c0.083496094 -0.92578125 0.90270996 -1.6212158 1.8297119 -1.5533447l74.06641 5.420471c0.44519043 0.032592773 0.8562012 0.24041748 1.1425781 0.5778198c0.28649902 0.33740234 0.4248047 0.77667236 0.38476562 1.2211914l-0.60510254 6.70459c-0.083496094 0.9257202 -0.90270996 1.6211548 -1.8297119 1.5533447l-74.06641 -5.420532l0 0c-0.927124 -0.067871094 -1.6108398 -0.873291 -1.5273438 -1.7990112z" fill-rule="evenodd"/><path fill="#999999" d="m1109.6696 709.0683l0 0c0.083618164 -0.92578125 0.90283203 -1.6212158 1.829834 -1.5533447l74.06641 5.420471c0.44519043 0.032592773 0.8562012 0.24041748 1.1425781 0.5778198c0.28637695 0.33740234 0.4248047 0.77667236 0.38464355 1.2211914l-0.60498047 6.70459c-0.083496094 0.9257202 -0.90270996 1.6211548 -1.8297119 1.5533447l-74.06653 -5.420532l0 0c-0.92700195 -0.067871094 -1.6107178 -0.873291 -1.5272217 -1.7990112z" fill-rule="evenodd"/><path fill="#ffffff" d="m596.4775 94.33837l0 0c-1.0518188 -11.394318 7.3303223 -21.50621 18.722046 -22.58554l608.9919 -57.700058c5.470581 -0.5183134 10.917603 1.1582441 15.143066 4.6608486c4.225342 3.5026054 6.8829346 8.544342 7.3880615 14.016087l31.64331 342.78888c1.0517578 11.394318 -7.3303223 21.506195 -18.722046 22.58554l-608.99194 57.700043l0 0c-11.391785 1.0793457 -21.479248 -7.282593 -22.531128 -18.67691z" fill-rule="evenodd"/><path stroke="#999999" stroke-width="1.0" stroke-linejoin="round" stroke-linecap="butt" d="m596.4775 94.33837l0 0c-1.0518188 -11.394318 7.3303223 -21.50621 18.722046 -22.58554l608.9919 -57.700058c5.470581 -0.5183134 10.917603 1.1582441 15.143066 4.6608486c4.225342 3.5026054 6.8829346 8.544342 7.3880615 14.016087l31.64331 342.78888c1.0517578 11.394318 -7.3303223 21.506195 -18.722046 22.58554l-608.99194 57.700043l0 0c-11.391785 1.0793457 -21.479248 -7.282593 -22.531128 -18.67691z" fill-rule="evenodd"/><path fill="#f0f2f5" d="m628.6333 111.8738l0 0c-2.4414062E-4 -0.002708435 0.0017700195 -0.0051193237 0.0044555664 -0.005378723l589.6943 -55.866707c0.0012207031 -1.2207031E-4 0.0025634766 2.784729E-4 0.003540039 0.0011100769c9.765625E-4 8.354187E-4 0.0017089844 0.0020370483 0.0018310547 0.0033416748l29.052368 314.77615c2.4414062E-4 0.0027160645 -0.0017089844 0.005126953 -0.0043945312 0.0054016113l-589.6942 55.8667l0 0c-0.002746582 2.4414062E-4 -0.005126953 -0.001739502 -0.0053710938 -0.0044555664z" fill-rule="evenodd"/><path stroke="#b7b7b7" stroke-width="1.0" stroke-linejoin="round" stroke-linecap="butt" d="m628.6333 111.8738l0 0c-2.4414062E-4 -0.002708435 0.0017700195 -0.0051193237 0.0044555664 -0.005378723l589.6943 -55.866707c0.0012207031 -1.2207031E-4 0.0025634766 2.784729E-4 0.003540039 0.0011100769c9.765625E-4 8.354187E-4 0.0017089844 0.0020370483 0.0018310547 0.0033416748l29.052368 314.77615c2.4414062E-4 0.0027160645 -0.0017089844 0.005126953 -0.0043945312 0.0054016113l-589.6942 55.8667l0 0c-0.002746582 2.4414062E-4 -0.005126953 -0.001739502 -0.0053710938 -0.0044555664z" fill-rule="evenodd"/><path fill="#ffffff" d="m651.7658 174.08719l0 0c-1.4701538 -15.925842 10.245605 -30.059235 26.167847 -31.56781l115.31561 -10.9257965l0 0c7.646118 -0.7244415 15.2595825 1.6188812 21.165405 6.5144653c5.9058228 4.8955994 9.6203 11.942429 10.326294 19.590286l18.215515 197.327c1.4701538 15.925842 -10.245605 30.059235 -26.167847 31.56781l-115.315674 10.925781c-15.922241 1.5085754 -30.021545 -10.178894 -31.491638 -26.104736z" fill-rule="evenodd"/><path fill="#999999" d="m671.0848 235.41228l0 0c-0.2919922 -3.1632843 2.0350342 -5.9705353 5.197632 -6.2701874l134.4433 -12.738083c1.5187378 -0.14389038 3.0309448 0.32154846 4.2040405 1.2939453c1.1730347 0.97239685 1.9108276 2.3720856 2.0510254 3.8911438l0 0l0 0c0.29205322 3.1632843 -2.0350342 5.9705505 -5.197571 6.2701874l-134.44336 12.738083c-3.1625366 0.29963684 -5.9630127 -2.0218048 -6.255066 -5.185089z" fill-rule="evenodd"/><path stroke="#b7b7b7" stroke-width="1.0" stroke-linejoin="round" stroke-linecap="butt" d="m671.0848 235.41228l0 0c-0.2919922 -3.1632843 2.0350342 -5.9705353 5.197632 -6.2701874l134.4433 -12.738083c1.5187378 -0.14389038 3.0309448 0.32154846 4.2040405 1.2939453c1.1730347 0.97239685 1.9108276 2.3720856 2.0510254 3.8911438l0 0l0 0c0.29205322 3.1632843 -2.0350342 5.9705505 -5.197571 6.2701874l-134.44336 12.738083c-3.1625366 0.29963684 -5.9630127 -2.0218048 -6.255066 -5.185089z" fill-rule="evenodd"/><path fill="#999999" d="m673.7096 263.84634l0 0c-0.2919922 -3.1632996 2.0350342 -5.9705505 5.197632 -6.2702026l134.4433 -12.738068c1.5187378 -0.14389038 3.0309448 0.32154846 4.2039795 1.2939453c1.1730347 0.97239685 1.9108276 2.3720703 2.0510864 3.8911438l0 0l0 0c0.2919922 3.1632843 -2.0350342 5.9705505 -5.197632 6.270172l-134.4433 12.738098c-3.1625977 0.2996521 -5.9630737 -2.0217896 -6.255066 -5.185089z" fill-rule="evenodd"/><path stroke="#b7b7b7" stroke-width="1.0" stroke-linejoin="round" stroke-linecap="butt" d="m673.7096 263.84634l0 0c-0.2919922 -3.1632996 2.0350342 -5.9705505 5.197632 -6.2702026l134.4433 -12.738068c1.5187378 -0.14389038 3.0309448 0.32154846 4.2039795 1.2939453c1.1730347 0.97239685 1.9108276 2.3720703 2.0510864 3.8911438l0 0l0 0c0.2919922 3.1632843 -2.0350342 5.9705505 -5.197632 6.270172l-134.4433 12.738098c-3.1625977 0.2996521 -5.9630737 -2.0217896 -6.255066 -5.185089z" fill-rule="evenodd"/><path fill="#999999" d="m676.33435 292.2804l0 0c-0.2919922 -3.163269 2.0350342 -5.97052 5.197632 -6.270172l134.4433 -12.738068c1.5187378 -0.1439209 3.0309448 0.3215332 4.2040405 1.2939148c1.1730347 0.9724121 1.9108276 2.3721008 2.0510254 3.8911438l0 0l0 0c0.29205322 3.1632996 -2.0350342 5.9705505 -5.197571 6.2702026l-134.44336 12.738068c-3.1625366 0.2996521 -5.9630127 -2.0217896 -6.255066 -5.185089z" fill-rule="evenodd"/><path stroke="#b7b7b7" stroke-width="1.0" stroke-linejoin="round" stroke-linecap="butt" d="m676.33435 292.2804l0 0c-0.2919922 -3.163269 2.0350342 -5.97052 5.197632 -6.270172l134.4433 -12.738068c1.5187378 -0.1439209 3.0309448 0.3215332 4.2040405 1.2939148c1.1730347 0.9724121 1.9108276 2.3721008 2.0510254 3.8911438l0 0l0 0c0.29205322 3.1632996 -2.0350342 5.9705505 -5.197571 6.2702026l-134.44336 12.738068c-3.1625366 0.2996521 -5.9630127 -2.0217896 -6.255066 -5.185089z" fill-rule="evenodd"/><path fill="#999999" d="m678.95917 320.71448l0 0c-0.2919922 -3.1632996 2.0350342 -5.9705505 5.197632 -6.2702026l134.4433 -12.738068c1.5187378 -0.14389038 3.0309448 0.32156372 4.2039795 1.2939453c1.1730347 0.9723816 1.9108276 2.3720703 2.0510864 3.8911438l0 0l0 0c0.2919922 3.163269 -2.0350342 5.9705505 -5.197632 6.270172l-134.4433 12.738098c-3.1625977 0.29962158 -5.9630737 -2.02182 -6.255066 -5.185089z" fill-rule="evenodd"/><path stroke="#b7b7b7" stroke-width="1.0" stroke-linejoin="round" stroke-linecap="butt" d="m678.95917 320.71448l0 0c-0.2919922 -3.1632996 2.0350342 -5.9705505 5.197632 -6.2702026l134.4433 -12.738068c1.5187378 -0.14389038 3.0309448 0.32156372 4.2039795 1.2939453c1.1730347 0.9723816 1.9108276 2.3720703 2.0510864 3.8911438l0 0l0 0c0.2919922 3.163269 -2.0350342 5.9705505 -5.197632 6.270172l-134.4433 12.738098c-3.1625977 0.29962158 -5.9630737 -2.02182 -6.255066 -5.185089z" fill-rule="evenodd"/><path fill="#999999" d="m681.5839 349.14853l0 0c-0.2919922 -3.163269 2.0350342 -5.97052 5.197632 -6.270172l134.4433 -12.738098c1.5187378 -0.14389038 3.0309448 0.32156372 4.2040405 1.2939453c1.1730347 0.9724121 1.9108276 2.3721008 2.0510254 3.8911438l0 0l0 0c0.29205322 3.1632996 -2.0350342 5.9705505 -5.197571 6.2702026l-134.44336 12.738068c-3.1625366 0.2996521 -5.9630127 -2.0217896 -6.255066 -5.185089z" fill-rule="evenodd"/><path stroke="#b7b7b7" stroke-width="1.0" stroke-linejoin="round" stroke-linecap="butt" d="m681.5839 349.14853l0 0c-0.2919922 -3.163269 2.0350342 -5.97052 5.197632 -6.270172l134.4433 -12.738098c1.5187378 -0.14389038 3.0309448 0.32156372 4.2040405 1.2939453c1.1730347 0.9724121 1.9108276 2.3721008 2.0510254 3.8911438l0 0l0 0c0.29205322 3.1632996 -2.0350342 5.9705505 -5.197571 6.2702026l-134.44336 12.738068c-3.1625366 0.2996521 -5.9630127 -2.0217896 -6.255066 -5.185089z" fill-rule="evenodd"/><path fill="#1472ff" d="m665.2972 172.7153l0 0c-0.19451904 -2.1072083 1.3555908 -3.9772491 3.4623413 -4.1768494l138.26685 -13.100357c1.0117188 -0.09585571 2.019043 0.21420288 2.800476 0.86195374c0.7814331 0.64775085 1.2728882 1.5801392 1.366333 2.5920563l1.5430908 16.716202c0.19451904 2.1072083 -1.3556519 3.9772491 -3.4624023 4.1768494l-138.26685 13.100357c-2.1067505 0.19960022 -3.972229 -1.346817 -4.166748 -3.45401z" fill-rule="evenodd"/><path fill="#ffffff" d="m842.8889 155.97964l0 0c-1.4701538 -15.925827 10.245605 -30.059227 26.167847 -31.56781l115.31561 -10.925789l0 0c7.646179 -0.72444916 15.2595825 1.6188736 21.165405 6.5144653c5.9058228 4.8955917 9.6203 11.942421 10.326294 19.590294l18.215515 197.32698c1.4702148 15.925842 -10.245605 30.059235 -26.167847 31.56781l-115.31561 10.925781c-15.922241 1.508606 -30.021545 -10.178894 -31.4917 -26.104736z" fill-rule="evenodd"/><path fill="#999999" d="m862.20795 217.30475l0 0c-0.29205322 -3.1632996 2.0350342 -5.9705505 5.197571 -6.2702026l134.44336 -12.738068c1.5186768 -0.14390564 3.0309448 0.32154846 4.2039795 1.29393c1.1730347 0.97239685 1.9108276 2.3720856 2.0510864 3.8911438l0 0l0 0c0.2919922 3.1632843 -2.0350952 5.9705505 -5.197632 6.2701874l-134.4433 12.738083c-3.1625977 0.2996521 -5.9630737 -2.0217896 -6.255066 -5.185074z" fill-rule="evenodd"/><path stroke="#b7b7b7" stroke-width="1.0" stroke-linejoin="round" stroke-linecap="butt" d="m862.20795 217.30475l0 0c-0.29205322 -3.1632996 2.0350342 -5.9705505 5.197571 -6.2702026l134.44336 -12.738068c1.5186768 -0.14390564 3.0309448 0.32154846 4.2039795 1.29393c1.1730347 0.97239685 1.9108276 2.3720856 2.0510864 3.8911438l0 0l0 0c0.2919922 3.1632843 -2.0350952 5.9705505 -5.197632 6.2701874l-134.4433 12.738083c-3.1625977 0.2996521 -5.9630737 -2.0217896 -6.255066 -5.185074z" fill-rule="evenodd"/><path fill="#999999" d="m864.8327 245.7388l0 0c-0.2919922 -3.1632843 2.0350342 -5.9705353 5.197632 -6.2701874l134.4433 -12.738068c1.5187378 -0.14390564 3.0309448 0.32154846 4.2039795 1.29393c1.1730957 0.97239685 1.9108887 2.3720856 2.0510864 3.8911438l0 0l0 0c0.2919922 3.1632843 -2.0350342 5.9705505 -5.197632 6.2701874l-134.4433 12.738083c-3.1625977 0.2996521 -5.9630737 -2.0217896 -6.255066 -5.185089z" fill-rule="evenodd"/><path stroke="#b7b7b7" stroke-width="1.0" stroke-linejoin="round" stroke-linecap="butt" d="m864.8327 245.7388l0 0c-0.2919922 -3.1632843 2.0350342 -5.9705353 5.197632 -6.2701874l134.4433 -12.738068c1.5187378 -0.14390564 3.0309448 0.32154846 4.2039795 1.29393c1.1730957 0.97239685 1.9108887 2.3720856 2.0510864 3.8911438l0 0l0 0c0.2919922 3.1632843 -2.0350342 5.9705505 -5.197632 6.2701874l-134.4433 12.738083c-3.1625977 0.2996521 -5.9630737 -2.0217896 -6.255066 -5.185089z" fill-rule="evenodd"/><path fill="#999999" d="m867.4575 274.17288l0 0c-0.29205322 -3.1632996 2.0350342 -5.9705505 5.197571 -6.2702026l134.44336 -12.738083c1.5186768 -0.14389038 3.0309448 0.32156372 4.2039795 1.2939606c1.1730347 0.9723816 1.9108276 2.3720703 2.0510864 3.8911438l0 0l0 0c0.2919922 3.163269 -2.0350952 5.97052 -5.197632 6.270172l-134.4433 12.738098c-3.1625977 0.29962158 -5.9630737 -2.02182 -6.255066 -5.185089z" fill-rule="evenodd"/><path stroke="#b7b7b7" stroke-width="1.0" stroke-linejoin="round" stroke-linecap="butt" d="m867.4575 274.17288l0 0c-0.29205322 -3.1632996 2.0350342 -5.9705505 5.197571 -6.2702026l134.44336 -12.738083c1.5186768 -0.14389038 3.0309448 0.32156372 4.2039795 1.2939606c1.1730347 0.9723816 1.9108276 2.3720703 2.0510864 3.8911438l0 0l0 0c0.2919922 3.163269 -2.0350952 5.97052 -5.197632 6.270172l-134.4433 12.738098c-3.1625977 0.29962158 -5.9630737 -2.02182 -6.255066 -5.185089z" fill-rule="evenodd"/><path fill="#999999" d="m870.0823 302.60693l0 0c-0.2919922 -3.163269 2.0350342 -5.9705505 5.197632 -6.270172l134.4433 -12.738098c1.5187378 -0.14389038 3.0309448 0.32156372 4.2039795 1.2939453c1.1730957 0.9723816 1.9108887 2.3720703 2.0510864 3.8911438l0 0l0 0c0.2919922 3.1632996 -2.0350342 5.9705505 -5.197632 6.2702026l-134.4433 12.738068c-3.1625366 0.2996521 -5.9630737 -2.0217896 -6.255066 -5.185089z" fill-rule="evenodd"/><path stroke="#b7b7b7" stroke-width="1.0" stroke-linejoin="round" stroke-linecap="butt" d="m870.0823 302.60693l0 0c-0.2919922 -3.163269 2.0350342 -5.9705505 5.197632 -6.270172l134.4433 -12.738098c1.5187378 -0.14389038 3.0309448 0.32156372 4.2039795 1.2939453c1.1730957 0.9723816 1.9108887 2.3720703 2.0510864 3.8911438l0 0l0 0c0.2919922 3.1632996 -2.0350342 5.9705505 -5.197632 6.2702026l-134.4433 12.738068c-3.1625366 0.2996521 -5.9630737 -2.0217896 -6.255066 -5.185089z" fill-rule="evenodd"/><path fill="#999999" d="m872.7071 331.04102l0 0c-0.29205322 -3.1632996 2.0350342 -5.9705505 5.197571 -6.2702026l134.44336 -12.738068c1.5186768 -0.1439209 3.0309448 0.3215332 4.2039795 1.2939148c1.1730347 0.9724121 1.9108276 2.3721008 2.0510864 3.8911438l0 0l0 0c0.2919922 3.1632996 -2.0350952 5.9705505 -5.197632 6.2702026l-134.4433 12.738068c-3.1625977 0.2996521 -5.9630737 -2.0217896 -6.255066 -5.1850586z" fill-rule="evenodd"/><path stroke="#b7b7b7" stroke-width="1.0" stroke-linejoin="round" stroke-linecap="butt" d="m872.7071 331.04102l0 0c-0.29205322 -3.1632996 2.0350342 -5.9705505 5.197571 -6.2702026l134.44336 -12.738068c1.5186768 -0.1439209 3.0309448 0.3215332 4.2039795 1.2939148c1.1730347 0.9724121 1.9108276 2.3721008 2.0510864 3.8911438l0 0l0 0c0.2919922 3.1632996 -2.0350952 5.9705505 -5.197632 6.2702026l-134.4433 12.738068c-3.1625977 0.2996521 -5.9630737 -2.0217896 -6.255066 -5.1850586z" fill-rule="evenodd"/><path fill="#1472ff" d="m856.4203 154.60776l0 0c-0.19451904 -2.1072083 1.3555908 -3.9772491 3.4623413 -4.1768494l138.26685 -13.100342c1.0117188 -0.09585571 2.019043 0.21418762 2.800476 0.8619385c0.7814331 0.6477661 1.2728882 1.5801544 1.366333 2.5920715l1.5430908 16.716202c0.19451904 2.107193 -1.3556519 3.977234 -3.4623413 4.1768494l-138.2669 13.100342c-2.1066895 0.19960022 -3.972229 -1.3468018 -4.166748 -3.45401z" fill-rule="evenodd"/><path fill="#ffffff" d="m1027.9954 138.4414l0 0c-1.4700928 -15.92585 10.245605 -30.059242 26.167847 -31.567825l115.315674 -10.925789l0 0c7.646118 -0.72444916 15.2595215 1.6188736 21.165405 6.5144653c5.9057617 4.8955917 9.620239 11.942429 10.326294 19.590286l18.215454 197.32697c1.4702148 15.925842 -10.245605 30.059235 -26.167847 31.56784l-115.315674 10.925781c-15.922241 1.5085754 -30.021484 -10.178925 -31.4917 -26.104767z" fill-rule="evenodd"/><path fill="#999999" d="m1047.3143 199.7665l0 0c-0.2919922 -3.1632843 2.0350342 -5.9705505 5.197632 -6.2701874l134.44336 -12.738083c1.5186768 -0.14389038 3.0308838 0.32154846 4.2039795 1.2939453c1.1730957 0.9723816 1.9108887 2.3720703 2.0510254 3.8911285l0 0l0 0c0.2919922 3.1632996 -2.0350342 5.9705505 -5.197632 6.2702026l-134.44324 12.738068c-3.1625977 0.2996521 -5.963135 -2.0217896 -6.255127 -5.185074z" fill-rule="evenodd"/><path stroke="#b7b7b7" stroke-width="1.0" stroke-linejoin="round" stroke-linecap="butt" d="m1047.3143 199.7665l0 0c-0.2919922 -3.1632843 2.0350342 -5.9705505 5.197632 -6.2701874l134.44336 -12.738083c1.5186768 -0.14389038 3.0308838 0.32154846 4.2039795 1.2939453c1.1730957 0.9723816 1.9108887 2.3720703 2.0510254 3.8911285l0 0l0 0c0.2919922 3.1632996 -2.0350342 5.9705505 -5.197632 6.2702026l-134.44324 12.738068c-3.1625977 0.2996521 -5.963135 -2.0217896 -6.255127 -5.185074z" fill-rule="evenodd"/><path fill="#999999" d="m1049.9392 228.20056l0 0c-0.29211426 -3.1632996 2.0350342 -5.9705505 5.19751 -6.2702026l134.44336 -12.738068c1.5186768 -0.14390564 3.0310059 0.32154846 4.2039795 1.2939453c1.1730957 0.9723816 1.9108887 2.3720703 2.0511475 3.8911285l0 0l0 0c0.2919922 3.1632843 -2.0351562 5.9705505 -5.197632 6.2701874l-134.44336 12.738083c-3.1625977 0.2996521 -5.9630127 -2.0217896 -6.255005 -5.185074z" fill-rule="evenodd"/><path stroke="#b7b7b7" stroke-width="1.0" stroke-linejoin="round" stroke-linecap="butt" d="m1049.9392 228.20056l0 0c-0.29211426 -3.1632996 2.0350342 -5.9705505 5.19751 -6.2702026l134.44336 -12.738068c1.5186768 -0.14390564 3.0310059 0.32154846 4.2039795 1.2939453c1.1730957 0.9723816 1.9108887 2.3720703 2.0511475 3.8911285l0 0l0 0c0.2919922 3.1632843 -2.0351562 5.9705505 -5.197632 6.2701874l-134.44336 12.738083c-3.1625977 0.2996521 -5.9630127 -2.0217896 -6.255005 -5.185074z" fill-rule="evenodd"/><path fill="#999999" d="m1052.564 256.6346l0 0c-0.2919922 -3.1632843 2.0350342 -5.9705353 5.197632 -6.2701874l134.44324 -12.738068c1.5187988 -0.14390564 3.0310059 0.32154846 4.2039795 1.29393c1.1730957 0.97239685 1.9108887 2.3720856 2.0511475 3.8911438l0 0l0 0c0.2919922 3.1632843 -2.0350342 5.9705505 -5.197632 6.2701874l-134.44336 12.738083c-3.1624756 0.2996521 -5.9630127 -2.0217896 -6.255005 -5.185089z" fill-rule="evenodd"/><path stroke="#b7b7b7" stroke-width="1.0" stroke-linejoin="round" stroke-linecap="butt" d="m1052.564 256.6346l0 0c-0.2919922 -3.1632843 2.0350342 -5.9705353 5.197632 -6.2701874l134.44324 -12.738068c1.5187988 -0.14390564 3.0310059 0.32154846 4.2039795 1.29393c1.1730957 0.97239685 1.9108887 2.3720856 2.0511475 3.8911438l0 0l0 0c0.2919922 3.1632843 -2.0350342 5.9705505 -5.197632 6.2701874l-134.44336 12.738083c-3.1624756 0.2996521 -5.9630127 -2.0217896 -6.255005 -5.185089z" fill-rule="evenodd"/><path fill="#999999" d="m1055.1887 285.0687l0 0c-0.2919922 -3.1632996 2.0350342 -5.9705505 5.197632 -6.2702026l134.44336 -12.738068c1.5186768 -0.14389038 3.0308838 0.3215332 4.2039795 1.2939453c1.1729736 0.9723816 1.9107666 2.3720703 2.0510254 3.8911438l0 0l0 0c0.2919922 3.163269 -2.0350342 5.97052 -5.197632 6.270172l-134.44324 12.738098c-3.1625977 0.29962158 -5.963135 -2.02182 -6.255127 -5.185089z" fill-rule="evenodd"/><path stroke="#b7b7b7" stroke-width="1.0" stroke-linejoin="round" stroke-linecap="butt" d="m1055.1887 285.0687l0 0c-0.2919922 -3.1632996 2.0350342 -5.9705505 5.197632 -6.2702026l134.44336 -12.738068c1.5186768 -0.14389038 3.0308838 0.3215332 4.2039795 1.2939453c1.1729736 0.9723816 1.9107666 2.3720703 2.0510254 3.8911438l0 0l0 0c0.2919922 3.163269 -2.0350342 5.97052 -5.197632 6.270172l-134.44324 12.738098c-3.1625977 0.29962158 -5.963135 -2.02182 -6.255127 -5.185089z" fill-rule="evenodd"/><path fill="#999999" d="m1057.8135 313.50275l0 0c-0.2919922 -3.163269 2.0350342 -5.9705505 5.197632 -6.270172l134.44336 -12.738098c1.5186768 -0.14389038 3.0308838 0.32156372 4.2039795 1.2939453c1.1730957 0.9723816 1.9108887 2.3720703 2.0510254 3.8911438l0 0l0 0c0.2919922 3.1632996 -2.0350342 5.9705505 -5.197632 6.2702026l-134.44324 12.738068c-3.1625977 0.2996521 -5.963135 -2.0217896 -6.255127 -5.185089z" fill-rule="evenodd"/><path stroke="#b7b7b7" stroke-width="1.0" stroke-linejoin="round" stroke-linecap="butt" d="m1057.8135 313.50275l0 0c-0.2919922 -3.163269 2.0350342 -5.9705505 5.197632 -6.270172l134.44336 -12.738098c1.5186768 -0.14389038 3.0308838 0.32156372 4.2039795 1.2939453c1.1730957 0.9723816 1.9108887 2.3720703 2.0510254 3.8911438l0 0l0 0c0.2919922 3.1632996 -2.0350342 5.9705505 -5.197632 6.2702026l-134.44324 12.738068c-3.1625977 0.2996521 -5.963135 -2.0217896 -6.255127 -5.185089z" fill-rule="evenodd"/><path fill="#1472ff" d="m1041.5267 137.0695l0 0c-0.19458008 -2.1072083 1.3555908 -3.977234 3.4624023 -4.1768494l138.26685 -13.100342c1.0115967 -0.09585571 2.019043 0.21419525 2.800415 0.8619461c0.78149414 0.64775085 1.2729492 1.5801468 1.366333 2.592064l1.5430908 16.716202c0.19445801 2.1072083 -1.3555908 3.977234 -3.4624023 4.1768494l-138.26685 13.100342c-2.1066895 0.19961548 -3.97229 -1.3468018 -4.166748 -3.45401z" fill-rule="evenodd"/></g></svg>