<svg version="1.1" viewBox="0.0 0.0 1030.0839895013123 726.4803149606299" fill="none" stroke="none" stroke-linecap="square" stroke-miterlimit="10" xmlns:xlink="http://www.w3.org/1999/xlink" xmlns="http://www.w3.org/2000/svg"><clipPath id="p.0"><path d="m0 0l1030.084 0l0 726.4803l-1030.084 0l0 -726.4803z" clip-rule="nonzero"/></clipPath><g clip-path="url(#p.0)"><path fill="#000000" fill-opacity="0.0" d="m0 0l1030.084 0l0 726.4803l-1030.084 0z" fill-rule="evenodd"/><path fill="#ffffff" d="m206.31184 197.41837l0 0c-2.5443878 -13.424957 6.2759857 -26.371063 19.700867 -28.915909l673.56494 -127.68262c6.4468384 -1.2220802 13.115051 0.16691208 18.537598 3.861412c5.4226074 3.6945 9.155457 9.391876 10.377319 15.838772l76.54584 403.87915c2.5444336 13.424957 -6.27594 26.371063 -19.700867 28.915924l-673.5649 127.68259l0 0c-13.424896 2.5448608 -26.370544 -6.2752075 -28.914917 -19.700134z" fill-rule="evenodd"/><path stroke="#999999" stroke-width="1.0" stroke-linejoin="round" stroke-linecap="butt" d="m206.31184 197.41837l0 0c-2.5443878 -13.424957 6.2759857 -26.371063 19.700867 -28.915909l673.56494 -127.68262c6.4468384 -1.2220802 13.115051 0.16691208 18.537598 3.861412c5.4226074 3.6945 9.155457 9.391876 10.377319 15.838772l76.54584 403.87915c2.5444336 13.424957 -6.27594 26.371063 -19.700867 28.915924l-673.5649 127.68259l0 0c-13.424896 2.5448608 -26.370544 -6.2752075 -28.914917 -19.700134z" fill-rule="evenodd"/><path fill="#f0f2f5" d="m244.48941 215.0849l0 0c-5.79834E-4 -0.0030059814 0.0014038086 -0.00592041 0.004425049 -0.0064849854l654.9317 -124.14481c0.0014648438 -2.746582E-4 0.0029296875 3.8146973E-5 0.0041503906 8.69751E-4c0.0012207031 8.239746E-4 0.0020751953 0.002105713 0.002319336 0.0035552979l70.285095 370.87497c5.493164E-4 0.0030212402 -0.0014038086 0.00592041 -0.0044555664 0.006500244l-654.9317 124.144806l0 0c-0.0030212402 5.493164E-4 -0.00592041 -0.0014038086 -0.006500244 -0.0044555664z" fill-rule="evenodd"/><path stroke="#b7b7b7" stroke-width="1.0" stroke-linejoin="round" stroke-linecap="butt" d="m244.48941 215.0849l0 0c-5.79834E-4 -0.0030059814 0.0014038086 -0.00592041 0.004425049 -0.0064849854l654.9317 -124.14481c0.0014648438 -2.746582E-4 0.0029296875 3.8146973E-5 0.0041503906 8.69751E-4c0.0012207031 8.239746E-4 0.0020751953 0.002105713 0.002319336 0.0035552979l70.285095 370.87497c5.493164E-4 0.0030212402 -0.0014038086 0.00592041 -0.0044555664 0.006500244l-654.9317 124.144806l0 0c-0.0030212402 5.493164E-4 -0.00592041 -0.0014038086 -0.006500244 -0.0044555664z" fill-rule="evenodd"/><path fill="#ffffff" d="m277.52167 284.72476l0 0c-3.3515625 -17.683807 8.266937 -34.73683 25.950623 -38.089005l128.07285 -24.277802l0 0c8.492004 -1.6097717 17.275574 0.21986389 24.418396 5.08638c7.1428223 4.866516 12.059814 12.371307 13.669281 20.863373l44.805176 236.40567c3.3515625 17.683807 -8.266937 34.736816 -25.950623 38.08899l-128.07285 24.277832c-17.683685 3.3521118 -34.736115 -8.26593 -38.087677 -25.949768z" fill-rule="evenodd"/><path fill="#999999" d="m306.91037 357.59583l0 0c-0.70635986 -3.7270203 1.7423401 -7.321106 5.4693604 -8.027618l148.53955 -28.157532c1.7897644 -0.33926392 3.6409912 0.0463562 5.1464233 1.0720215c1.5054016 1.0256653 2.5417175 2.6073608 2.8809204 4.397156l0 0l0 0c0.7063904 3.7270203 -1.7423401 7.321106 -5.46933 8.027618l-148.53958 28.157532c-3.7269897 0.70648193 -7.3209534 -1.7421265 -8.027344 -5.4691772z" fill-rule="evenodd"/><path stroke="#b7b7b7" stroke-width="1.0" stroke-linejoin="round" stroke-linecap="butt" d="m306.91037 357.59583l0 0c-0.70635986 -3.7270203 1.7423401 -7.321106 5.4693604 -8.027618l148.53955 -28.157532c1.7897644 -0.33926392 3.6409912 0.0463562 5.1464233 1.0720215c1.5054016 1.0256653 2.5417175 2.6073608 2.8809204 4.397156l0 0l0 0c0.7063904 3.7270203 -1.7423401 7.321106 -5.46933 8.027618l-148.53958 28.157532c-3.7269897 0.70648193 -7.3209534 -1.7421265 -8.027344 -5.4691772z" fill-rule="evenodd"/><path fill="#999999" d="m313.2598 391.0973l0 0c-0.70635986 -3.7270203 1.7423401 -7.3211365 5.46933 -8.027618l148.53958 -28.157532c1.7897644 -0.33926392 3.6409912 0.0463562 5.1464233 1.0720215c1.5054016 1.0256653 2.5417175 2.6073608 2.8809204 4.3971252l0 0l0 0c0.70635986 3.7270508 -1.7423401 7.3211365 -5.4693604 8.027649l-148.53955 28.157501c-3.7270203 0.70651245 -7.320984 -1.7421265 -8.027344 -5.4691467z" fill-rule="evenodd"/><path stroke="#b7b7b7" stroke-width="1.0" stroke-linejoin="round" stroke-linecap="butt" d="m313.2598 391.0973l0 0c-0.70635986 -3.7270203 1.7423401 -7.3211365 5.46933 -8.027618l148.53958 -28.157532c1.7897644 -0.33926392 3.6409912 0.0463562 5.1464233 1.0720215c1.5054016 1.0256653 2.5417175 2.6073608 2.8809204 4.3971252l0 0l0 0c0.70635986 3.7270508 -1.7423401 7.3211365 -5.4693604 8.027649l-148.53955 28.157501c-3.7270203 0.70651245 -7.320984 -1.7421265 -8.027344 -5.4691467z" fill-rule="evenodd"/><path fill="#999999" d="m319.60922 424.59875l0 0c-0.7063904 -3.7270508 1.7423401 -7.3211365 5.46933 -8.027618l148.53958 -28.157532c1.7897644 -0.33929443 3.6409912 0.046325684 5.146393 1.071991c1.5054321 1.0256653 2.5417175 2.6073608 2.880951 4.397156l0 0l0 0c0.70635986 3.7270508 -1.7423401 7.3211365 -5.4693604 8.027618l-148.53955 28.157532c-3.7270203 0.70651245 -7.320984 -1.7421265 -8.027344 -5.4691467z" fill-rule="evenodd"/><path stroke="#b7b7b7" stroke-width="1.0" stroke-linejoin="round" stroke-linecap="butt" d="m319.60922 424.59875l0 0c-0.7063904 -3.7270508 1.7423401 -7.3211365 5.46933 -8.027618l148.53958 -28.157532c1.7897644 -0.33929443 3.6409912 0.046325684 5.146393 1.071991c1.5054321 1.0256653 2.5417175 2.6073608 2.880951 4.397156l0 0l0 0c0.70635986 3.7270508 -1.7423401 7.3211365 -5.4693604 8.027618l-148.53955 28.157532c-3.7270203 0.70651245 -7.320984 -1.7421265 -8.027344 -5.4691467z" fill-rule="evenodd"/><path fill="#999999" d="m325.95865 458.1002l0 0c-0.7063904 -3.7270203 1.7423096 -7.321106 5.46933 -8.027618l148.53955 -28.157532c1.7897949 -0.33926392 3.6409912 0.0463562 5.1464233 1.0720215c1.5054321 1.0256653 2.5417175 2.6073608 2.880951 4.397156l0 0l0 0c0.70635986 3.7270203 -1.7423401 7.321106 -5.4693604 8.027618l-148.53955 28.157532c-3.7270203 0.70648193 -7.320984 -1.7421265 -8.027344 -5.4691772z" fill-rule="evenodd"/><path stroke="#b7b7b7" stroke-width="1.0" stroke-linejoin="round" stroke-linecap="butt" d="m325.95865 458.1002l0 0c-0.7063904 -3.7270203 1.7423096 -7.321106 5.46933 -8.027618l148.53955 -28.157532c1.7897949 -0.33926392 3.6409912 0.0463562 5.1464233 1.0720215c1.5054321 1.0256653 2.5417175 2.6073608 2.880951 4.397156l0 0l0 0c0.70635986 3.7270203 -1.7423401 7.321106 -5.4693604 8.027618l-148.53955 28.157532c-3.7270203 0.70648193 -7.320984 -1.7421265 -8.027344 -5.4691772z" fill-rule="evenodd"/><path fill="#999999" d="m332.30804 491.60165l0 0c-0.70635986 -3.7270203 1.7423401 -7.321106 5.4693604 -8.027618l148.53955 -28.157532c1.7897949 -0.33926392 3.6409912 0.0463562 5.1464233 1.0720215c1.5054016 1.0256653 2.5417175 2.6073608 2.8809204 4.397156l0 0l0 0c0.7063904 3.7270203 -1.7423401 7.321106 -5.46933 8.027618l-148.53958 28.157501c-3.7269897 0.70651245 -7.3209534 -1.7421265 -8.027344 -5.4691467z" fill-rule="evenodd"/><path stroke="#b7b7b7" stroke-width="1.0" stroke-linejoin="round" stroke-linecap="butt" d="m332.30804 491.60165l0 0c-0.70635986 -3.7270203 1.7423401 -7.321106 5.4693604 -8.027618l148.53955 -28.157532c1.7897949 -0.33926392 3.6409912 0.0463562 5.1464233 1.0720215c1.5054016 1.0256653 2.5417175 2.6073608 2.8809204 4.397156l0 0l0 0c0.7063904 3.7270203 -1.7423401 7.321106 -5.46933 8.027618l-148.53958 28.157501c-3.7269897 0.70651245 -7.3209534 -1.7421265 -8.027344 -5.4691467z" fill-rule="evenodd"/><path fill="#1472ff" d="m292.90994 283.72528l0 0c-0.47055054 -2.4827576 1.1606445 -4.8769226 3.6433716 -5.3475647l153.0455 -29.011673c1.1922607 -0.22599792 2.4254456 0.03086853 3.4282532 0.7141113c1.0028381 0.6832428 1.6931458 1.7368774 1.9191284 2.9291382l3.732788 19.695297c0.47052002 2.482727 -1.160675 4.876892 -3.6433716 5.347534l-153.04553 29.011688c-2.482727 0.4706421 -4.876831 -1.160492 -5.3473816 -3.6432495z" fill-rule="evenodd"/><path fill="#ffffff" d="m489.7885 244.48787l0 0c-3.351532 -17.683807 8.266968 -34.73683 25.950684 -38.089005l128.07281 -24.277802l0 0c8.492004 -1.6097717 17.275574 0.21986389 24.418396 5.08638c7.1428223 4.866516 12.059814 12.371307 13.669312 20.863373l44.805176 236.40565c3.3515625 17.683807 -8.266968 34.736847 -25.950684 38.08902l-128.07281 24.277802c-17.683716 3.3521423 -34.736145 -8.26593 -38.087708 -25.949768z" fill-rule="evenodd"/><path fill="#999999" d="m519.17725 317.35895l0 0c-0.70635986 -3.7270508 1.7423706 -7.3211365 5.4693604 -8.027618l148.53955 -28.157532c1.7897949 -0.33926392 3.6409912 0.046325684 5.1464233 1.071991c1.5054321 1.0256653 2.541687 2.6073914 2.8809204 4.397156l0 0l0 0c0.70635986 3.7270508 -1.7423096 7.3211365 -5.4693604 8.027618l-148.53955 28.157532c-3.7269897 0.70651245 -7.320984 -1.7421265 -8.027344 -5.4691467z" fill-rule="evenodd"/><path stroke="#b7b7b7" stroke-width="1.0" stroke-linejoin="round" stroke-linecap="butt" d="m519.17725 317.35895l0 0c-0.70635986 -3.7270508 1.7423706 -7.3211365 5.4693604 -8.027618l148.53955 -28.157532c1.7897949 -0.33926392 3.6409912 0.046325684 5.1464233 1.071991c1.5054321 1.0256653 2.541687 2.6073914 2.8809204 4.397156l0 0l0 0c0.70635986 3.7270508 -1.7423096 7.3211365 -5.4693604 8.027618l-148.53955 28.157532c-3.7269897 0.70651245 -7.320984 -1.7421265 -8.027344 -5.4691467z" fill-rule="evenodd"/><path fill="#999999" d="m525.5267 350.8604l0 0c-0.70635986 -3.7270508 1.7423096 -7.3211365 5.4693604 -8.027649l148.53955 -28.157501c1.7897949 -0.33929443 3.6409912 0.046325684 5.1464233 1.071991c1.5054321 1.0256653 2.541687 2.6073608 2.8809204 4.397156l0 0l0 0c0.70635986 3.7270203 -1.7423706 7.3211365 -5.4693604 8.027618l-148.53955 28.157532c-3.7269897 0.70648193 -7.320984 -1.7421265 -8.027344 -5.4691467z" fill-rule="evenodd"/><path stroke="#b7b7b7" stroke-width="1.0" stroke-linejoin="round" stroke-linecap="butt" d="m525.5267 350.8604l0 0c-0.70635986 -3.7270508 1.7423096 -7.3211365 5.4693604 -8.027649l148.53955 -28.157501c1.7897949 -0.33929443 3.6409912 0.046325684 5.1464233 1.071991c1.5054321 1.0256653 2.541687 2.6073608 2.8809204 4.397156l0 0l0 0c0.70635986 3.7270203 -1.7423706 7.3211365 -5.4693604 8.027618l-148.53955 28.157532c-3.7269897 0.70648193 -7.320984 -1.7421265 -8.027344 -5.4691467z" fill-rule="evenodd"/><path fill="#999999" d="m531.8761 384.36185l0 0c-0.70635986 -3.7270203 1.7423096 -7.321106 5.4693604 -8.027618l148.53955 -28.157532c1.7897339 -0.33926392 3.6409912 0.0463562 5.1464233 1.0720215c1.5053711 1.0256653 2.541687 2.6073608 2.8809204 4.397156l0 0l0 0c0.70635986 3.7270203 -1.7423706 7.321106 -5.4693604 8.027618l-148.53955 28.157532c-3.7269897 0.70648193 -7.320984 -1.7421265 -8.027344 -5.4691772z" fill-rule="evenodd"/><path stroke="#b7b7b7" stroke-width="1.0" stroke-linejoin="round" stroke-linecap="butt" d="m531.8761 384.36185l0 0c-0.70635986 -3.7270203 1.7423096 -7.321106 5.4693604 -8.027618l148.53955 -28.157532c1.7897339 -0.33926392 3.6409912 0.0463562 5.1464233 1.0720215c1.5053711 1.0256653 2.541687 2.6073608 2.8809204 4.397156l0 0l0 0c0.70635986 3.7270203 -1.7423706 7.321106 -5.4693604 8.027618l-148.53955 28.157532c-3.7269897 0.70648193 -7.320984 -1.7421265 -8.027344 -5.4691772z" fill-rule="evenodd"/><path fill="#999999" d="m538.2255 417.8633l0 0c-0.70635986 -3.7270508 1.7423096 -7.3211365 5.4692993 -8.027618l148.53961 -28.157532c1.7897339 -0.33926392 3.6409912 0.046325684 5.1464233 1.071991c1.5053711 1.0256653 2.541687 2.6073914 2.8809204 4.397156l0 0l0 0c0.70635986 3.7270508 -1.7423706 7.3211365 -5.4693604 8.027618l-148.53955 28.157532c-3.7270508 0.70651245 -7.320984 -1.7421265 -8.027344 -5.4691467z" fill-rule="evenodd"/><path stroke="#b7b7b7" stroke-width="1.0" stroke-linejoin="round" stroke-linecap="butt" d="m538.2255 417.8633l0 0c-0.70635986 -3.7270508 1.7423096 -7.3211365 5.4692993 -8.027618l148.53961 -28.157532c1.7897339 -0.33926392 3.6409912 0.046325684 5.1464233 1.071991c1.5053711 1.0256653 2.541687 2.6073914 2.8809204 4.397156l0 0l0 0c0.70635986 3.7270508 -1.7423706 7.3211365 -5.4693604 8.027618l-148.53955 28.157532c-3.7270508 0.70651245 -7.320984 -1.7421265 -8.027344 -5.4691467z" fill-rule="evenodd"/><path fill="#999999" d="m544.57495 451.36478l0 0c-0.7064209 -3.7270508 1.7423096 -7.3211365 5.4692993 -8.027649l148.53961 -28.157501c1.7897339 -0.33929443 3.6409912 0.046325684 5.1463623 1.071991c1.5054321 1.0256653 2.541748 2.6073608 2.8809814 4.397156l0 0l0 0c0.70635986 3.7270203 -1.7423706 7.3211365 -5.4693604 8.027618l-148.53955 28.157532c-3.7270508 0.70651245 -7.320984 -1.7421265 -8.027344 -5.4691467z" fill-rule="evenodd"/><path stroke="#b7b7b7" stroke-width="1.0" stroke-linejoin="round" stroke-linecap="butt" d="m544.57495 451.36478l0 0c-0.7064209 -3.7270508 1.7423096 -7.3211365 5.4692993 -8.027649l148.53961 -28.157501c1.7897339 -0.33929443 3.6409912 0.046325684 5.1463623 1.071991c1.5054321 1.0256653 2.541748 2.6073608 2.8809814 4.397156l0 0l0 0c0.70635986 3.7270203 -1.7423706 7.3211365 -5.4693604 8.027618l-148.53955 28.157532c-3.7270508 0.70651245 -7.320984 -1.7421265 -8.027344 -5.4691467z" fill-rule="evenodd"/><path fill="#1472ff" d="m505.17682 243.48839l0 0c-0.47055054 -2.4827423 1.1606445 -4.8769226 3.6433716 -5.3475494l153.04553 -29.011688c1.1921997 -0.22599792 2.425415 0.03086853 3.4282227 0.7141113c1.0028076 0.6832428 1.6931763 1.7368774 1.9191284 2.9291382l3.732788 19.695282c0.47052002 2.4827423 -1.1606445 4.8769226 -3.6433716 5.3475494l-153.04553 29.011673c-2.482727 0.4706421 -4.876831 -1.160492 -5.3473816 -3.643219z" fill-rule="evenodd"/><path fill="#ffffff" d="m695.37305 205.51677l0 0c-3.3515625 -17.683807 8.266907 -34.736847 25.950623 -38.089005l128.07281 -24.277802l0 0c8.492004 -1.6097717 17.275574 0.21986389 24.418396 5.08638c7.1428223 4.866516 12.059814 12.371292 13.669312 20.863373l44.805176 236.40565c3.3515625 17.683807 -8.266968 34.736847 -25.950623 38.08902l-128.07288 24.277802c-17.683655 3.3521423 -34.736084 -8.26593 -38.087646 -25.949768z" fill-rule="evenodd"/><path fill="#999999" d="m724.7617 278.38785l0 0c-0.70635986 -3.7270508 1.7423706 -7.3211365 5.4693604 -8.027618l148.53955 -28.157532c1.7897949 -0.33927917 3.6409912 0.046340942 5.1464233 1.0720062c1.5054321 1.0256653 2.541748 2.6073608 2.8809204 4.397156l0 0l0 0c0.7064209 3.7270203 -1.7423096 7.321121 -5.4692993 8.027618l-148.53961 28.157516c-3.7269897 0.70651245 -7.320923 -1.7421265 -8.027344 -5.4691467z" fill-rule="evenodd"/><path stroke="#b7b7b7" stroke-width="1.0" stroke-linejoin="round" stroke-linecap="butt" d="m724.7617 278.38785l0 0c-0.70635986 -3.7270508 1.7423706 -7.3211365 5.4693604 -8.027618l148.53955 -28.157532c1.7897949 -0.33927917 3.6409912 0.046340942 5.1464233 1.0720062c1.5054321 1.0256653 2.541748 2.6073608 2.8809204 4.397156l0 0l0 0c0.7064209 3.7270203 -1.7423096 7.321121 -5.4692993 8.027618l-148.53961 28.157516c-3.7269897 0.70651245 -7.320923 -1.7421265 -8.027344 -5.4691467z" fill-rule="evenodd"/><path fill="#999999" d="m731.11115 311.8893l0 0c-0.70635986 -3.7270508 1.7423706 -7.3211365 5.4693604 -8.027649l148.53955 -28.157501c1.7897949 -0.33929443 3.6409912 0.046325684 5.1464233 1.071991c1.5054321 1.0256653 2.541748 2.6073608 2.8809204 4.397156l0 0l0 0c0.70635986 3.7270203 -1.7423096 7.321106 -5.4693604 8.027618l-148.53955 28.157532c-3.7269897 0.70648193 -7.320984 -1.7421265 -8.027344 -5.4691467z" fill-rule="evenodd"/><path stroke="#b7b7b7" stroke-width="1.0" stroke-linejoin="round" stroke-linecap="butt" d="m731.11115 311.8893l0 0c-0.70635986 -3.7270508 1.7423706 -7.3211365 5.4693604 -8.027649l148.53955 -28.157501c1.7897949 -0.33929443 3.6409912 0.046325684 5.1464233 1.071991c1.5054321 1.0256653 2.541748 2.6073608 2.8809204 4.397156l0 0l0 0c0.70635986 3.7270203 -1.7423096 7.321106 -5.4693604 8.027618l-148.53955 28.157532c-3.7269897 0.70648193 -7.320984 -1.7421265 -8.027344 -5.4691467z" fill-rule="evenodd"/><path fill="#999999" d="m737.4606 345.39075l0 0c-0.70635986 -3.7270203 1.7423706 -7.321106 5.4693604 -8.027618l148.53955 -28.157532c1.7897949 -0.33926392 3.6409912 0.0463562 5.1464233 1.0720215c1.5054321 1.0256653 2.541687 2.6073608 2.8809204 4.397156l0 0l0 0c0.70635986 3.7270203 -1.7423096 7.321106 -5.4693604 8.027618l-148.53955 28.157532c-3.7269897 0.70648193 -7.320984 -1.7421265 -8.027344 -5.4691772z" fill-rule="evenodd"/><path stroke="#b7b7b7" stroke-width="1.0" stroke-linejoin="round" stroke-linecap="butt" d="m737.4606 345.39075l0 0c-0.70635986 -3.7270203 1.7423706 -7.321106 5.4693604 -8.027618l148.53955 -28.157532c1.7897949 -0.33926392 3.6409912 0.0463562 5.1464233 1.0720215c1.5054321 1.0256653 2.541687 2.6073608 2.8809204 4.397156l0 0l0 0c0.70635986 3.7270203 -1.7423096 7.321106 -5.4693604 8.027618l-148.53955 28.157532c-3.7269897 0.70648193 -7.320984 -1.7421265 -8.027344 -5.4691772z" fill-rule="evenodd"/><path fill="#999999" d="m743.81 378.8922l0 0c-0.70635986 -3.7270508 1.7423096 -7.3211365 5.4693604 -8.027618l148.53955 -28.157532c1.7897949 -0.33926392 3.6409912 0.046325684 5.1464233 1.071991c1.5054321 1.0256653 2.541687 2.6073914 2.8809204 4.397156l0 0l0 0c0.70635986 3.7270508 -1.7423096 7.3211365 -5.4693604 8.027618l-148.53955 28.157532c-3.7269897 0.70651245 -7.320984 -1.7421265 -8.027344 -5.4691467z" fill-rule="evenodd"/><path stroke="#b7b7b7" stroke-width="1.0" stroke-linejoin="round" stroke-linecap="butt" d="m743.81 378.8922l0 0c-0.70635986 -3.7270508 1.7423096 -7.3211365 5.4693604 -8.027618l148.53955 -28.157532c1.7897949 -0.33926392 3.6409912 0.046325684 5.1464233 1.071991c1.5054321 1.0256653 2.541687 2.6073914 2.8809204 4.397156l0 0l0 0c0.70635986 3.7270508 -1.7423096 7.3211365 -5.4693604 8.027618l-148.53955 28.157532c-3.7269897 0.70651245 -7.320984 -1.7421265 -8.027344 -5.4691467z" fill-rule="evenodd"/><path fill="#999999" d="m750.1594 412.39368l0 0c-0.70635986 -3.7270508 1.7423096 -7.3211365 5.4693604 -8.027649l148.53955 -28.157501c1.7897949 -0.33929443 3.6409912 0.046325684 5.1464233 1.071991c1.5053711 1.0256653 2.541687 2.6073608 2.8809204 4.397156l0 0l0 0c0.70635986 3.7270203 -1.7423706 7.3211365 -5.4693604 8.027618l-148.53955 28.157532c-3.7269897 0.70651245 -7.320984 -1.7421265 -8.027344 -5.4691467z" fill-rule="evenodd"/><path stroke="#b7b7b7" stroke-width="1.0" stroke-linejoin="round" stroke-linecap="butt" d="m750.1594 412.39368l0 0c-0.70635986 -3.7270508 1.7423096 -7.3211365 5.4693604 -8.027649l148.53955 -28.157501c1.7897949 -0.33929443 3.6409912 0.046325684 5.1464233 1.071991c1.5053711 1.0256653 2.541687 2.6073608 2.8809204 4.397156l0 0l0 0c0.70635986 3.7270203 -1.7423706 7.3211365 -5.4693604 8.027618l-148.53955 28.157532c-3.7269897 0.70651245 -7.320984 -1.7421265 -8.027344 -5.4691467z" fill-rule="evenodd"/><path fill="#1472ff" d="m710.7613 204.51729l0 0c-0.47052002 -2.4827423 1.1606445 -4.8769226 3.6433716 -5.3475494l153.04553 -29.011688c1.1922607 -0.22601318 2.425415 0.03086853 3.4282227 0.7141113c1.0028687 0.6832428 1.6931763 1.7368774 1.9191284 2.9291382l3.732788 19.695282c0.47052002 2.4827423 -1.1606445 4.8769226 -3.6433716 5.3475494l-153.04553 29.011688c-2.482727 0.47062683 -4.876831 -1.1605072 -5.347351 -3.6432495z" fill-rule="evenodd"/></g></svg>