<svg version="1.1" viewBox="0.0 0.0 1030.0839895013123 726.4803149606299" fill="none" stroke="none" stroke-linecap="square" stroke-miterlimit="10" xmlns:xlink="http://www.w3.org/1999/xlink" xmlns="http://www.w3.org/2000/svg"><clipPath id="p.0"><path d="m0 0l1030.084 0l0 726.4803l-1030.084 0l0 -726.4803z" clip-rule="nonzero"/></clipPath><g clip-path="url(#p.0)"><path fill="#000000" fill-opacity="0.0" d="m0 0l1030.084 0l0 726.4803l-1030.084 0z" fill-rule="evenodd"/><path fill="#ffffff" d="m12.194103 175.04607l0 0c-2.652545 -17.025238 9.003263 -32.9485 26.033978 -35.565613l864.2216 -132.80507c8.178467 -1.2567816 16.527954 0.78573656 23.21167 5.6782246c6.683716 4.8924875 11.154236 12.234178 12.42804 20.40998l79.79968 512.1903c2.6525269 17.025269 -9.003235 32.948547 -26.033997 35.565613l-864.2216 132.80511l0 0c-17.030716 2.6170654 -32.987144 -9.062988 -35.639694 -26.088257z" fill-rule="evenodd"/><path stroke="#999999" stroke-width="1.0" stroke-linejoin="round" stroke-linecap="butt" d="m12.194103 175.04607l0 0c-2.652545 -17.025238 9.003263 -32.9485 26.033978 -35.565613l864.2216 -132.80507c8.178467 -1.2567816 16.527954 0.78573656 23.21167 5.6782246c6.683716 4.8924875 11.154236 12.234178 12.42804 20.40998l79.79968 512.1903c2.6525269 17.025269 -9.003235 32.948547 -26.033997 35.565613l-864.2216 132.80511l0 0c-17.030716 2.6170654 -32.987144 -9.062988 -35.639694 -26.088257z" fill-rule="evenodd"/><path fill="#f0f2f5" d="m60.049343 198.9089l0 0c-6.0272217E-4 -0.0038757324 0.0020446777 -0.0074768066 0.005908966 -0.008071899l839.67633 -129.02603c0.0018920898 -2.89917E-4 0.0037841797 1.7547607E-4 0.0052490234 0.0012893677c0.0015258789 0.0011062622 0.0025634766 0.0027770996 0.0028686523 0.0046310425l73.27136 470.33487c6.1035156E-4 0.00390625 -0.0020141602 0.007507324 -0.005859375 0.008056641l-839.67633 129.02606l0 0c-0.0038757324 6.1035156E-4 -0.0074920654 -0.0020751953 -0.008087158 -0.00592041z" fill-rule="evenodd"/><path stroke="#b7b7b7" stroke-width="1.0" stroke-linejoin="round" stroke-linecap="butt" d="m60.049343 198.9089l0 0c-6.0272217E-4 -0.0038757324 0.0020446777 -0.0074768066 0.005908966 -0.008071899l839.67633 -129.02603c0.0018920898 -2.89917E-4 0.0037841797 1.7547607E-4 0.0052490234 0.0012893677c0.0015258789 0.0011062622 0.0025634766 0.0027770996 0.0028686523 0.0046310425l73.27136 470.33487c6.1035156E-4 0.00390625 -0.0020141602 0.007507324 -0.005859375 0.008056641l-839.67633 129.02606l0 0c-0.0038757324 6.1035156E-4 -0.0074920654 -0.0020751953 -0.008087158 -0.00592041z" fill-rule="evenodd"/><path fill="#ffffff" d="m99.13983 288.4869l0 0c-3.5311737 -22.664673 11.985504 -43.86235 34.65747 -47.346344l164.19995 -25.232635l0 0c10.887451 -1.6730804 22.002625 1.0460052 30.900269 7.559067c8.897675 6.513077 14.8489685 16.286636 16.544708 27.170578l46.575226 298.9408c3.5311584 22.664673 -11.985504 43.862305 -34.65747 47.346313l-164.19995 25.232666c-22.671967 3.4840088 -43.913803 -12.065002 -47.444977 -34.729675z" fill-rule="evenodd"/><path fill="#999999" d="m133.31314 381.1209l0 0c-0.7364044 -4.726532 2.4994812 -9.147125 7.227539 -9.873688l190.62204 -29.292938c2.2705078 -0.34890747 4.5884705 0.21813965 6.444031 1.5763855c1.8555298 1.3582458 3.0966187 3.3964539 3.4502563 5.6662292l0 0l0 0c0.73638916 4.726532 -2.4994812 9.147125 -7.227539 9.873688l-190.62206 29.292938c-4.728058 0.7265625 -9.157883 -2.5160522 -9.894272 -7.2426147z" fill-rule="evenodd"/><path stroke="#b7b7b7" stroke-width="1.0" stroke-linejoin="round" stroke-linecap="butt" d="m133.31314 381.1209l0 0c-0.7364044 -4.726532 2.4994812 -9.147125 7.227539 -9.873688l190.62204 -29.292938c2.2705078 -0.34890747 4.5884705 0.21813965 6.444031 1.5763855c1.8555298 1.3582458 3.0966187 3.3964539 3.4502563 5.6662292l0 0l0 0c0.73638916 4.726532 -2.4994812 9.147125 -7.227539 9.873688l-190.62206 29.292938c-4.728058 0.7265625 -9.157883 -2.5160522 -9.894272 -7.2426147z" fill-rule="evenodd"/><path fill="#999999" d="m139.93245 423.6067l0 0c-0.73638916 -4.726532 2.4994812 -9.147125 7.2275543 -9.873688l190.62204 -29.292938c2.2705078 -0.34890747 4.5884705 0.21813965 6.4440002 1.5763855c1.8555603 1.3582458 3.0966492 3.3964539 3.4502869 5.6662292l0 0l0 0c0.73638916 4.726532 -2.4994812 9.147156 -7.227539 9.873718l-190.62206 29.292908c-4.728058 0.7265625 -9.157883 -2.5160522 -9.894287 -7.2426147z" fill-rule="evenodd"/><path stroke="#b7b7b7" stroke-width="1.0" stroke-linejoin="round" stroke-linecap="butt" d="m139.93245 423.6067l0 0c-0.73638916 -4.726532 2.4994812 -9.147125 7.2275543 -9.873688l190.62204 -29.292938c2.2705078 -0.34890747 4.5884705 0.21813965 6.4440002 1.5763855c1.8555603 1.3582458 3.0966492 3.3964539 3.4502869 5.6662292l0 0l0 0c0.73638916 4.726532 -2.4994812 9.147156 -7.227539 9.873718l-190.62206 29.292908c-4.728058 0.7265625 -9.157883 -2.5160522 -9.894287 -7.2426147z" fill-rule="evenodd"/><path fill="#999999" d="m146.55177 466.0925l0 0c-0.73638916 -4.7265625 2.4994812 -9.147156 7.227539 -9.873718l190.62206 -29.292938c2.2704773 -0.34890747 4.5884705 0.21813965 6.4440002 1.5763855c1.8555603 1.3582764 3.0966492 3.3964539 3.4502869 5.6662292l0 0l0 0c0.73638916 4.726532 -2.4994812 9.147156 -7.2275696 9.873718l-190.62202 29.292908c-4.728073 0.7265625 -9.157883 -2.5160522 -9.894287 -7.242584z" fill-rule="evenodd"/><path stroke="#b7b7b7" stroke-width="1.0" stroke-linejoin="round" stroke-linecap="butt" d="m146.55177 466.0925l0 0c-0.73638916 -4.7265625 2.4994812 -9.147156 7.227539 -9.873718l190.62206 -29.292938c2.2704773 -0.34890747 4.5884705 0.21813965 6.4440002 1.5763855c1.8555603 1.3582764 3.0966492 3.3964539 3.4502869 5.6662292l0 0l0 0c0.73638916 4.726532 -2.4994812 9.147156 -7.2275696 9.873718l-190.62202 29.292908c-4.728073 0.7265625 -9.157883 -2.5160522 -9.894287 -7.242584z" fill-rule="evenodd"/><path fill="#999999" d="m153.1711 508.57828l0 0c-0.7364044 -4.726532 2.4994812 -9.147156 7.227539 -9.873718l190.62206 -29.292908c2.2704773 -0.34890747 4.5884705 0.21810913 6.4440002 1.5763855c1.8555298 1.3582458 3.0966492 3.3964233 3.4502869 5.6661987l0 0l0 0c0.73638916 4.726532 -2.4995117 9.147156 -7.2275696 9.873718l-190.62204 29.292908c-4.728058 0.7265625 -9.157867 -2.5160522 -9.894272 -7.242584z" fill-rule="evenodd"/><path stroke="#b7b7b7" stroke-width="1.0" stroke-linejoin="round" stroke-linecap="butt" d="m153.1711 508.57828l0 0c-0.7364044 -4.726532 2.4994812 -9.147156 7.227539 -9.873718l190.62206 -29.292908c2.2704773 -0.34890747 4.5884705 0.21810913 6.4440002 1.5763855c1.8555298 1.3582458 3.0966492 3.3964233 3.4502869 5.6661987l0 0l0 0c0.73638916 4.726532 -2.4995117 9.147156 -7.2275696 9.873718l-190.62204 29.292908c-4.728058 0.7265625 -9.157867 -2.5160522 -9.894272 -7.242584z" fill-rule="evenodd"/><path fill="#999999" d="m159.79042 551.064l0 0c-0.7364044 -4.7265015 2.4994812 -9.147095 7.227539 -9.873657l190.62206 -29.292938c2.2704773 -0.34890747 4.5884705 0.21810913 6.4440002 1.5763855c1.8555298 1.3582153 3.0966492 3.3964233 3.4502563 5.6661987l0 0l0 0c0.7364197 4.7265625 -2.4994812 9.147156 -7.227539 9.873718l-190.62204 29.292908c-4.728058 0.7265625 -9.157883 -2.5160522 -9.894272 -7.2426147z" fill-rule="evenodd"/><path stroke="#b7b7b7" stroke-width="1.0" stroke-linejoin="round" stroke-linecap="butt" d="m159.79042 551.064l0 0c-0.7364044 -4.7265015 2.4994812 -9.147095 7.227539 -9.873657l190.62206 -29.292938c2.2704773 -0.34890747 4.5884705 0.21810913 6.4440002 1.5763855c1.8555298 1.3582153 3.0966492 3.3964233 3.4502563 5.6661987l0 0l0 0c0.7364197 4.7265625 -2.4994812 9.147156 -7.227539 9.873718l-190.62204 29.292908c-4.728058 0.7265625 -9.157883 -2.5160522 -9.894272 -7.2426147z" fill-rule="evenodd"/><path fill="#1472ff" d="m118.71756 287.43997l0 0c-0.49054718 -3.1485596 1.6650162 -6.0933228 4.814583 -6.5773315l196.33829 -30.171326c1.5124817 -0.23242188 3.0565796 0.14530945 4.292633 1.0500946c1.2360535 0.9048004 2.0628052 2.2625275 2.2983704 3.7745209l3.891449 24.977112c0.49057007 3.1485596 -1.6650085 6.0933228 -4.814575 6.577301l-196.33827 30.171356c-3.1495667 0.48397827 -6.100464 -1.6760559 -6.591011 -4.8246155z" fill-rule="evenodd"/><path fill="#ffffff" d="m371.28348 246.66772l0 0c-3.531189 -22.664658 11.985474 -43.86235 34.65744 -47.346344l164.19995 -25.232635l0 0c10.887451 -1.6730804 22.002625 1.0460052 30.900269 7.559082c8.897705 6.5130615 14.848999 16.286621 16.544739 27.170578l46.575195 298.94073c3.531189 22.664673 -11.985474 43.862366 -34.65747 47.346375l-164.19995 25.232605c-22.671936 3.4840088 -43.913788 -12.065002 -47.444977 -34.729614z" fill-rule="evenodd"/><path fill="#999999" d="m405.45676 339.30173l0 0c-0.73638916 -4.726532 2.4994812 -9.147125 7.227539 -9.873688l190.62204 -29.292938c2.2705078 -0.34890747 4.588501 0.21813965 6.444031 1.5763855c1.8555298 1.3582458 3.0966187 3.3964539 3.4502563 5.6662292l0 0l0 0c0.73638916 4.726532 -2.4994507 9.147125 -7.227539 9.873688l-190.62204 29.292938c-4.728058 0.7265625 -9.157867 -2.5160522 -9.894287 -7.2426147z" fill-rule="evenodd"/><path stroke="#b7b7b7" stroke-width="1.0" stroke-linejoin="round" stroke-linecap="butt" d="m405.45676 339.30173l0 0c-0.73638916 -4.726532 2.4994812 -9.147125 7.227539 -9.873688l190.62204 -29.292938c2.2705078 -0.34890747 4.588501 0.21813965 6.444031 1.5763855c1.8555298 1.3582458 3.0966187 3.3964539 3.4502563 5.6662292l0 0l0 0c0.73638916 4.726532 -2.4994507 9.147125 -7.227539 9.873688l-190.62204 29.292938c-4.728058 0.7265625 -9.157867 -2.5160522 -9.894287 -7.2426147z" fill-rule="evenodd"/><path fill="#999999" d="m412.07608 381.78754l0 0c-0.73638916 -4.7265625 2.4994812 -9.147156 7.227539 -9.873718l190.62204 -29.292938c2.2705078 -0.34890747 4.588501 0.21813965 6.444031 1.5763855c1.8555298 1.3582764 3.0966187 3.3964539 3.4502563 5.6662292l0 0l0 0c0.73638916 4.726532 -2.4994507 9.147156 -7.227539 9.873718l-190.62204 29.292908c-4.728058 0.7265625 -9.157898 -2.5160522 -9.894287 -7.242584z" fill-rule="evenodd"/><path stroke="#b7b7b7" stroke-width="1.0" stroke-linejoin="round" stroke-linecap="butt" d="m412.07608 381.78754l0 0c-0.73638916 -4.7265625 2.4994812 -9.147156 7.227539 -9.873718l190.62204 -29.292938c2.2705078 -0.34890747 4.588501 0.21813965 6.444031 1.5763855c1.8555298 1.3582764 3.0966187 3.3964539 3.4502563 5.6662292l0 0l0 0c0.73638916 4.726532 -2.4994507 9.147156 -7.227539 9.873718l-190.62204 29.292908c-4.728058 0.7265625 -9.157898 -2.5160522 -9.894287 -7.242584z" fill-rule="evenodd"/><path fill="#999999" d="m418.6954 424.27332l0 0c-0.73638916 -4.7265625 2.4994812 -9.147156 7.227539 -9.873718l190.62204 -29.292938c2.2705078 -0.34890747 4.588501 0.21813965 6.444031 1.5763855c1.8555298 1.3582764 3.0966187 3.3964539 3.4502563 5.6662292l0 0l0 0c0.73638916 4.726532 -2.4994507 9.147156 -7.227539 9.873718l-190.62204 29.292908c-4.728058 0.7265625 -9.157898 -2.5160522 -9.894287 -7.242584z" fill-rule="evenodd"/><path stroke="#b7b7b7" stroke-width="1.0" stroke-linejoin="round" stroke-linecap="butt" d="m418.6954 424.27332l0 0c-0.73638916 -4.7265625 2.4994812 -9.147156 7.227539 -9.873718l190.62204 -29.292938c2.2705078 -0.34890747 4.588501 0.21813965 6.444031 1.5763855c1.8555298 1.3582764 3.0966187 3.3964539 3.4502563 5.6662292l0 0l0 0c0.73638916 4.726532 -2.4994507 9.147156 -7.227539 9.873718l-190.62204 29.292908c-4.728058 0.7265625 -9.157898 -2.5160522 -9.894287 -7.242584z" fill-rule="evenodd"/><path fill="#999999" d="m425.31473 466.7591l0 0c-0.73638916 -4.726532 2.4994812 -9.147156 7.227539 -9.873718l190.62204 -29.292908c2.2705078 -0.34890747 4.588501 0.21810913 6.444031 1.5763855c1.8555298 1.3582458 3.0966187 3.3964233 3.4502563 5.6661987l0 0l0 0c0.73638916 4.726532 -2.4995117 9.147156 -7.227539 9.873718l-190.62204 29.292908c-4.728058 0.7265625 -9.157898 -2.5160522 -9.894287 -7.242584z" fill-rule="evenodd"/><path stroke="#b7b7b7" stroke-width="1.0" stroke-linejoin="round" stroke-linecap="butt" d="m425.31473 466.7591l0 0c-0.73638916 -4.726532 2.4994812 -9.147156 7.227539 -9.873718l190.62204 -29.292908c2.2705078 -0.34890747 4.588501 0.21810913 6.444031 1.5763855c1.8555298 1.3582458 3.0966187 3.3964233 3.4502563 5.6661987l0 0l0 0c0.73638916 4.726532 -2.4995117 9.147156 -7.227539 9.873718l-190.62204 29.292908c-4.728058 0.7265625 -9.157898 -2.5160522 -9.894287 -7.242584z" fill-rule="evenodd"/><path fill="#999999" d="m431.93405 509.24487l0 0c-0.73638916 -4.726532 2.4994812 -9.147156 7.227539 -9.873718l190.62204 -29.292908c2.2705078 -0.34890747 4.588501 0.21813965 6.444031 1.5763855c1.8555298 1.3582458 3.0966187 3.3964539 3.4502563 5.6661987l0 0l0 0c0.73638916 4.726532 -2.4995117 9.147156 -7.227539 9.873718l-190.62204 29.292938c-4.7280884 0.7265625 -9.157898 -2.5160522 -9.894287 -7.2426147z" fill-rule="evenodd"/><path stroke="#b7b7b7" stroke-width="1.0" stroke-linejoin="round" stroke-linecap="butt" d="m431.93405 509.24487l0 0c-0.73638916 -4.726532 2.4994812 -9.147156 7.227539 -9.873718l190.62204 -29.292908c2.2705078 -0.34890747 4.588501 0.21813965 6.444031 1.5763855c1.8555298 1.3582458 3.0966187 3.3964539 3.4502563 5.6661987l0 0l0 0c0.73638916 4.726532 -2.4995117 9.147156 -7.227539 9.873718l-190.62204 29.292938c-4.7280884 0.7265625 -9.157898 -2.5160522 -9.894287 -7.2426147z" fill-rule="evenodd"/><path fill="#1472ff" d="m390.8612 245.62077l0 0c-0.49057007 -3.1485443 1.6650085 -6.0933075 4.814575 -6.577301l196.33826 -30.17134c1.5125122 -0.23242188 3.0565796 0.14530945 4.2926636 1.0500946c1.236023 0.9048004 2.0628052 2.2625275 2.2983398 3.7745209l3.8914795 24.977112c0.49053955 3.1485596 -1.6650391 6.0933228 -4.814575 6.5773163l-196.33829 30.17134c-3.1495667 0.48397827 -6.100464 -1.6760559 -6.5910034 -4.8246155z" fill-rule="evenodd"/><path fill="#ffffff" d="m634.85974 206.16391l0 0c-3.531128 -22.664658 11.985535 -43.862335 34.65747 -47.346344l164.19995 -25.232635l0 0c10.887451 -1.6730804 22.002625 1.0460052 30.900269 7.559082c8.897705 6.5130615 14.848999 16.286621 16.544739 27.170578l46.575195 298.94073c3.531189 22.664673 -11.985474 43.862366 -34.65747 47.346344l-164.19995 25.232666c-22.671936 3.4840088 -43.913757 -12.065002 -47.444946 -34.729675z" fill-rule="evenodd"/><path fill="#999999" d="m669.0331 298.7979l0 0c-0.73638916 -4.726532 2.4994507 -9.147125 7.227539 -9.873688l190.62201 -29.292938c2.2705078 -0.34890747 4.588501 0.21813965 6.444031 1.5763855c1.8555298 1.3582458 3.0966187 3.3964539 3.4502563 5.6662292l0 0l0 0c0.73638916 4.726532 -2.4994507 9.147156 -7.227539 9.873688l-190.62201 29.292938c-4.7280884 0.7265625 -9.157898 -2.5160522 -9.894287 -7.2426147z" fill-rule="evenodd"/><path stroke="#b7b7b7" stroke-width="1.0" stroke-linejoin="round" stroke-linecap="butt" d="m669.0331 298.7979l0 0c-0.73638916 -4.726532 2.4994507 -9.147125 7.227539 -9.873688l190.62201 -29.292938c2.2705078 -0.34890747 4.588501 0.21813965 6.444031 1.5763855c1.8555298 1.3582458 3.0966187 3.3964539 3.4502563 5.6662292l0 0l0 0c0.73638916 4.726532 -2.4994507 9.147156 -7.227539 9.873688l-190.62201 29.292938c-4.7280884 0.7265625 -9.157898 -2.5160522 -9.894287 -7.2426147z" fill-rule="evenodd"/><path fill="#999999" d="m675.6524 341.28372l0 0c-0.73638916 -4.7265625 2.4994507 -9.147156 7.227539 -9.873718l190.62201 -29.292938c2.2705078 -0.34890747 4.588501 0.21813965 6.444031 1.5763855c1.8555298 1.3582764 3.0966187 3.3964539 3.4502563 5.6662292l0 0l0 0c0.73638916 4.726532 -2.4994507 9.147156 -7.227539 9.873718l-190.62201 29.292908c-4.7280884 0.7265625 -9.157898 -2.5160522 -9.894287 -7.242584z" fill-rule="evenodd"/><path stroke="#b7b7b7" stroke-width="1.0" stroke-linejoin="round" stroke-linecap="butt" d="m675.6524 341.28372l0 0c-0.73638916 -4.7265625 2.4994507 -9.147156 7.227539 -9.873718l190.62201 -29.292938c2.2705078 -0.34890747 4.588501 0.21813965 6.444031 1.5763855c1.8555298 1.3582764 3.0966187 3.3964539 3.4502563 5.6662292l0 0l0 0c0.73638916 4.726532 -2.4994507 9.147156 -7.227539 9.873718l-190.62201 29.292908c-4.7280884 0.7265625 -9.157898 -2.5160522 -9.894287 -7.242584z" fill-rule="evenodd"/><path fill="#999999" d="m682.2717 383.7695l0 0c-0.7364502 -4.7265625 2.4994507 -9.147156 7.227539 -9.873718l190.62201 -29.292938c2.2705078 -0.34887695 4.588501 0.21813965 6.444031 1.576416c1.8555298 1.3582458 3.0966187 3.3964233 3.4502563 5.6661987l0 0l0 0c0.73638916 4.726532 -2.4994507 9.147156 -7.227539 9.873718l-190.62201 29.292908c-4.7280884 0.7265625 -9.157898 -2.5160522 -9.894287 -7.242584z" fill-rule="evenodd"/><path stroke="#b7b7b7" stroke-width="1.0" stroke-linejoin="round" stroke-linecap="butt" d="m682.2717 383.7695l0 0c-0.7364502 -4.7265625 2.4994507 -9.147156 7.227539 -9.873718l190.62201 -29.292938c2.2705078 -0.34887695 4.588501 0.21813965 6.444031 1.576416c1.8555298 1.3582458 3.0966187 3.3964233 3.4502563 5.6661987l0 0l0 0c0.73638916 4.726532 -2.4994507 9.147156 -7.227539 9.873718l-190.62201 29.292908c-4.7280884 0.7265625 -9.157898 -2.5160522 -9.894287 -7.242584z" fill-rule="evenodd"/><path fill="#999999" d="m688.89105 426.25528l0 0c-0.7364502 -4.726532 2.4994507 -9.147156 7.227539 -9.873718l190.62201 -29.292908c2.2705078 -0.34890747 4.588501 0.21813965 6.444031 1.5763855c1.8555298 1.3582458 3.0966187 3.3964233 3.4502563 5.6661987l0 0l0 0c0.73638916 4.726532 -2.4994507 9.147156 -7.227539 9.873718l-190.62207 29.292908c-4.7280273 0.7265625 -9.157837 -2.5160522 -9.894226 -7.242584z" fill-rule="evenodd"/><path stroke="#b7b7b7" stroke-width="1.0" stroke-linejoin="round" stroke-linecap="butt" d="m688.89105 426.25528l0 0c-0.7364502 -4.726532 2.4994507 -9.147156 7.227539 -9.873718l190.62201 -29.292908c2.2705078 -0.34890747 4.588501 0.21813965 6.444031 1.5763855c1.8555298 1.3582458 3.0966187 3.3964233 3.4502563 5.6661987l0 0l0 0c0.73638916 4.726532 -2.4994507 9.147156 -7.227539 9.873718l-190.62207 29.292908c-4.7280273 0.7265625 -9.157837 -2.5160522 -9.894226 -7.242584z" fill-rule="evenodd"/><path fill="#999999" d="m695.5104 468.74106l0 0c-0.7364502 -4.726532 2.4994507 -9.147156 7.227539 -9.873718l190.62201 -29.292908c2.2705078 -0.34890747 4.588501 0.21813965 6.444031 1.5763855c1.8555298 1.3582458 3.0966187 3.3964539 3.4502563 5.6661987l0 0l0 0c0.73638916 4.726532 -2.4994507 9.147156 -7.227539 9.873718l-190.62207 29.292908c-4.7280273 0.7265625 -9.157837 -2.5160522 -9.894226 -7.242584z" fill-rule="evenodd"/><path stroke="#b7b7b7" stroke-width="1.0" stroke-linejoin="round" stroke-linecap="butt" d="m695.5104 468.74106l0 0c-0.7364502 -4.726532 2.4994507 -9.147156 7.227539 -9.873718l190.62201 -29.292908c2.2705078 -0.34890747 4.588501 0.21813965 6.444031 1.5763855c1.8555298 1.3582458 3.0966187 3.3964539 3.4502563 5.6661987l0 0l0 0c0.73638916 4.726532 -2.4994507 9.147156 -7.227539 9.873718l-190.62207 29.292908c-4.7280273 0.7265625 -9.157837 -2.5160522 -9.894226 -7.242584z" fill-rule="evenodd"/><path fill="#1472ff" d="m654.4375 205.11696l0 0c-0.49053955 -3.1485443 1.664978 -6.0933075 4.814575 -6.577301l196.33826 -30.17134c1.5125122 -0.23242188 3.0565796 0.14530945 4.2926636 1.0501099c1.236023 0.90478516 2.0628052 2.2625122 2.2983398 3.7745056l3.8914795 24.977112c0.49053955 3.1485596 -1.6650391 6.0933228 -4.814575 6.5773163l-196.33826 30.17134c-3.1495972 0.48399353 -6.100464 -1.6760559 -6.5910645 -4.8246155z" fill-rule="evenodd"/></g></svg>