<svg version="1.1" viewBox="0.0 0.0 1173.018372703412 823.8950131233596" fill="none" stroke="none" stroke-linecap="square" stroke-miterlimit="10" xmlns:xlink="http://www.w3.org/1999/xlink" xmlns="http://www.w3.org/2000/svg"><clipPath id="p.0"><path d="m0 0l1173.0184 0l0 823.895l-1173.0184 0l0 -823.895z" clip-rule="nonzero"/></clipPath><g clip-path="url(#p.0)"><path fill="#000000" fill-opacity="0.0" d="m0 0l1173.0184 0l0 823.895l-1173.0184 0z" fill-rule="evenodd"/><path fill="#ffffff" d="m263.61334 127.30494l0 0c-1.8751526 -9.959885 4.6752625 -19.572762 14.630798 -21.470947l537.0497 -102.39758c4.7808228 -0.91154265 9.723511 0.11425161 13.740784 2.85172c4.017334 2.7374678 6.7800903 6.962371 7.680603 11.745278l56.412903 299.63522c1.8751831 9.959869 -4.675232 19.572754 -14.630798 21.470947l-537.0497 102.39758l0 0c-9.955536 1.8981934 -19.546204 -4.6371155 -21.421387 -14.597015z" fill-rule="evenodd"/><path stroke="#999999" stroke-width="1.0" stroke-linejoin="round" stroke-linecap="butt" d="m263.61334 127.30494l0 0c-1.8751526 -9.959885 4.6752625 -19.572762 14.630798 -21.470947l537.0497 -102.39758c4.7808228 -0.91154265 9.723511 0.11425161 13.740784 2.85172c4.017334 2.7374678 6.7800903 6.962371 7.680603 11.745278l56.412903 299.63522c1.8751831 9.959869 -4.675232 19.572754 -14.630798 21.470947l-537.0497 102.39758l0 0c-9.955536 1.8981934 -19.546204 -4.6371155 -21.421387 -14.597015z" fill-rule="evenodd"/><path fill="#f0f2f5" d="m293.65213 140.0528l0 0c-4.272461E-4 -0.0023956299 0.0011291504 -0.004699707 0.0035095215 -0.0051574707l519.735 -99.09175c0.001159668 -2.1743774E-4 0.002319336 2.670288E-5 0.0032958984 6.866455E-4c9.765625E-4 6.5612793E-4 0.0016479492 0.0016708374 0.0018310547 0.002822876l51.798462 275.1494c4.8828125E-4 0.0024108887 -0.0010986328 0.004699707 -0.003479004 0.0051574707l-519.735 99.09177l0 0c-0.0024108887 4.5776367E-4 -0.004699707 -0.0011291504 -0.0051574707 -0.0035095215z" fill-rule="evenodd"/><path stroke="#b7b7b7" stroke-width="1.0" stroke-linejoin="round" stroke-linecap="butt" d="m293.65213 140.0528l0 0c-4.272461E-4 -0.0023956299 0.0011291504 -0.004699707 0.0035095215 -0.0051574707l519.735 -99.09175c0.001159668 -2.1743774E-4 0.002319336 2.670288E-5 0.0032958984 6.866455E-4c9.765625E-4 6.5612793E-4 0.0016479492 0.0016708374 0.0018310547 0.002822876l51.798462 275.1494c4.8828125E-4 0.0024108887 -0.0010986328 0.004699707 -0.003479004 0.0051574707l-519.735 99.09177l0 0c-0.0024108887 4.5776367E-4 -0.004699707 -0.0011291504 -0.0051574707 -0.0035095215z" fill-rule="evenodd"/><path fill="#ffffff" d="m319.39334 193.17947l0 0c-2.643219 -14.039429 6.5902405 -27.589691 20.623505 -30.26538l101.63492 -19.378403l0 0c6.7390137 -1.2849121 13.706268 0.16104126 19.369019 4.0197754c5.6627502 3.8587189 9.557159 9.814133 10.826477 16.556091l32.393402 172.05644c2.6432495 14.039429 -6.59021 27.589691 -20.623505 30.26538l-101.63492 19.378418c-14.033264 2.6756592 -27.552246 -6.5364685 -30.195465 -20.575897z" fill-rule="evenodd"/><path fill="#999999" d="m341.58966 245.41588l0 0c-0.52056885 -2.7650604 1.2979431 -5.433792 4.061798 -5.9607697l118.57852 -22.608994c1.3272705 -0.25305176 2.699463 0.031723022 3.8147278 0.7917023c1.1152954 0.759964 1.8822937 1.9328918 2.1322632 3.2607117l0 0l0 0c0.52059937 2.7650604 -1.2979431 5.433792 -4.0617676 5.9607544l-118.57855 22.609009c-2.7638245 0.5269623 -5.4263916 -1.2873535 -5.946991 -4.052414z" fill-rule="evenodd"/><path stroke="#b7b7b7" stroke-width="1.0" stroke-linejoin="round" stroke-linecap="butt" d="m341.58966 245.41588l0 0c-0.52056885 -2.7650604 1.2979431 -5.433792 4.061798 -5.9607697l118.57852 -22.608994c1.3272705 -0.25305176 2.699463 0.031723022 3.8147278 0.7917023c1.1152954 0.759964 1.8822937 1.9328918 2.1322632 3.2607117l0 0l0 0c0.52059937 2.7650604 -1.2979431 5.433792 -4.0617676 5.9607544l-118.57855 22.609009c-2.7638245 0.5269623 -5.4263916 -1.2873535 -5.946991 -4.052414z" fill-rule="evenodd"/><path fill="#999999" d="m346.26907 270.2704l0 0c-0.52056885 -2.7650757 1.2979431 -5.433777 4.061798 -5.9607544l118.57852 -22.609009c1.32724 -0.25306702 2.699463 0.031723022 3.8147278 0.791687c1.1152649 0.75997925 1.8822632 1.9328918 2.1322632 3.260727l0 0l0 0c0.52059937 2.7650604 -1.2979431 5.433777 -4.061798 5.9607544l-118.57852 22.608994c-2.763855 0.52697754 -5.4263916 -1.2873535 -5.946991 -4.0523987z" fill-rule="evenodd"/><path stroke="#b7b7b7" stroke-width="1.0" stroke-linejoin="round" stroke-linecap="butt" d="m346.26907 270.2704l0 0c-0.52056885 -2.7650757 1.2979431 -5.433777 4.061798 -5.9607544l118.57852 -22.609009c1.32724 -0.25306702 2.699463 0.031723022 3.8147278 0.791687c1.1152649 0.75997925 1.8822632 1.9328918 2.1322632 3.260727l0 0l0 0c0.52059937 2.7650604 -1.2979431 5.433777 -4.061798 5.9607544l-118.57852 22.608994c-2.763855 0.52697754 -5.4263916 -1.2873535 -5.946991 -4.0523987z" fill-rule="evenodd"/><path fill="#999999" d="m350.9485 295.12488l0 0c-0.52059937 -2.7650452 1.2979431 -5.433777 4.061798 -5.9607544l118.57852 -22.609009c1.32724 -0.25305176 2.6994324 0.03173828 3.8147278 0.7917175c1.1152649 0.75994873 1.8822632 1.9328918 2.1322632 3.2607117l0 0l0 0c0.52059937 2.7650452 -1.2979431 5.433777 -4.061798 5.9607544l-118.57852 22.609009c-2.763855 0.526947 -5.426422 -1.2873535 -5.946991 -4.052429z" fill-rule="evenodd"/><path stroke="#b7b7b7" stroke-width="1.0" stroke-linejoin="round" stroke-linecap="butt" d="m350.9485 295.12488l0 0c-0.52059937 -2.7650452 1.2979431 -5.433777 4.061798 -5.9607544l118.57852 -22.609009c1.32724 -0.25305176 2.6994324 0.03173828 3.8147278 0.7917175c1.1152649 0.75994873 1.8822632 1.9328918 2.1322632 3.2607117l0 0l0 0c0.52059937 2.7650452 -1.2979431 5.433777 -4.061798 5.9607544l-118.57852 22.609009c-2.763855 0.526947 -5.426422 -1.2873535 -5.946991 -4.052429z" fill-rule="evenodd"/><path fill="#999999" d="m355.6279 319.97937l0 0c-0.52059937 -2.7650452 1.2979431 -5.433777 4.061798 -5.9607544l118.57852 -22.608978c1.32724 -0.25308228 2.6994324 0.031707764 3.8147278 0.791687c1.1152649 0.75997925 1.8822632 1.9328918 2.1322632 3.2607117l0 0l0 0c0.52056885 2.7650757 -1.2979431 5.433777 -4.061798 5.9607544l-118.57852 22.609009c-2.763855 0.52697754 -5.426422 -1.2873535 -5.946991 -4.052429z" fill-rule="evenodd"/><path stroke="#b7b7b7" stroke-width="1.0" stroke-linejoin="round" stroke-linecap="butt" d="m355.6279 319.97937l0 0c-0.52059937 -2.7650452 1.2979431 -5.433777 4.061798 -5.9607544l118.57852 -22.608978c1.32724 -0.25308228 2.6994324 0.031707764 3.8147278 0.791687c1.1152649 0.75997925 1.8822632 1.9328918 2.1322632 3.2607117l0 0l0 0c0.52056885 2.7650757 -1.2979431 5.433777 -4.061798 5.9607544l-118.57852 22.609009c-2.763855 0.52697754 -5.426422 -1.2873535 -5.946991 -4.052429z" fill-rule="evenodd"/><path fill="#999999" d="m360.3073 344.8339l0 0c-0.52059937 -2.7650757 1.2979431 -5.433777 4.0617676 -5.9607544l118.57855 -22.609009c1.32724 -0.25305176 2.6994324 0.031707764 3.8146973 0.791687c1.1152954 0.75997925 1.8822937 1.9328918 2.1322937 3.2607422l0 0l0 0c0.52056885 2.7650452 -1.2979431 5.433777 -4.061798 5.9607544l-118.57852 22.608978c-2.763855 0.52697754 -5.426422 -1.2873535 -5.946991 -4.0523987z" fill-rule="evenodd"/><path stroke="#b7b7b7" stroke-width="1.0" stroke-linejoin="round" stroke-linecap="butt" d="m360.3073 344.8339l0 0c-0.52059937 -2.7650757 1.2979431 -5.433777 4.0617676 -5.9607544l118.57855 -22.609009c1.32724 -0.25305176 2.6994324 0.031707764 3.8146973 0.791687c1.1152954 0.75997925 1.8822937 1.9328918 2.1322937 3.2607422l0 0l0 0c0.52056885 2.7650452 -1.2979431 5.433777 -4.061798 5.9607544l-118.57852 22.608978c-2.763855 0.52697754 -5.426422 -1.2873535 -5.946991 -4.0523987z" fill-rule="evenodd"/><path fill="#1472ff" d="m331.2716 190.6118l0 0c-0.34680176 -1.841919 0.8645935 -3.6196747 2.705719 -3.9707184l121.920044 -23.246109c0.88412476 -0.1685791 1.7982178 0.021133423 2.5411377 0.52737427c0.74295044 0.5062561 1.2538757 1.2875977 1.4204102 2.1721191l2.7509766 14.611801c0.34680176 1.841919 -0.8645935 3.6196747 -2.705719 3.9707184l-121.920044 23.246109c-1.8411255 0.3510437 -3.614746 -0.8575592 -3.9615479 -2.6994934z" fill-rule="evenodd"/><path fill="#ffffff" d="m487.84222 161.06255l0 0c-2.643219 -14.039429 6.5902405 -27.589691 20.623505 -30.265366l101.63492 -19.378418l0 0c6.7390137 -1.2849045 13.706238 0.16104889 19.369019 4.0197754c5.6627197 3.8587265 9.557129 9.814133 10.826477 16.556107l32.393433 172.05644c2.6431885 14.039429 -6.590271 27.589691 -20.623535 30.26535l-101.63489 19.378418c-14.033325 2.6756897 -27.552246 -6.536438 -30.195496 -20.575867z" fill-rule="evenodd"/><path fill="#999999" d="m510.03854 213.29895l0 0c-0.52056885 -2.7650604 1.2979431 -5.433792 4.061798 -5.9607544l118.57855 -22.609009c1.3272095 -0.25305176 2.6994019 0.031723022 3.8146973 0.7917023c1.1152954 0.75997925 1.8822632 1.9328918 2.1322632 3.2607117l0 0l0 0c0.52056885 2.7650604 -1.2979126 5.433792 -4.0617676 5.9607697l-118.57855 22.608994c-2.763855 0.52697754 -5.4263916 -1.2873535 -5.946991 -4.052414z" fill-rule="evenodd"/><path stroke="#b7b7b7" stroke-width="1.0" stroke-linejoin="round" stroke-linecap="butt" d="m510.03854 213.29895l0 0c-0.52056885 -2.7650604 1.2979431 -5.433792 4.061798 -5.9607544l118.57855 -22.609009c1.3272095 -0.25305176 2.6994019 0.031723022 3.8146973 0.7917023c1.1152954 0.75997925 1.8822632 1.9328918 2.1322632 3.2607117l0 0l0 0c0.52056885 2.7650604 -1.2979126 5.433792 -4.0617676 5.9607697l-118.57855 22.608994c-2.763855 0.52697754 -5.4263916 -1.2873535 -5.946991 -4.052414z" fill-rule="evenodd"/><path fill="#999999" d="m514.71796 238.15346l0 0c-0.52056885 -2.7650604 1.2979736 -5.433792 4.0617676 -5.9607697l118.57855 -22.608994c1.3272705 -0.25306702 2.699463 0.031723022 3.8146973 0.7917023c1.1152954 0.759964 1.8823242 1.9328766 2.1323242 3.2607117l0 0l0 0c0.52056885 2.7650604 -1.2979736 5.433777 -4.0618286 5.9607544l-118.57849 22.609009c-2.763855 0.5269623 -5.4264526 -1.2873535 -5.9470215 -4.052414z" fill-rule="evenodd"/><path stroke="#b7b7b7" stroke-width="1.0" stroke-linejoin="round" stroke-linecap="butt" d="m514.71796 238.15346l0 0c-0.52056885 -2.7650604 1.2979736 -5.433792 4.0617676 -5.9607697l118.57855 -22.608994c1.3272705 -0.25306702 2.699463 0.031723022 3.8146973 0.7917023c1.1152954 0.759964 1.8823242 1.9328766 2.1323242 3.2607117l0 0l0 0c0.52056885 2.7650604 -1.2979736 5.433777 -4.0618286 5.9607544l-118.57849 22.609009c-2.763855 0.5269623 -5.4264526 -1.2873535 -5.9470215 -4.052414z" fill-rule="evenodd"/><path fill="#999999" d="m519.39734 263.00797l0 0c-0.52056885 -2.7650757 1.2979736 -5.4338074 4.0618286 -5.9607544l118.57849 -22.609009c1.3272705 -0.25306702 2.699463 0.031723022 3.8147583 0.791687c1.1152954 0.75997925 1.8822632 1.9328918 2.1322632 3.260727l0 0l0 0c0.52056885 2.7650604 -1.2979736 5.433777 -4.0617676 5.9607544l-118.57855 22.608994c-2.763855 0.52697754 -5.4263916 -1.2873535 -5.9470215 -4.0523987z" fill-rule="evenodd"/><path stroke="#b7b7b7" stroke-width="1.0" stroke-linejoin="round" stroke-linecap="butt" d="m519.39734 263.00797l0 0c-0.52056885 -2.7650757 1.2979736 -5.4338074 4.0618286 -5.9607544l118.57849 -22.609009c1.3272705 -0.25306702 2.699463 0.031723022 3.8147583 0.791687c1.1152954 0.75997925 1.8822632 1.9328918 2.1322632 3.260727l0 0l0 0c0.52056885 2.7650604 -1.2979736 5.433777 -4.0617676 5.9607544l-118.57855 22.608994c-2.763855 0.52697754 -5.4263916 -1.2873535 -5.9470215 -4.0523987z" fill-rule="evenodd"/><path fill="#999999" d="m524.0768 287.86246l0 0c-0.52056885 -2.7650452 1.2979126 -5.433777 4.0617676 -5.9607544l118.57855 -22.609009c1.3272095 -0.25305176 2.699463 0.03173828 3.8146973 0.7917175c1.1152954 0.75994873 1.8823242 1.9328613 2.1322632 3.2607117l0 0l0 0c0.5206299 2.7650452 -1.2979126 5.433777 -4.0617676 5.9607544l-118.57855 22.608978c-2.763855 0.52697754 -5.4263916 -1.287323 -5.9469604 -4.0523987z" fill-rule="evenodd"/><path stroke="#b7b7b7" stroke-width="1.0" stroke-linejoin="round" stroke-linecap="butt" d="m524.0768 287.86246l0 0c-0.52056885 -2.7650452 1.2979126 -5.433777 4.0617676 -5.9607544l118.57855 -22.609009c1.3272095 -0.25305176 2.699463 0.03173828 3.8146973 0.7917175c1.1152954 0.75994873 1.8823242 1.9328613 2.1322632 3.2607117l0 0l0 0c0.5206299 2.7650452 -1.2979126 5.433777 -4.0617676 5.9607544l-118.57855 22.608978c-2.763855 0.52697754 -5.4263916 -1.287323 -5.9469604 -4.0523987z" fill-rule="evenodd"/><path fill="#999999" d="m528.75616 312.71695l0 0c-0.52056885 -2.7650452 1.2979736 -5.433777 4.0618286 -5.9607544l118.57849 -22.608978c1.3272705 -0.25308228 2.699463 0.031707764 3.8147583 0.791687c1.1152344 0.75997925 1.8822632 1.9328918 2.1322632 3.2607117l0 0l0 0c0.52056885 2.7650757 -1.2979736 5.433777 -4.0618286 5.9607544l-118.57849 22.609009c-2.763855 0.52697754 -5.4264526 -1.2873535 -5.9470215 -4.052429z" fill-rule="evenodd"/><path stroke="#b7b7b7" stroke-width="1.0" stroke-linejoin="round" stroke-linecap="butt" d="m528.75616 312.71695l0 0c-0.52056885 -2.7650452 1.2979736 -5.433777 4.0618286 -5.9607544l118.57849 -22.608978c1.3272705 -0.25308228 2.699463 0.031707764 3.8147583 0.791687c1.1152344 0.75997925 1.8822632 1.9328918 2.1322632 3.2607117l0 0l0 0c0.52056885 2.7650757 -1.2979736 5.433777 -4.0618286 5.9607544l-118.57849 22.609009c-2.763855 0.52697754 -5.4264526 -1.2873535 -5.9470215 -4.052429z" fill-rule="evenodd"/><path fill="#1472ff" d="m499.7205 158.49487l0 0c-0.34680176 -1.841919 0.8645935 -3.6196747 2.705719 -3.9707184l121.920044 -23.246109c0.8841553 -0.1685791 1.7982178 0.021133423 2.5411377 0.5273895c0.7429199 0.50624084 1.2538452 1.2875824 1.4204102 2.172104l2.7509766 14.611801c0.34680176 1.8419342 -0.864624 3.6196747 -2.7057495 3.9707184l-121.92001 23.246109c-1.8411255 0.3510437 -3.614746 -0.8575592 -3.9615479 -2.6994934z" fill-rule="evenodd"/><path fill="#ffffff" d="m650.98816 129.95602l0 0c-2.6431885 -14.039429 6.59021 -27.589699 20.623535 -30.265373l101.63489 -19.378418l0 0c6.7390137 -1.2849045 13.706238 0.16104889 19.369019 4.0197754c5.6627197 3.8587265 9.557129 9.814133 10.826477 16.556107l32.393433 172.05643c2.6431885 14.039429 -6.590271 27.589691 -20.623535 30.26538l-101.63489 19.378418c-14.033264 2.6756592 -27.552246 -6.5364685 -30.195496 -20.575897z" fill-rule="evenodd"/><path fill="#999999" d="m673.1845 182.19243l0 0c-0.5206299 -2.7650757 1.2979126 -5.433792 4.0617676 -5.9607697l118.57855 -22.608994c1.3272095 -0.25306702 2.6994019 0.031723022 3.8146973 0.791687c1.1152954 0.75997925 1.8822632 1.9328918 2.1322632 3.260727l0 0l0 0c0.52056885 2.7650604 -1.2979126 5.433777 -4.0617676 5.9607544l-118.57855 22.608994c-2.763855 0.52697754 -5.4263916 -1.2873383 -5.9469604 -4.0523987z" fill-rule="evenodd"/><path stroke="#b7b7b7" stroke-width="1.0" stroke-linejoin="round" stroke-linecap="butt" d="m673.1845 182.19243l0 0c-0.5206299 -2.7650757 1.2979126 -5.433792 4.0617676 -5.9607697l118.57855 -22.608994c1.3272095 -0.25306702 2.6994019 0.031723022 3.8146973 0.791687c1.1152954 0.75997925 1.8822632 1.9328918 2.1322632 3.260727l0 0l0 0c0.52056885 2.7650604 -1.2979126 5.433777 -4.0617676 5.9607544l-118.57855 22.608994c-2.763855 0.52697754 -5.4263916 -1.2873383 -5.9469604 -4.0523987z" fill-rule="evenodd"/><path fill="#999999" d="m677.8639 207.04692l0 0c-0.52056885 -2.7650604 1.2979736 -5.433777 4.0618286 -5.9607544l118.57849 -22.608994c1.3272705 -0.25306702 2.699463 0.031723022 3.8147583 0.791687c1.1152344 0.75997925 1.8822632 1.9328918 2.1322632 3.260727l0 0l0 0c0.52056885 2.7650604 -1.2979736 5.433777 -4.0618286 5.9607544l-118.57849 22.608994c-2.763855 0.52697754 -5.4264526 -1.2873535 -5.9470215 -4.052414z" fill-rule="evenodd"/><path stroke="#b7b7b7" stroke-width="1.0" stroke-linejoin="round" stroke-linecap="butt" d="m677.8639 207.04692l0 0c-0.52056885 -2.7650604 1.2979736 -5.433777 4.0618286 -5.9607544l118.57849 -22.608994c1.3272705 -0.25306702 2.699463 0.031723022 3.8147583 0.791687c1.1152344 0.75997925 1.8822632 1.9328918 2.1322632 3.260727l0 0l0 0c0.52056885 2.7650604 -1.2979736 5.433777 -4.0618286 5.9607544l-118.57849 22.608994c-2.763855 0.52697754 -5.4264526 -1.2873535 -5.9470215 -4.052414z" fill-rule="evenodd"/><path fill="#999999" d="m682.54333 231.90143l0 0c-0.5206299 -2.7650604 1.2979126 -5.433777 4.0617676 -5.9607544l118.57855 -22.608994c1.3272095 -0.25306702 2.6994019 0.031707764 3.8146973 0.791687c1.1152954 0.75997925 1.8822632 1.9328918 2.1322632 3.260727l0 0l0 0c0.52056885 2.7650604 -1.2979126 5.433777 -4.0617676 5.9607544l-118.57855 22.608994c-2.763855 0.52697754 -5.4263916 -1.2873535 -5.9469604 -4.052414z" fill-rule="evenodd"/><path stroke="#b7b7b7" stroke-width="1.0" stroke-linejoin="round" stroke-linecap="butt" d="m682.54333 231.90143l0 0c-0.5206299 -2.7650604 1.2979126 -5.433777 4.0617676 -5.9607544l118.57855 -22.608994c1.3272095 -0.25306702 2.6994019 0.031707764 3.8146973 0.791687c1.1152954 0.75997925 1.8822632 1.9328918 2.1322632 3.260727l0 0l0 0c0.52056885 2.7650604 -1.2979126 5.433777 -4.0617676 5.9607544l-118.57855 22.608994c-2.763855 0.52697754 -5.4263916 -1.2873535 -5.9469604 -4.052414z" fill-rule="evenodd"/><path fill="#999999" d="m687.2227 256.75592l0 0c-0.52056885 -2.7650452 1.2979126 -5.433777 4.0617676 -5.960739l118.57855 -22.609009c1.3272705 -0.25305176 2.699463 0.031723022 3.8146973 0.7917023c1.1152954 0.759964 1.8823242 1.9328918 2.1323242 3.2607117l0 0l0 0c0.52056885 2.7650604 -1.2979736 5.433792 -4.0618286 5.9607544l-118.57855 22.609009c-2.763794 0.52697754 -5.4263916 -1.2873535 -5.9469604 -4.052429z" fill-rule="evenodd"/><path stroke="#b7b7b7" stroke-width="1.0" stroke-linejoin="round" stroke-linecap="butt" d="m687.2227 256.75592l0 0c-0.52056885 -2.7650452 1.2979126 -5.433777 4.0617676 -5.960739l118.57855 -22.609009c1.3272705 -0.25305176 2.699463 0.031723022 3.8146973 0.7917023c1.1152954 0.759964 1.8823242 1.9328918 2.1323242 3.2607117l0 0l0 0c0.52056885 2.7650604 -1.2979736 5.433792 -4.0618286 5.9607544l-118.57855 22.609009c-2.763794 0.52697754 -5.4263916 -1.2873535 -5.9469604 -4.052429z" fill-rule="evenodd"/><path fill="#999999" d="m691.9021 281.61044l0 0c-0.52056885 -2.7650757 1.2979736 -5.433777 4.0618286 -5.9607544l118.57849 -22.609009c1.3272705 -0.25306702 2.699463 0.031723022 3.8147583 0.791687c1.1152344 0.75997925 1.8822632 1.9328918 2.1322632 3.2607117l0 0l0 0c0.52056885 2.7650757 -1.2979736 5.4338074 -4.0617676 5.960785l-118.57855 22.608978c-2.763855 0.52697754 -5.4263916 -1.2873535 -5.9470215 -4.0523987z" fill-rule="evenodd"/><path stroke="#b7b7b7" stroke-width="1.0" stroke-linejoin="round" stroke-linecap="butt" d="m691.9021 281.61044l0 0c-0.52056885 -2.7650757 1.2979736 -5.433777 4.0618286 -5.9607544l118.57849 -22.609009c1.3272705 -0.25306702 2.699463 0.031723022 3.8147583 0.791687c1.1152344 0.75997925 1.8822632 1.9328918 2.1322632 3.2607117l0 0l0 0c0.52056885 2.7650757 -1.2979736 5.4338074 -4.0617676 5.960785l-118.57855 22.608978c-2.763855 0.52697754 -5.4263916 -1.2873535 -5.9470215 -4.0523987z" fill-rule="evenodd"/><path fill="#1472ff" d="m662.8664 127.38835l0 0c-0.34674072 -1.8419266 0.864624 -3.6196823 2.7057495 -3.9707184l121.920044 -23.246109c0.8841553 -0.1685791 1.7982178 0.021125793 2.5411377 0.5273819c0.7429199 0.5062485 1.2538452 1.2875824 1.4204102 2.172104l2.7509766 14.611801c0.34680176 1.8419342 -0.864624 3.6196823 -2.7057495 3.970726l-121.91998 23.246109c-1.8411255 0.3510437 -3.6148071 -0.8575592 -3.9615479 -2.6994934z" fill-rule="evenodd"/><path fill="#ffffff" d="m338.3399 404.9699l0 0c1.7362671 -9.66272 10.96579 -16.027405 20.614685 -14.215912l519.84174 97.59549c4.633545 0.86990356 8.746155 3.5474854 11.432983 7.4437256c2.6868286 3.8962402 3.7279053 8.691956 2.894104 13.332153l-52.23419 290.69507c-1.7363281 9.66272 -10.96582 16.027405 -20.614685 14.215942l-519.8418 -97.59552l0 0c-9.648895 -1.8114624 -16.063354 -11.113159 -14.327087 -20.775879z" fill-rule="evenodd"/><path stroke="#999999" stroke-width="1.0" stroke-linejoin="round" stroke-linecap="butt" d="m338.3399 404.9699l0 0c1.7362671 -9.66272 10.96579 -16.027405 20.614685 -14.215912l519.84174 97.59549c4.633545 0.86990356 8.746155 3.5474854 11.432983 7.4437256c2.6868286 3.8962402 3.7279053 8.691956 2.894104 13.332153l-52.23419 290.69507c-1.7363281 9.66272 -10.96582 16.027405 -20.614685 14.215942l-519.8418 -97.59552l0 0c-9.648895 -1.8114624 -16.063354 -11.113159 -14.327087 -20.775879z" fill-rule="evenodd"/><path fill="#f0f2f5" d="m361.05893 427.12177l0 0c4.272461E-4 -0.002319336 0.0026550293 -0.0038452148 0.0049438477 -0.0033874512l503.12088 94.4606c0.001159668 2.4414062E-4 0.0021362305 8.544922E-4 0.002746582 0.0018310547c6.713867E-4 9.1552734E-4 9.1552734E-4 0.0020751953 7.324219E-4 0.0031738281l-47.969788 266.93823c-4.272461E-4 0.002319336 -0.0026245117 0.00390625 -0.0049438477 0.0034179688l-503.12088 -94.46063l0 0c-0.002319336 -4.272461E-4 -0.0038757324 -0.0026245117 -0.0034484863 -0.0049438477z" fill-rule="evenodd"/><path stroke="#b7b7b7" stroke-width="1.0" stroke-linejoin="round" stroke-linecap="butt" d="m361.05893 427.12177l0 0c4.272461E-4 -0.002319336 0.0026550293 -0.0038452148 0.0049438477 -0.0033874512l503.12088 94.4606c0.001159668 2.4414062E-4 0.0021362305 8.544922E-4 0.002746582 0.0018310547c6.713867E-4 9.1552734E-4 9.1552734E-4 0.0020751953 7.324219E-4 0.0031738281l-47.969788 266.93823c-4.272461E-4 0.002319336 -0.0026245117 0.00390625 -0.0049438477 0.0034179688l-503.12088 -94.46063l0 0c-0.002319336 -4.272461E-4 -0.0038757324 -0.0026245117 -0.0034484863 -0.0049438477z" fill-rule="evenodd"/><path fill="#ffffff" d="m377.91083 566.9405l0 0c1.459137 -7.3738403 8.611206 -12.126526 15.974579 -10.615356l60.320984 12.379395c3.5360107 0.725708 6.6488647 2.828308 8.653717 5.845337c2.0048828 3.0170898 2.7375488 6.701355 2.0368652 10.242432l-10.5677185 53.404602c-1.459137 7.3738403 -8.611206 12.126526 -15.974579 10.615356l-60.321014 -12.379395c-7.363373 -1.5111694 -12.149689 -8.713928 -10.690552 -16.087769z" fill-rule="evenodd"/><path fill="#6fa8dc" d="m390.2631 504.51743l0 0c1.4591675 -7.373871 8.611206 -12.126526 15.974609 -10.615356l60.320984 12.379395c3.5360107 0.7256775 6.6488647 2.8283386 8.653717 5.8453674c2.0048828 3.0170288 2.7375488 6.701355 2.0368347 10.242371l-10.5677185 53.404602c-1.459137 7.3739014 -8.611206 12.126526 -15.974579 10.6154175l-60.320984 -12.379456c-7.363373 -1.5111084 -12.149719 -8.713867 -10.690552 -16.087708z" fill-rule="evenodd"/><path fill="#999999" d="m384.3124 587.1684l0 0c0.14852905 -0.7505493 0.8765259 -1.234375 1.6260681 -1.0805054l64.27533 13.190918c0.35995483 0.07385254 0.67681885 0.28790283 0.8808899 0.59503174c0.20407104 0.30706787 0.278656 0.6821289 0.20733643 1.0425415l-1.0757141 5.436157c-0.14852905 0.75061035 -0.8765564 1.234375 -1.6260681 1.0805664l-64.27533 -13.190979c-0.74954224 -0.1538086 -1.2367554 -0.8869629 -1.0882263 -1.6375732z" fill-rule="evenodd"/><path fill="#999999" d="m380.22852 607.8065l0 0c0.14852905 -0.7505493 0.8765564 -1.234375 1.6260681 -1.0805054l64.27536 13.190918c0.35992432 0.07385254 0.67678833 0.28790283 0.8808594 0.59503174c0.20410156 0.30706787 0.278656 0.6821289 0.20733643 1.0425415l-1.0756836 5.436157c-0.14852905 0.75061035 -0.8765564 1.234375 -1.6260986 1.0805664l-64.27533 -13.190979c-0.7495117 -0.1538086 -1.2367249 -0.8869629 -1.0881958 -1.6375732z" fill-rule="evenodd"/><path fill="#ffffff" d="m491.22922 586.3102l0 0c1.459137 -7.3739014 8.611206 -12.126526 15.974579 -10.6154175l60.320984 12.379456c3.5360107 0.725647 6.6488647 2.828308 8.653748 5.845337c2.0048828 3.0170288 2.7375488 6.701355 2.0368042 10.242371l-10.567688 53.404602c-1.4591675 7.3739014 -8.611206 12.126526 -15.974609 10.6154175l-60.320953 -12.379456c-7.363373 -1.5111084 -12.149719 -8.713867 -10.690582 -16.087708z" fill-rule="evenodd"/><path fill="#f6b26b" d="m503.5815 523.8871l0 0c1.459137 -7.3738403 8.611176 -12.126526 15.974579 -10.615356l60.320984 12.379395c3.5360107 0.725708 6.6488647 2.828308 8.653748 5.845398c2.0048828 3.0170288 2.7375488 6.701294 2.0368042 10.242371l-10.567688 53.404602c-1.4591675 7.3738403 -8.611206 12.126526 -15.974609 10.615356l-60.320984 -12.379395c-7.363373 -1.5111694 -12.149689 -8.713867 -10.690552 -16.087769z" fill-rule="evenodd"/><path fill="#999999" d="m497.6308 606.5381l0 0c0.14852905 -0.75061035 0.8765564 -1.234375 1.6260681 -1.0805664l64.27536 13.190979c0.35992432 0.07385254 0.6767578 0.28790283 0.8808594 0.5949707c0.20410156 0.3071289 0.27868652 0.68218994 0.20733643 1.0426025l-1.0756836 5.436157c-0.14855957 0.7505493 -0.8765869 1.234375 -1.6260986 1.0805054l-64.27533 -13.190918c-0.74954224 -0.1538086 -1.2367249 -0.8870239 -1.0881958 -1.6375732z" fill-rule="evenodd"/><path fill="#999999" d="m493.54694 627.1762l0 0c0.14852905 -0.75061035 0.8765259 -1.234375 1.6260681 -1.0805664l64.27536 13.190979c0.35992432 0.07385254 0.6767578 0.28790283 0.8808594 0.5949707c0.20404053 0.3071289 0.2786255 0.68218994 0.20733643 1.0426025l-1.0757446 5.436157c-0.14849854 0.7505493 -0.8765259 1.234375 -1.6260376 1.0805054l-64.27536 -13.190918c-0.7495117 -0.1538086 -1.2367249 -0.8870239 -1.0881958 -1.6375732z" fill-rule="evenodd"/><path fill="#ffffff" d="m602.8487 610.07275l0 0c1.4591064 -7.3739014 8.611206 -12.126526 15.974548 -10.6154175l60.320984 12.379456c3.5360718 0.725647 6.6488647 2.828308 8.653748 5.845337c2.0048828 3.0170288 2.7375488 6.701355 2.0368652 10.242371l-10.567749 53.404663c-1.4591064 7.3738403 -8.611206 12.126465 -15.974548 10.615356l-60.320984 -12.379456c-7.3634033 -1.5111084 -12.149719 -8.713867 -10.690613 -16.087708z" fill-rule="evenodd"/><path fill="#e06666" d="m615.201 547.64966l0 0c1.4591064 -7.3738403 8.611206 -12.126526 15.974548 -10.615356l60.320984 12.379395c3.5360107 0.725708 6.6488647 2.8283691 8.653748 5.845398c2.0048828 3.0170288 2.7375488 6.701294 2.0368042 10.242371l-10.567688 53.404602c-1.4591675 7.3738403 -8.611206 12.126526 -15.974548 10.615356l-60.321045 -12.379395c-7.3633423 -1.5111694 -12.149658 -8.713867 -10.690552 -16.087769z" fill-rule="evenodd"/><path fill="#999999" d="m609.25024 630.30066l0 0c0.14855957 -0.75061035 0.8765869 -1.234375 1.6260986 -1.0805664l64.27533 13.190979c0.35992432 0.07385254 0.67681885 0.28790283 0.8808594 0.5949707c0.20410156 0.3071289 0.27868652 0.68218994 0.20733643 1.0426025l-1.0756836 5.436157c-0.14855957 0.7505493 -0.8765259 1.234375 -1.6260986 1.0805054l-64.27533 -13.190918c-0.7495117 -0.1538086 -1.2367554 -0.8870239 -1.0881958 -1.6375732z" fill-rule="evenodd"/><path fill="#999999" d="m605.1664 650.9388l0 0c0.14855957 -0.75061035 0.8765259 -1.234375 1.6260986 -1.0805664l64.27533 13.190979c0.35992432 0.07385254 0.6767578 0.28790283 0.8808594 0.5949707c0.20410156 0.3071289 0.27868652 0.68218994 0.20733643 1.0426025l-1.0756836 5.436157c-0.14855957 0.7505493 -0.8765869 1.234375 -1.6260986 1.0805054l-64.27533 -13.190918c-0.7495117 -0.1538086 -1.2367554 -0.8870239 -1.0881958 -1.6375732z" fill-rule="evenodd"/><path fill="#ffffff" d="m715.7314 630.5689l0 0c1.4591675 -7.3739014 8.611206 -12.126526 15.974609 -10.6154175l60.320984 12.379456c3.5360107 0.725647 6.6488647 2.828308 8.653748 5.845337c2.0048828 3.0170288 2.7375488 6.701355 2.0368042 10.242371l-10.567688 53.404663c-1.4591675 7.3738403 -8.611206 12.126526 -15.974609 10.615356l-60.320984 -12.379456c-7.3633423 -1.5111084 -12.149719 -8.713867 -10.690552 -16.087708z" fill-rule="evenodd"/><path fill="#c27ba0" d="m728.0837 568.1458l0 0c1.4591675 -7.3738403 8.611206 -12.126526 15.974609 -10.615356l60.320984 12.379395c3.5360107 0.725708 6.6488647 2.8283691 8.653748 5.845398c2.0048218 3.0170288 2.7375488 6.701294 2.0368042 10.242371l-10.567688 53.404602c-1.4591675 7.3739014 -8.611206 12.126526 -15.974609 10.615356l-60.320984 -12.379395c-7.3633423 -1.5111694 -12.149719 -8.713867 -10.690552 -16.087708z" fill-rule="evenodd"/><path fill="#999999" d="m722.133 650.7968l0 0c0.14849854 -0.75061035 0.8765259 -1.234375 1.6260986 -1.0805664l64.27533 13.190979c0.35992432 0.07385254 0.6767578 0.28790283 0.8808594 0.59503174c0.20410156 0.30706787 0.27868652 0.6821289 0.20733643 1.0425415l-1.0756836 5.436157c-0.14855957 0.7505493 -0.8765869 1.234375 -1.6260986 1.0805054l-64.27533 -13.190918c-0.7495117 -0.1538086 -1.2367554 -0.8870239 -1.0881958 -1.6375732z" fill-rule="evenodd"/><path fill="#999999" d="m718.04913 671.43494l0 0c0.14849854 -0.75061035 0.8765259 -1.234375 1.6260376 -1.0805664l64.27539 13.190979c0.35992432 0.07385254 0.6767578 0.28790283 0.8808594 0.59503174c0.20404053 0.30706787 0.2786255 0.6821289 0.20733643 1.0425415l-1.0757446 5.436157c-0.14849854 0.7505493 -0.8765259 1.234375 -1.6260376 1.0805054l-64.27533 -13.190918c-0.74957275 -0.1538086 -1.2367554 -0.8870239 -1.0882568 -1.6375732z" fill-rule="evenodd"/></g></svg>