<svg version="1.1" viewBox="0.0 0.0 1173.018372703412 823.8950131233596" fill="none" stroke="none" stroke-linecap="square" stroke-miterlimit="10" xmlns:xlink="http://www.w3.org/1999/xlink" xmlns="http://www.w3.org/2000/svg"><clipPath id="p.0"><path d="m0 0l1173.0184 0l0 823.895l-1173.0184 0l0 -823.895z" clip-rule="nonzero"/></clipPath><g clip-path="url(#p.0)"><path fill="#000000" fill-opacity="0.0" d="m0 0l1173.0184 0l0 823.895l-1173.0184 0z" fill-rule="evenodd"/><path fill="#ffffff" d="m457.76035 127.30494l0 0c-1.8751831 -9.959885 4.6752625 -19.572762 14.630768 -21.470947l537.0497 -102.39758c4.7808228 -0.91154265 9.723511 0.11425161 13.740845 2.85172c4.017212 2.7374678 6.7800293 6.962371 7.680542 11.745278l56.412964 299.63522c1.8751221 9.959869 -4.675293 19.572754 -14.630859 21.470947l-537.0497 102.39758l0 0c-9.955505 1.8981934 -19.546143 -4.6371155 -21.421326 -14.597015z" fill-rule="evenodd"/><path stroke="#999999" stroke-width="1.0" stroke-linejoin="round" stroke-linecap="butt" d="m457.76035 127.30494l0 0c-1.8751831 -9.959885 4.6752625 -19.572762 14.630768 -21.470947l537.0497 -102.39758c4.7808228 -0.91154265 9.723511 0.11425161 13.740845 2.85172c4.017212 2.7374678 6.7800293 6.962371 7.680542 11.745278l56.412964 299.63522c1.8751221 9.959869 -4.675293 19.572754 -14.630859 21.470947l-537.0497 102.39758l0 0c-9.955505 1.8981934 -19.546143 -4.6371155 -21.421326 -14.597015z" fill-rule="evenodd"/><path fill="#f0f2f5" d="m487.79913 140.0528l0 0c-4.5776367E-4 -0.0023956299 0.0010986328 -0.004699707 0.0035095215 -0.0051574707l519.735 -99.09175c0.001159668 -2.1743774E-4 0.002319336 2.670288E-5 0.0032958984 6.866455E-4c9.765625E-4 6.5612793E-4 0.0016479492 0.0016708374 0.0018920898 0.002822876l51.7984 275.1494c4.8828125E-4 0.0024108887 -0.0010986328 0.004699707 -0.003540039 0.0051574707l-519.7349 99.09177l0 0c-0.002380371 4.5776367E-4 -0.004699707 -0.0011291504 -0.005126953 -0.0035095215z" fill-rule="evenodd"/><path stroke="#b7b7b7" stroke-width="1.0" stroke-linejoin="round" stroke-linecap="butt" d="m487.79913 140.0528l0 0c-4.5776367E-4 -0.0023956299 0.0010986328 -0.004699707 0.0035095215 -0.0051574707l519.735 -99.09175c0.001159668 -2.1743774E-4 0.002319336 2.670288E-5 0.0032958984 6.866455E-4c9.765625E-4 6.5612793E-4 0.0016479492 0.0016708374 0.0018920898 0.002822876l51.7984 275.1494c4.8828125E-4 0.0024108887 -0.0010986328 0.004699707 -0.003540039 0.0051574707l-519.7349 99.09177l0 0c-0.002380371 4.5776367E-4 -0.004699707 -0.0011291504 -0.005126953 -0.0035095215z" fill-rule="evenodd"/><path fill="#ffffff" d="m513.54034 193.17947l0 0c-2.6432495 -14.039429 6.59021 -27.589691 20.623474 -30.26538l101.63495 -19.378403l0 0c6.7390137 -1.2849121 13.706238 0.16104126 19.369019 4.0197754c5.6627197 3.8587189 9.557129 9.814133 10.826477 16.556091l32.39337 172.05644c2.6432495 14.039429 -6.59021 27.589691 -20.623474 30.26538l-101.63495 19.378418c-14.033264 2.6756592 -27.552246 -6.5364685 -30.195435 -20.575897z" fill-rule="evenodd"/><path fill="#999999" d="m535.73663 245.41588l0 0c-0.52056885 -2.7650604 1.2979736 -5.433792 4.0618286 -5.9607697l118.57849 -22.608994c1.3272705 -0.25305176 2.699463 0.031723022 3.8147583 0.7917023c1.1152344 0.759964 1.8822632 1.9328918 2.1322632 3.2607117l0 0l0 0c0.52056885 2.7650604 -1.2979736 5.433792 -4.0618286 5.9607544l-118.57849 22.609009c-2.763855 0.5269623 -5.4263916 -1.2873535 -5.9470215 -4.052414z" fill-rule="evenodd"/><path stroke="#b7b7b7" stroke-width="1.0" stroke-linejoin="round" stroke-linecap="butt" d="m535.73663 245.41588l0 0c-0.52056885 -2.7650604 1.2979736 -5.433792 4.0618286 -5.9607697l118.57849 -22.608994c1.3272705 -0.25305176 2.699463 0.031723022 3.8147583 0.7917023c1.1152344 0.759964 1.8822632 1.9328918 2.1322632 3.2607117l0 0l0 0c0.52056885 2.7650604 -1.2979736 5.433792 -4.0618286 5.9607544l-118.57849 22.609009c-2.763855 0.5269623 -5.4263916 -1.2873535 -5.9470215 -4.052414z" fill-rule="evenodd"/><path fill="#999999" d="m540.4161 270.2704l0 0c-0.5206299 -2.7650757 1.2979126 -5.433777 4.0617676 -5.9607544l118.57855 -22.609009c1.3272095 -0.25306702 2.6994019 0.031723022 3.8146973 0.791687c1.1152954 0.75997925 1.8822632 1.9328918 2.1322632 3.260727l0 0l0 0c0.5206299 2.7650604 -1.2979126 5.433777 -4.0617676 5.9607544l-118.57855 22.608994c-2.763855 0.52697754 -5.4263916 -1.2873535 -5.9469604 -4.0523987z" fill-rule="evenodd"/><path stroke="#b7b7b7" stroke-width="1.0" stroke-linejoin="round" stroke-linecap="butt" d="m540.4161 270.2704l0 0c-0.5206299 -2.7650757 1.2979126 -5.433777 4.0617676 -5.9607544l118.57855 -22.609009c1.3272095 -0.25306702 2.6994019 0.031723022 3.8146973 0.791687c1.1152954 0.75997925 1.8822632 1.9328918 2.1322632 3.260727l0 0l0 0c0.5206299 2.7650604 -1.2979126 5.433777 -4.0617676 5.9607544l-118.57855 22.608994c-2.763855 0.52697754 -5.4263916 -1.2873535 -5.9469604 -4.0523987z" fill-rule="evenodd"/><path fill="#999999" d="m545.09546 295.12488l0 0c-0.52056885 -2.7650452 1.2979736 -5.433777 4.0618286 -5.9607544l118.57849 -22.609009c1.3272705 -0.25305176 2.699463 0.03173828 3.8147583 0.7917175c1.1152344 0.75994873 1.8822632 1.9328918 2.1322632 3.2607117l0 0l0 0c0.52056885 2.7650452 -1.2979736 5.433777 -4.0618286 5.9607544l-118.57849 22.609009c-2.763855 0.526947 -5.4264526 -1.2873535 -5.9470215 -4.052429z" fill-rule="evenodd"/><path stroke="#b7b7b7" stroke-width="1.0" stroke-linejoin="round" stroke-linecap="butt" d="m545.09546 295.12488l0 0c-0.52056885 -2.7650452 1.2979736 -5.433777 4.0618286 -5.9607544l118.57849 -22.609009c1.3272705 -0.25305176 2.699463 0.03173828 3.8147583 0.7917175c1.1152344 0.75994873 1.8822632 1.9328918 2.1322632 3.2607117l0 0l0 0c0.52056885 2.7650452 -1.2979736 5.433777 -4.0618286 5.9607544l-118.57849 22.609009c-2.763855 0.526947 -5.4264526 -1.2873535 -5.9470215 -4.052429z" fill-rule="evenodd"/><path fill="#999999" d="m549.7749 319.97937l0 0c-0.5206299 -2.7650452 1.2979126 -5.433777 4.0617676 -5.9607544l118.57855 -22.608978c1.3272095 -0.25308228 2.6994019 0.031707764 3.8146973 0.791687c1.1152954 0.75997925 1.8822632 1.9328918 2.1322632 3.2607117l0 0l0 0c0.52056885 2.7650757 -1.2979126 5.433777 -4.0617676 5.9607544l-118.57855 22.609009c-2.763855 0.52697754 -5.4263916 -1.2873535 -5.9469604 -4.052429z" fill-rule="evenodd"/><path stroke="#b7b7b7" stroke-width="1.0" stroke-linejoin="round" stroke-linecap="butt" d="m549.7749 319.97937l0 0c-0.5206299 -2.7650452 1.2979126 -5.433777 4.0617676 -5.9607544l118.57855 -22.608978c1.3272095 -0.25308228 2.6994019 0.031707764 3.8146973 0.791687c1.1152954 0.75997925 1.8822632 1.9328918 2.1322632 3.2607117l0 0l0 0c0.52056885 2.7650757 -1.2979126 5.433777 -4.0617676 5.9607544l-118.57855 22.609009c-2.763855 0.52697754 -5.4263916 -1.2873535 -5.9469604 -4.052429z" fill-rule="evenodd"/><path fill="#999999" d="m554.4543 344.8339l0 0c-0.52056885 -2.7650757 1.2979126 -5.433777 4.0617676 -5.9607544l118.57855 -22.609009c1.3272705 -0.25305176 2.699463 0.031707764 3.8146973 0.791687c1.1152954 0.75997925 1.8823242 1.9328918 2.1323242 3.2607422l0 0l0 0c0.52056885 2.7650452 -1.2979736 5.433777 -4.0618286 5.9607544l-118.57855 22.608978c-2.763794 0.52697754 -5.4263916 -1.2873535 -5.9469604 -4.0523987z" fill-rule="evenodd"/><path stroke="#b7b7b7" stroke-width="1.0" stroke-linejoin="round" stroke-linecap="butt" d="m554.4543 344.8339l0 0c-0.52056885 -2.7650757 1.2979126 -5.433777 4.0617676 -5.9607544l118.57855 -22.609009c1.3272705 -0.25305176 2.699463 0.031707764 3.8146973 0.791687c1.1152954 0.75997925 1.8823242 1.9328918 2.1323242 3.2607422l0 0l0 0c0.52056885 2.7650452 -1.2979736 5.433777 -4.0618286 5.9607544l-118.57855 22.608978c-2.763794 0.52697754 -5.4263916 -1.2873535 -5.9469604 -4.0523987z" fill-rule="evenodd"/><path fill="#1472ff" d="m525.4186 190.6118l0 0c-0.34680176 -1.841919 0.864624 -3.6196747 2.7057495 -3.9707184l121.91998 -23.246109c0.8841553 -0.1685791 1.7982178 0.021133423 2.5411987 0.52737427c0.7429199 0.5062561 1.2538452 1.2875977 1.4204102 2.1721191l2.7509766 14.611801c0.34680176 1.841919 -0.864624 3.6196747 -2.7057495 3.9707184l-121.920044 23.246109c-1.8411255 0.3510437 -3.614746 -0.8575592 -3.9615479 -2.6994934z" fill-rule="evenodd"/><path fill="#ffffff" d="m681.9892 161.06255l0 0c-2.6431885 -14.039429 6.590271 -27.589691 20.623535 -30.265366l101.63489 -19.378418l0 0c6.7390137 -1.2849045 13.706238 0.16104889 19.369019 4.0197754c5.662781 3.8587265 9.557129 9.814133 10.826477 16.556107l32.393433 172.05644c2.6431885 14.039429 -6.590271 27.589691 -20.623535 30.26535l-101.63489 19.378418c-14.033264 2.6756897 -27.552246 -6.536438 -30.195496 -20.575867z" fill-rule="evenodd"/><path fill="#999999" d="m704.18555 213.29895l0 0c-0.5206299 -2.7650604 1.2979126 -5.433792 4.0617676 -5.9607544l118.57855 -22.609009c1.3272095 -0.25305176 2.6994019 0.031723022 3.8146973 0.7917023c1.1152954 0.75997925 1.8822632 1.9328918 2.1322632 3.2607117l0 0l0 0c0.5206299 2.7650604 -1.2979126 5.433792 -4.0617676 5.9607697l-118.57855 22.608994c-2.763855 0.52697754 -5.4263916 -1.2873535 -5.9469604 -4.052414z" fill-rule="evenodd"/><path stroke="#b7b7b7" stroke-width="1.0" stroke-linejoin="round" stroke-linecap="butt" d="m704.18555 213.29895l0 0c-0.5206299 -2.7650604 1.2979126 -5.433792 4.0617676 -5.9607544l118.57855 -22.609009c1.3272095 -0.25305176 2.6994019 0.031723022 3.8146973 0.7917023c1.1152954 0.75997925 1.8822632 1.9328918 2.1322632 3.2607117l0 0l0 0c0.5206299 2.7650604 -1.2979126 5.433792 -4.0617676 5.9607697l-118.57855 22.608994c-2.763855 0.52697754 -5.4263916 -1.2873535 -5.9469604 -4.052414z" fill-rule="evenodd"/><path fill="#999999" d="m708.8649 238.15346l0 0c-0.52056885 -2.7650604 1.2979736 -5.433792 4.0618286 -5.9607697l118.57849 -22.608994c1.3272705 -0.25306702 2.699463 0.031723022 3.8147583 0.7917023c1.1152344 0.759964 1.8822632 1.9328766 2.1322632 3.2607117l0 0l0 0c0.52056885 2.7650604 -1.2979736 5.433777 -4.0618286 5.9607544l-118.57849 22.609009c-2.763855 0.5269623 -5.4264526 -1.2873535 -5.9470215 -4.052414z" fill-rule="evenodd"/><path stroke="#b7b7b7" stroke-width="1.0" stroke-linejoin="round" stroke-linecap="butt" d="m708.8649 238.15346l0 0c-0.52056885 -2.7650604 1.2979736 -5.433792 4.0618286 -5.9607697l118.57849 -22.608994c1.3272705 -0.25306702 2.699463 0.031723022 3.8147583 0.7917023c1.1152344 0.759964 1.8822632 1.9328766 2.1322632 3.2607117l0 0l0 0c0.52056885 2.7650604 -1.2979736 5.433777 -4.0618286 5.9607544l-118.57849 22.609009c-2.763855 0.5269623 -5.4264526 -1.2873535 -5.9470215 -4.052414z" fill-rule="evenodd"/><path fill="#999999" d="m713.5444 263.00797l0 0c-0.5206299 -2.7650757 1.2979126 -5.4338074 4.0617676 -5.9607544l118.57855 -22.609009c1.3272095 -0.25306702 2.6994019 0.031723022 3.8146973 0.791687c1.1152954 0.75997925 1.8822632 1.9328918 2.1322632 3.260727l0 0l0 0c0.52056885 2.7650604 -1.2979126 5.433777 -4.0617676 5.9607544l-118.57855 22.608994c-2.763855 0.52697754 -5.4263916 -1.2873535 -5.9469604 -4.0523987z" fill-rule="evenodd"/><path stroke="#b7b7b7" stroke-width="1.0" stroke-linejoin="round" stroke-linecap="butt" d="m713.5444 263.00797l0 0c-0.5206299 -2.7650757 1.2979126 -5.4338074 4.0617676 -5.9607544l118.57855 -22.609009c1.3272095 -0.25306702 2.6994019 0.031723022 3.8146973 0.791687c1.1152954 0.75997925 1.8822632 1.9328918 2.1322632 3.260727l0 0l0 0c0.52056885 2.7650604 -1.2979126 5.433777 -4.0617676 5.9607544l-118.57855 22.608994c-2.763855 0.52697754 -5.4263916 -1.2873535 -5.9469604 -4.0523987z" fill-rule="evenodd"/><path fill="#999999" d="m718.22375 287.86246l0 0c-0.52056885 -2.7650452 1.2979126 -5.433777 4.0617676 -5.9607544l118.57855 -22.609009c1.3272705 -0.25305176 2.699463 0.03173828 3.8146973 0.7917175c1.1152954 0.75994873 1.8823242 1.9328613 2.1323242 3.2607117l0 0l0 0c0.52056885 2.7650452 -1.2979736 5.433777 -4.0618286 5.9607544l-118.57849 22.608978c-2.763855 0.52697754 -5.4264526 -1.287323 -5.9470215 -4.0523987z" fill-rule="evenodd"/><path stroke="#b7b7b7" stroke-width="1.0" stroke-linejoin="round" stroke-linecap="butt" d="m718.22375 287.86246l0 0c-0.52056885 -2.7650452 1.2979126 -5.433777 4.0617676 -5.9607544l118.57855 -22.609009c1.3272705 -0.25305176 2.699463 0.03173828 3.8146973 0.7917175c1.1152954 0.75994873 1.8823242 1.9328613 2.1323242 3.2607117l0 0l0 0c0.52056885 2.7650452 -1.2979736 5.433777 -4.0618286 5.9607544l-118.57849 22.608978c-2.763855 0.52697754 -5.4264526 -1.287323 -5.9470215 -4.0523987z" fill-rule="evenodd"/><path fill="#999999" d="m722.90314 312.71695l0 0c-0.52056885 -2.7650452 1.2979736 -5.433777 4.0618286 -5.9607544l118.57849 -22.608978c1.3272705 -0.25308228 2.699463 0.031707764 3.8147583 0.791687c1.1152954 0.75997925 1.8822632 1.9328918 2.1322632 3.2607117l0 0l0 0c0.52056885 2.7650757 -1.2979736 5.433777 -4.0617676 5.9607544l-118.57855 22.609009c-2.763855 0.52697754 -5.4263916 -1.2873535 -5.9470215 -4.052429z" fill-rule="evenodd"/><path stroke="#b7b7b7" stroke-width="1.0" stroke-linejoin="round" stroke-linecap="butt" d="m722.90314 312.71695l0 0c-0.52056885 -2.7650452 1.2979736 -5.433777 4.0618286 -5.9607544l118.57849 -22.608978c1.3272705 -0.25308228 2.699463 0.031707764 3.8147583 0.791687c1.1152954 0.75997925 1.8822632 1.9328918 2.1322632 3.2607117l0 0l0 0c0.52056885 2.7650757 -1.2979736 5.433777 -4.0617676 5.9607544l-118.57855 22.609009c-2.763855 0.52697754 -5.4263916 -1.2873535 -5.9470215 -4.052429z" fill-rule="evenodd"/><path fill="#1472ff" d="m693.86743 158.49487l0 0c-0.34674072 -1.841919 0.864624 -3.6196747 2.7057495 -3.9707184l121.920044 -23.246109c0.8841553 -0.1685791 1.7982178 0.021133423 2.5411377 0.5273895c0.7429199 0.50624084 1.2539062 1.2875824 1.4204102 2.172104l2.7509766 14.611801c0.34680176 1.8419342 -0.864624 3.6196747 -2.7057495 3.9707184l-121.91998 23.246109c-1.8411255 0.3510437 -3.6148071 -0.8575592 -3.9615479 -2.6994934z" fill-rule="evenodd"/><path fill="#ffffff" d="m845.13513 129.95602l0 0c-2.6431885 -14.039429 6.590271 -27.589699 20.623535 -30.265373l101.63489 -19.378418l0 0c6.7390137 -1.2849045 13.706299 0.16104889 19.369019 4.0197754c5.662781 3.8587265 9.557129 9.814133 10.826477 16.556107l32.39337 172.05643c2.6433105 14.039429 -6.590149 27.589691 -20.623474 30.26538l-101.63489 19.378418c-14.033264 2.6756592 -27.552246 -6.5364685 -30.195496 -20.575897z" fill-rule="evenodd"/><path fill="#999999" d="m867.3315 182.19243l0 0c-0.52056885 -2.7650757 1.2979126 -5.433792 4.0617676 -5.9607697l118.57855 -22.608994c1.3272095 -0.25306702 2.699463 0.031723022 3.8146973 0.791687c1.1152954 0.75997925 1.8823242 1.9328918 2.1322632 3.260727l0 0l0 0c0.5206299 2.7650604 -1.2979126 5.433777 -4.0617676 5.9607544l-118.57855 22.608994c-2.763855 0.52697754 -5.4263916 -1.2873383 -5.9469604 -4.0523987z" fill-rule="evenodd"/><path stroke="#b7b7b7" stroke-width="1.0" stroke-linejoin="round" stroke-linecap="butt" d="m867.3315 182.19243l0 0c-0.52056885 -2.7650757 1.2979126 -5.433792 4.0617676 -5.9607697l118.57855 -22.608994c1.3272095 -0.25306702 2.699463 0.031723022 3.8146973 0.791687c1.1152954 0.75997925 1.8823242 1.9328918 2.1322632 3.260727l0 0l0 0c0.5206299 2.7650604 -1.2979126 5.433777 -4.0617676 5.9607544l-118.57855 22.608994c-2.763855 0.52697754 -5.4263916 -1.2873383 -5.9469604 -4.0523987z" fill-rule="evenodd"/><path fill="#999999" d="m872.01086 207.04692l0 0c-0.52056885 -2.7650604 1.2979736 -5.433777 4.0618286 -5.9607544l118.57849 -22.608994c1.3272705 -0.25306702 2.699463 0.031723022 3.8147583 0.791687c1.1152344 0.75997925 1.8822632 1.9328918 2.1322632 3.260727l0 0l0 0c0.52056885 2.7650604 -1.2979736 5.433777 -4.0618286 5.9607544l-118.57849 22.608994c-2.763855 0.52697754 -5.4264526 -1.2873535 -5.9470215 -4.052414z" fill-rule="evenodd"/><path stroke="#b7b7b7" stroke-width="1.0" stroke-linejoin="round" stroke-linecap="butt" d="m872.01086 207.04692l0 0c-0.52056885 -2.7650604 1.2979736 -5.433777 4.0618286 -5.9607544l118.57849 -22.608994c1.3272705 -0.25306702 2.699463 0.031723022 3.8147583 0.791687c1.1152344 0.75997925 1.8822632 1.9328918 2.1322632 3.260727l0 0l0 0c0.52056885 2.7650604 -1.2979736 5.433777 -4.0618286 5.9607544l-118.57849 22.608994c-2.763855 0.52697754 -5.4264526 -1.2873535 -5.9470215 -4.052414z" fill-rule="evenodd"/><path fill="#999999" d="m876.6903 231.90143l0 0c-0.5206299 -2.7650604 1.2979126 -5.433777 4.0617676 -5.9607544l118.57855 -22.608994c1.3272095 -0.25306702 2.6994019 0.031707764 3.8146973 0.791687c1.1152954 0.75997925 1.8822632 1.9328918 2.1322632 3.260727l0 0l0 0c0.52056885 2.7650604 -1.2979126 5.433777 -4.0617676 5.9607544l-118.57855 22.608994c-2.763855 0.52697754 -5.4263916 -1.2873535 -5.9469604 -4.052414z" fill-rule="evenodd"/><path stroke="#b7b7b7" stroke-width="1.0" stroke-linejoin="round" stroke-linecap="butt" d="m876.6903 231.90143l0 0c-0.5206299 -2.7650604 1.2979126 -5.433777 4.0617676 -5.9607544l118.57855 -22.608994c1.3272095 -0.25306702 2.6994019 0.031707764 3.8146973 0.791687c1.1152954 0.75997925 1.8822632 1.9328918 2.1322632 3.260727l0 0l0 0c0.52056885 2.7650604 -1.2979126 5.433777 -4.0617676 5.9607544l-118.57855 22.608994c-2.763855 0.52697754 -5.4263916 -1.2873535 -5.9469604 -4.052414z" fill-rule="evenodd"/><path fill="#999999" d="m881.3697 256.75592l0 0c-0.52056885 -2.7650452 1.2979736 -5.433777 4.0617676 -5.960739l118.57855 -22.609009c1.3272705 -0.25305176 2.699463 0.031723022 3.8147583 0.7917023c1.1152344 0.759964 1.8822632 1.9328918 2.1322632 3.2607117l0 0l0 0c0.52056885 2.7650604 -1.2979736 5.433792 -4.0618286 5.9607544l-118.57849 22.609009c-2.763855 0.52697754 -5.4264526 -1.2873535 -5.9470215 -4.052429z" fill-rule="evenodd"/><path stroke="#b7b7b7" stroke-width="1.0" stroke-linejoin="round" stroke-linecap="butt" d="m881.3697 256.75592l0 0c-0.52056885 -2.7650452 1.2979736 -5.433777 4.0617676 -5.960739l118.57855 -22.609009c1.3272705 -0.25305176 2.699463 0.031723022 3.8147583 0.7917023c1.1152344 0.759964 1.8822632 1.9328918 2.1322632 3.2607117l0 0l0 0c0.52056885 2.7650604 -1.2979736 5.433792 -4.0618286 5.9607544l-118.57849 22.609009c-2.763855 0.52697754 -5.4264526 -1.2873535 -5.9470215 -4.052429z" fill-rule="evenodd"/><path fill="#999999" d="m886.0491 281.61044l0 0c-0.52056885 -2.7650757 1.2979736 -5.433777 4.0618286 -5.9607544l118.57855 -22.609009c1.3272095 -0.25306702 2.6994019 0.031723022 3.8146973 0.791687c1.1152954 0.75997925 1.8822632 1.9328918 2.1322632 3.2607117l0 0l0 0c0.52056885 2.7650757 -1.2979126 5.4338074 -4.0617676 5.960785l-118.57855 22.608978c-2.763855 0.52697754 -5.4263916 -1.2873535 -5.9470215 -4.0523987z" fill-rule="evenodd"/><path stroke="#b7b7b7" stroke-width="1.0" stroke-linejoin="round" stroke-linecap="butt" d="m886.0491 281.61044l0 0c-0.52056885 -2.7650757 1.2979736 -5.433777 4.0618286 -5.9607544l118.57855 -22.609009c1.3272095 -0.25306702 2.6994019 0.031723022 3.8146973 0.791687c1.1152954 0.75997925 1.8822632 1.9328918 2.1322632 3.2607117l0 0l0 0c0.52056885 2.7650757 -1.2979126 5.4338074 -4.0617676 5.960785l-118.57855 22.608978c-2.763855 0.52697754 -5.4263916 -1.2873535 -5.9470215 -4.0523987z" fill-rule="evenodd"/><path fill="#1472ff" d="m857.0134 127.38835l0 0c-0.34680176 -1.8419266 0.864563 -3.6196823 2.7056885 -3.9707184l121.920044 -23.246109c0.8841553 -0.1685791 1.7982178 0.021125793 2.5411377 0.5273819c0.74298096 0.5062485 1.2539062 1.2875824 1.4204102 2.172104l2.7509766 14.611801c0.34680176 1.8419342 -0.864563 3.6196823 -2.7056885 3.970726l-121.920044 23.246109c-1.8411255 0.3510437 -3.614746 -0.8575592 -3.9615479 -2.6994934z" fill-rule="evenodd"/><path fill="#ffffff" d="m532.4869 404.9699l0 0c1.7362671 -9.66272 10.96582 -16.027405 20.614685 -14.215912l519.8418 97.59549c4.633545 0.86990356 8.746094 3.5474854 11.432983 7.4437256c2.6867676 3.8962402 3.7277832 8.691956 2.894043 13.332153l-52.234253 290.69507c-1.736206 9.66272 -10.965698 16.027405 -20.614624 14.215942l-519.8418 -97.59552l0 0c-9.648895 -1.8114624 -16.063354 -11.113159 -14.327057 -20.775879z" fill-rule="evenodd"/><path stroke="#999999" stroke-width="1.0" stroke-linejoin="round" stroke-linecap="butt" d="m532.4869 404.9699l0 0c1.7362671 -9.66272 10.96582 -16.027405 20.614685 -14.215912l519.8418 97.59549c4.633545 0.86990356 8.746094 3.5474854 11.432983 7.4437256c2.6867676 3.8962402 3.7277832 8.691956 2.894043 13.332153l-52.234253 290.69507c-1.736206 9.66272 -10.965698 16.027405 -20.614624 14.215942l-519.8418 -97.59552l0 0c-9.648895 -1.8114624 -16.063354 -11.113159 -14.327057 -20.775879z" fill-rule="evenodd"/><path fill="#f0f2f5" d="m555.20593 427.12177l0 0c4.272461E-4 -0.002319336 0.0026245117 -0.0038452148 0.0049438477 -0.0033874512l503.1209 94.4606c0.0010986328 2.4414062E-4 0.0020751953 8.544922E-4 0.0026855469 0.0018310547c6.1035156E-4 9.1552734E-4 9.765625E-4 0.0020751953 7.324219E-4 0.0031738281l-47.969788 266.93823c-4.272461E-4 0.002319336 -0.0026245117 0.00390625 -0.0049438477 0.0034179688l-503.12088 -94.46063l0 0c-0.002319336 -4.272461E-4 -0.0038452148 -0.0026245117 -0.0034484863 -0.0049438477z" fill-rule="evenodd"/><path stroke="#b7b7b7" stroke-width="1.0" stroke-linejoin="round" stroke-linecap="butt" d="m555.20593 427.12177l0 0c4.272461E-4 -0.002319336 0.0026245117 -0.0038452148 0.0049438477 -0.0033874512l503.1209 94.4606c0.0010986328 2.4414062E-4 0.0020751953 8.544922E-4 0.0026855469 0.0018310547c6.1035156E-4 9.1552734E-4 9.765625E-4 0.0020751953 7.324219E-4 0.0031738281l-47.969788 266.93823c-4.272461E-4 0.002319336 -0.0026245117 0.00390625 -0.0049438477 0.0034179688l-503.12088 -94.46063l0 0c-0.002319336 -4.272461E-4 -0.0038452148 -0.0026245117 -0.0034484863 -0.0049438477z" fill-rule="evenodd"/><path fill="#ffffff" d="m572.0578 566.9405l0 0c1.4591675 -7.3738403 8.611206 -12.126526 15.974609 -10.615356l60.320984 12.379395c3.5360107 0.725708 6.6488647 2.828308 8.653687 5.845337c2.0048828 3.0170898 2.7375488 6.701355 2.0368652 10.242432l-10.567749 53.404602c-1.4591064 7.3738403 -8.611206 12.126526 -15.974548 10.615356l-60.320984 -12.379395c-7.3634033 -1.5111694 -12.149719 -8.713928 -10.690552 -16.087769z" fill-rule="evenodd"/><path fill="#6fa8dc" d="m584.4101 504.51743l0 0c1.4591064 -7.373871 8.611206 -12.126526 15.974548 -10.615356l60.321045 12.379395c3.5360107 0.7256775 6.6488037 2.8283386 8.653687 5.8453674c2.0048828 3.0170288 2.7375488 6.701355 2.0368652 10.242371l-10.567749 53.404602c-1.4591064 7.3739014 -8.611206 12.126526 -15.974548 10.6154175l-60.320984 -12.379456c-7.3634033 -1.5111084 -12.149719 -8.713867 -10.690613 -16.087708z" fill-rule="evenodd"/><path fill="#999999" d="m578.4594 587.1684l0 0c0.14849854 -0.7505493 0.8765259 -1.234375 1.6260376 -1.0805054l64.27533 13.190918c0.35992432 0.07385254 0.67681885 0.28790283 0.8809204 0.59503174c0.20404053 0.30706787 0.2786255 0.6821289 0.20727539 1.0425415l-1.0756836 5.436157c-0.14849854 0.75061035 -0.8765259 1.234375 -1.6260376 1.0805664l-64.27539 -13.190979c-0.7495117 -0.1538086 -1.2366943 -0.8869629 -1.0881958 -1.6375732z" fill-rule="evenodd"/><path fill="#999999" d="m574.3755 607.8065l0 0c0.14855957 -0.7505493 0.8765869 -1.234375 1.6260986 -1.0805054l64.27533 13.190918c0.35992432 0.07385254 0.67681885 0.28790283 0.8808594 0.59503174c0.20410156 0.30706787 0.27868652 0.6821289 0.20733643 1.0425415l-1.0756836 5.436157c-0.14855957 0.75061035 -0.8765259 1.234375 -1.6260986 1.0805664l-64.27533 -13.190979c-0.7495117 -0.1538086 -1.2366943 -0.8869629 -1.0881958 -1.6375732z" fill-rule="evenodd"/><path fill="#ffffff" d="m685.3762 586.3102l0 0c1.4591064 -7.3739014 8.611206 -12.126526 15.974548 -10.6154175l60.320984 12.379456c3.5360107 0.725647 6.6488647 2.828308 8.653748 5.845337c2.0048828 3.0170288 2.7375488 6.701355 2.0368652 10.242371l-10.567749 53.404602c-1.4591064 7.3739014 -8.611206 12.126526 -15.974548 10.6154175l-60.321045 -12.379456c-7.3633423 -1.5111084 -12.149658 -8.713867 -10.690552 -16.087708z" fill-rule="evenodd"/><path fill="#f6b26b" d="m697.7285 523.8871l0 0c1.4591064 -7.3738403 8.611206 -12.126526 15.974548 -10.615356l60.320984 12.379395c3.5360107 0.725708 6.6488647 2.828308 8.653748 5.845398c2.0048828 3.0170288 2.7375488 6.701294 2.0368042 10.242371l-10.567688 53.404602c-1.4591675 7.3738403 -8.611206 12.126526 -15.974609 10.615356l-60.320984 -12.379395c-7.3633423 -1.5111694 -12.149658 -8.713867 -10.690552 -16.087769z" fill-rule="evenodd"/><path fill="#999999" d="m691.7778 606.5381l0 0c0.14855957 -0.75061035 0.8765869 -1.234375 1.6260986 -1.0805664l64.27533 13.190979c0.35992432 0.07385254 0.67681885 0.28790283 0.8808594 0.5949707c0.20410156 0.3071289 0.27868652 0.68218994 0.20733643 1.0426025l-1.0756836 5.436157c-0.14855957 0.7505493 -0.8765259 1.234375 -1.6260986 1.0805054l-64.27533 -13.190918c-0.7495117 -0.1538086 -1.2367554 -0.8870239 -1.0881958 -1.6375732z" fill-rule="evenodd"/><path fill="#999999" d="m687.6939 627.1762l0 0c0.14849854 -0.75061035 0.8765259 -1.234375 1.6260986 -1.0805664l64.27533 13.190979c0.35992432 0.07385254 0.6767578 0.28790283 0.8808594 0.5949707c0.20410156 0.3071289 0.27868652 0.68218994 0.20733643 1.0426025l-1.0756836 5.436157c-0.14855957 0.7505493 -0.8765869 1.234375 -1.6260986 1.0805054l-64.27533 -13.190918c-0.7495117 -0.1538086 -1.2367554 -0.8870239 -1.0881958 -1.6375732z" fill-rule="evenodd"/><path fill="#ffffff" d="m796.99567 610.07275l0 0c1.4591064 -7.3739014 8.611206 -12.126526 15.974548 -10.6154175l60.321045 12.379456c3.5360107 0.725647 6.6488037 2.828308 8.653687 5.845337c2.0048828 3.0170288 2.7375488 6.701355 2.0368652 10.242371l-10.567749 53.404663c-1.4591064 7.3738403 -8.611206 12.126465 -15.974548 10.615356l-60.320984 -12.379456c-7.3634033 -1.5111084 -12.149719 -8.713867 -10.690613 -16.087708z" fill-rule="evenodd"/><path fill="#e06666" d="m809.34796 547.64966l0 0c1.4591064 -7.3738403 8.611206 -12.126526 15.974548 -10.615356l60.320984 12.379395c3.5360718 0.725708 6.6488647 2.8283691 8.653748 5.845398c2.0048828 3.0170288 2.7375488 6.701294 2.0368652 10.242371l-10.567749 53.404602c-1.4591064 7.3738403 -8.611206 12.126526 -15.974548 10.615356l-60.320984 -12.379395c-7.3634033 -1.5111694 -12.149719 -8.713867 -10.690613 -16.087769z" fill-rule="evenodd"/><path fill="#999999" d="m803.3972 630.30066l0 0c0.14855957 -0.75061035 0.8765869 -1.234375 1.6260986 -1.0805664l64.27533 13.190979c0.35992432 0.07385254 0.67681885 0.28790283 0.8808594 0.5949707c0.20410156 0.3071289 0.27868652 0.68218994 0.20733643 1.0426025l-1.0756836 5.436157c-0.14849854 0.7505493 -0.8765259 1.234375 -1.6260986 1.0805054l-64.27533 -13.190918c-0.7495117 -0.1538086 -1.2366943 -0.8870239 -1.0881958 -1.6375732z" fill-rule="evenodd"/><path fill="#999999" d="m799.31335 650.9388l0 0c0.14855957 -0.75061035 0.8765869 -1.234375 1.6260986 -1.0805664l64.27533 13.190979c0.35992432 0.07385254 0.67681885 0.28790283 0.8808594 0.5949707c0.20410156 0.3071289 0.27868652 0.68218994 0.20733643 1.0426025l-1.0756836 5.436157c-0.14855957 0.7505493 -0.8765259 1.234375 -1.6260986 1.0805054l-64.27533 -13.190918c-0.7495117 -0.1538086 -1.2367554 -0.8870239 -1.0881958 -1.6375732z" fill-rule="evenodd"/><path fill="#ffffff" d="m909.8784 630.5689l0 0c1.4591064 -7.3739014 8.611206 -12.126526 15.974548 -10.6154175l60.320984 12.379456c3.5360107 0.725647 6.6488647 2.828308 8.653748 5.845337c2.0048828 3.0170288 2.7375488 6.701355 2.0368042 10.242371l-10.567688 53.404663c-1.4591675 7.3738403 -8.611206 12.126526 -15.974548 10.615356l-60.321045 -12.379456c-7.3633423 -1.5111084 -12.149658 -8.713867 -10.690552 -16.087708z" fill-rule="evenodd"/><path fill="#c27ba0" d="m922.23065 568.1458l0 0c1.4591675 -7.3738403 8.611206 -12.126526 15.974609 -10.615356l60.320984 12.379395c3.5360107 0.725708 6.6488647 2.8283691 8.653748 5.845398c2.0048828 3.0170288 2.7375488 6.701294 2.0368042 10.242371l-10.567688 53.404602c-1.4591675 7.3739014 -8.611206 12.126526 -15.974609 10.615356l-60.320984 -12.379395c-7.3633423 -1.5111694 -12.149719 -8.713867 -10.690552 -16.087708z" fill-rule="evenodd"/><path fill="#999999" d="m916.27997 650.7968l0 0c0.14855957 -0.75061035 0.8765259 -1.234375 1.6260986 -1.0805664l64.27533 13.190979c0.35992432 0.07385254 0.6767578 0.28790283 0.8808594 0.59503174c0.20410156 0.30706787 0.27868652 0.6821289 0.20733643 1.0425415l-1.0756836 5.436157c-0.14855957 0.7505493 -0.8765869 1.234375 -1.6260986 1.0805054l-64.27533 -13.190918c-0.7495117 -0.1538086 -1.2367554 -0.8870239 -1.0881958 -1.6375732z" fill-rule="evenodd"/><path fill="#999999" d="m912.1961 671.43494l0 0c0.14849854 -0.75061035 0.8765259 -1.234375 1.6260376 -1.0805664l64.27539 13.190979c0.35992432 0.07385254 0.6767578 0.28790283 0.8808594 0.59503174c0.20410156 0.30706787 0.2786255 0.6821289 0.20733643 1.0425415l-1.0756836 5.436157c-0.14855957 0.7505493 -0.8765869 1.234375 -1.6260986 1.0805054l-64.27533 -13.190918c-0.7495117 -0.1538086 -1.2367554 -0.8870239 -1.0881958 -1.6375732z" fill-rule="evenodd"/></g></svg>