<svg version="1.1" viewBox="0.0 0.0 1374.724409448819 872.8923884514436" fill="none" stroke="none" stroke-linecap="square" stroke-miterlimit="10" xmlns:xlink="http://www.w3.org/1999/xlink" xmlns="http://www.w3.org/2000/svg"><clipPath id="p.0"><path d="m0 0l1374.7244 0l0 872.8924l-1374.7244 0l0 -872.8924z" clip-rule="nonzero"/></clipPath><g clip-path="url(#p.0)"><path fill="#000000" fill-opacity="0.0" d="m0 0l1374.7244 0l0 872.8924l-1374.7244 0z" fill-rule="evenodd"/><path fill="#ffffff" d="m690.9315 375.36725l0 0c-1.0518188 -11.394318 7.3303223 -21.506226 18.722107 -22.58554l608.9919 -57.700073c5.470459 -0.51831055 10.917603 1.1582642 15.143066 4.660858c4.225342 3.502594 6.8829346 8.544342 7.3880615 14.016083l31.64331 342.78885c1.0517578 11.394348 -7.3304443 21.506226 -18.722168 22.585571l-608.9919 57.700073l0 0c-11.391724 1.0793457 -21.479248 -7.282654 -22.531067 -18.67694z" fill-rule="evenodd"/><path stroke="#999999" stroke-width="1.0" stroke-linejoin="round" stroke-linecap="butt" d="m690.9315 375.36725l0 0c-1.0518188 -11.394318 7.3303223 -21.506226 18.722107 -22.58554l608.9919 -57.700073c5.470459 -0.51831055 10.917603 1.1582642 15.143066 4.660858c4.225342 3.502594 6.8829346 8.544342 7.3880615 14.016083l31.64331 342.78885c1.0517578 11.394348 -7.3304443 21.506226 -18.722168 22.585571l-608.9919 57.700073l0 0c-11.391724 1.0793457 -21.479248 -7.282654 -22.531067 -18.67694z" fill-rule="evenodd"/><path fill="#f0f2f5" d="m723.0874 392.90268l0 0c-2.4414062E-4 -0.0027160645 0.0017089844 -0.005126953 0.0044555664 -0.0053710938l589.69415 -55.86673c0.0013427734 -1.2207031E-4 0.0026855469 2.746582E-4 0.0036621094 0.0011291504c9.765625E-4 8.239746E-4 0.0015869141 0.0020141602 0.0017089844 0.003326416l29.05249 314.77618c2.4414062E-4 0.0026855469 -0.0017089844 0.005126953 -0.0045166016 0.0053710938l-589.69415 55.8667l0 0c-0.0026855469 2.4414062E-4 -0.005126953 -0.0017089844 -0.0053710938 -0.0044555664z" fill-rule="evenodd"/><path stroke="#b7b7b7" stroke-width="1.0" stroke-linejoin="round" stroke-linecap="butt" d="m723.0874 392.90268l0 0c-2.4414062E-4 -0.0027160645 0.0017089844 -0.005126953 0.0044555664 -0.0053710938l589.69415 -55.86673c0.0013427734 -1.2207031E-4 0.0026855469 2.746582E-4 0.0036621094 0.0011291504c9.765625E-4 8.239746E-4 0.0015869141 0.0020141602 0.0017089844 0.003326416l29.05249 314.77618c2.4414062E-4 0.0026855469 -0.0017089844 0.005126953 -0.0045166016 0.0053710938l-589.69415 55.8667l0 0c-0.0026855469 2.4414062E-4 -0.005126953 -0.0017089844 -0.0053710938 -0.0044555664z" fill-rule="evenodd"/><path fill="#ffffff" d="m746.21985 455.11606l0 0c-1.4701538 -15.925842 10.245605 -30.059235 26.167847 -31.56781l115.315674 -10.925781l0 0c7.646118 -0.7244568 15.2595215 1.618866 21.165344 6.5144653c5.905884 4.895569 9.620361 11.942413 10.326294 19.590271l18.215576 197.327c1.4700928 15.925842 -10.2456665 30.059204 -26.167908 31.56781l-115.31561 10.925781c-15.922241 1.508606 -30.021545 -10.178894 -31.4917 -26.104736z" fill-rule="evenodd"/><path fill="#999999" d="m765.5389 516.44116l0 0c-0.29205322 -3.163269 2.0350342 -5.9705505 5.197632 -6.2702026l134.4433 -12.738068c1.5187378 -0.14389038 3.0309448 0.3215332 4.2039795 1.2939453c1.1730347 0.9723816 1.9108276 2.3720703 2.0510864 3.8911438l0 0l0 0c0.2919922 3.163269 -2.0350342 5.97052 -5.197632 6.270172l-134.4433 12.738068c-3.1625977 0.29968262 -5.9630737 -2.0217896 -6.255066 -5.1850586z" fill-rule="evenodd"/><path stroke="#b7b7b7" stroke-width="1.0" stroke-linejoin="round" stroke-linecap="butt" d="m765.5389 516.44116l0 0c-0.29205322 -3.163269 2.0350342 -5.9705505 5.197632 -6.2702026l134.4433 -12.738068c1.5187378 -0.14389038 3.0309448 0.3215332 4.2039795 1.2939453c1.1730347 0.9723816 1.9108276 2.3720703 2.0510864 3.8911438l0 0l0 0c0.2919922 3.163269 -2.0350342 5.97052 -5.197632 6.270172l-134.4433 12.738068c-3.1625977 0.29968262 -5.9630737 -2.0217896 -6.255066 -5.1850586z" fill-rule="evenodd"/><path fill="#999999" d="m768.16364 544.87524l0 0c-0.2919922 -3.16333 2.0350342 -5.970581 5.197632 -6.2702026l134.4433 -12.738098c1.5187378 -0.14385986 3.0309448 0.3215332 4.2040405 1.2939453c1.1730347 0.9724121 1.9108276 2.3720703 2.0510254 3.8911133l0 0l0 0c0.29205322 3.16333 -2.0350342 5.970581 -5.197571 6.2702026l-134.44336 12.738098c-3.1625366 0.29962158 -5.9630737 -2.0217896 -6.255066 -5.1850586z" fill-rule="evenodd"/><path stroke="#b7b7b7" stroke-width="1.0" stroke-linejoin="round" stroke-linecap="butt" d="m768.16364 544.87524l0 0c-0.2919922 -3.16333 2.0350342 -5.970581 5.197632 -6.2702026l134.4433 -12.738098c1.5187378 -0.14385986 3.0309448 0.3215332 4.2040405 1.2939453c1.1730347 0.9724121 1.9108276 2.3720703 2.0510254 3.8911133l0 0l0 0c0.29205322 3.16333 -2.0350342 5.970581 -5.197571 6.2702026l-134.44336 12.738098c-3.1625366 0.29962158 -5.9630737 -2.0217896 -6.255066 -5.1850586z" fill-rule="evenodd"/><path fill="#999999" d="m770.78845 573.30927l0 0c-0.2919922 -3.163269 2.0350342 -5.97052 5.197632 -6.2702026l134.4433 -12.738037c1.5187378 -0.1439209 3.0309448 0.3215332 4.2039795 1.2939453c1.1730347 0.9723511 1.9108276 2.3720703 2.0510864 3.8911133l0 0l0 0c0.2919922 3.163269 -2.0350342 5.970581 -5.197632 6.2702026l-134.4433 12.738098c-3.1625977 0.29962158 -5.9630737 -2.0217896 -6.255066 -5.1851196z" fill-rule="evenodd"/><path stroke="#b7b7b7" stroke-width="1.0" stroke-linejoin="round" stroke-linecap="butt" d="m770.78845 573.30927l0 0c-0.2919922 -3.163269 2.0350342 -5.97052 5.197632 -6.2702026l134.4433 -12.738037c1.5187378 -0.1439209 3.0309448 0.3215332 4.2039795 1.2939453c1.1730347 0.9723511 1.9108276 2.3720703 2.0510864 3.8911133l0 0l0 0c0.2919922 3.163269 -2.0350342 5.970581 -5.197632 6.2702026l-134.4433 12.738098c-3.1625977 0.29962158 -5.9630737 -2.0217896 -6.255066 -5.1851196z" fill-rule="evenodd"/><path fill="#999999" d="m773.4132 601.74335l0 0c-0.2919922 -3.163269 2.0350342 -5.97052 5.197632 -6.2702026l134.4433 -12.738098c1.5187378 -0.14385986 3.0309448 0.32159424 4.2040405 1.2939453c1.1730347 0.9724121 1.9108276 2.3721313 2.0510254 3.8911743l0 0l0 0c0.29205322 3.163269 -2.0350342 5.97052 -5.197571 6.2702026l-134.44336 12.738037c-3.1625366 0.29968262 -5.9630127 -2.0217896 -6.255066 -5.1850586z" fill-rule="evenodd"/><path stroke="#b7b7b7" stroke-width="1.0" stroke-linejoin="round" stroke-linecap="butt" d="m773.4132 601.74335l0 0c-0.2919922 -3.163269 2.0350342 -5.97052 5.197632 -6.2702026l134.4433 -12.738098c1.5187378 -0.14385986 3.0309448 0.32159424 4.2040405 1.2939453c1.1730347 0.9724121 1.9108276 2.3721313 2.0510254 3.8911743l0 0l0 0c0.29205322 3.163269 -2.0350342 5.97052 -5.197571 6.2702026l-134.44336 12.738037c-3.1625366 0.29968262 -5.9630127 -2.0217896 -6.255066 -5.1850586z" fill-rule="evenodd"/><path fill="#999999" d="m776.038 630.1774l0 0c-0.2919922 -3.16333 2.0350342 -5.970581 5.197632 -6.2702026l134.4433 -12.738098c1.5187378 -0.14385986 3.0309448 0.32159424 4.2039795 1.2939453c1.1730347 0.9724121 1.9108276 2.3720703 2.0510864 3.8911743l0 0l0 0c0.2919922 3.163269 -2.0350342 5.97052 -5.197632 6.2701416l-134.4433 12.738098c-3.1625977 0.29962158 -5.9630737 -2.0217896 -6.255066 -5.1850586z" fill-rule="evenodd"/><path stroke="#b7b7b7" stroke-width="1.0" stroke-linejoin="round" stroke-linecap="butt" d="m776.038 630.1774l0 0c-0.2919922 -3.16333 2.0350342 -5.970581 5.197632 -6.2702026l134.4433 -12.738098c1.5187378 -0.14385986 3.0309448 0.32159424 4.2039795 1.2939453c1.1730347 0.9724121 1.9108276 2.3720703 2.0510864 3.8911743l0 0l0 0c0.2919922 3.163269 -2.0350342 5.97052 -5.197632 6.2701416l-134.4433 12.738098c-3.1625977 0.29962158 -5.9630737 -2.0217896 -6.255066 -5.1850586z" fill-rule="evenodd"/><path fill="#1472ff" d="m759.7512 453.74417l0 0c-0.19451904 -2.1072083 1.3556519 -3.977234 3.4623413 -4.1768494l138.2669 -13.100342c1.0116577 -0.09585571 2.019043 0.21420288 2.800476 0.8619385c0.7813721 0.6477661 1.2728882 1.5801392 1.366272 2.5920715l1.5430908 16.716187c0.19451904 2.1072083 -1.3555908 3.9772644 -3.4623413 4.1768494l-138.2669 13.100342c-2.1066895 0.19961548 -3.972229 -1.3468018 -4.166748 -3.45401z" fill-rule="evenodd"/><path fill="#ffffff" d="m937.34296 437.0085l0 0c-1.4700928 -15.925842 10.245605 -30.059235 26.167847 -31.56781l115.31561 -10.925781l0 0c7.64624 -0.7244568 15.259644 1.618866 21.165405 6.5144653c5.905884 4.8955994 9.620361 11.942413 10.326294 19.590271l18.215576 197.327c1.4700928 15.925842 -10.245605 30.059204 -26.167847 31.56781l-115.315674 10.925781c-15.922241 1.508606 -30.021545 -10.178894 -31.4917 -26.104736z" fill-rule="evenodd"/><path fill="#999999" d="m956.662 498.33362l0 0c-0.2919922 -3.1632996 2.0350342 -5.9705505 5.197632 -6.2702026l134.44336 -12.738068c1.5186768 -0.14389038 3.0308838 0.3215332 4.2039795 1.2939453c1.1729736 0.9723816 1.9107666 2.3720703 2.0510254 3.8911438l0 0l0 0c0.2919922 3.163269 -2.0350342 5.9705505 -5.197632 6.270172l-134.4433 12.738098c-3.1625977 0.29962158 -5.9630737 -2.02182 -6.255066 -5.185089z" fill-rule="evenodd"/><path stroke="#b7b7b7" stroke-width="1.0" stroke-linejoin="round" stroke-linecap="butt" d="m956.662 498.33362l0 0c-0.2919922 -3.1632996 2.0350342 -5.9705505 5.197632 -6.2702026l134.44336 -12.738068c1.5186768 -0.14389038 3.0308838 0.3215332 4.2039795 1.2939453c1.1729736 0.9723816 1.9107666 2.3720703 2.0510254 3.8911438l0 0l0 0c0.2919922 3.163269 -2.0350342 5.9705505 -5.197632 6.270172l-134.4433 12.738098c-3.1625977 0.29962158 -5.9630737 -2.02182 -6.255066 -5.185089z" fill-rule="evenodd"/><path fill="#999999" d="m959.28674 526.7677l0 0c-0.2919922 -3.16333 2.0350952 -5.970581 5.197632 -6.2702026l134.44336 -12.738098c1.5186768 -0.14389038 3.0308838 0.32156372 4.2039795 1.2939453c1.1730957 0.9724121 1.9108887 2.3720703 2.0510254 3.8911743l0 0l0 0c0.2919922 3.163269 -2.0350342 5.97052 -5.197632 6.2701416l-134.44324 12.738098c-3.1625977 0.29962158 -5.9630737 -2.0217896 -6.255127 -5.1850586z" fill-rule="evenodd"/><path stroke="#b7b7b7" stroke-width="1.0" stroke-linejoin="round" stroke-linecap="butt" d="m959.28674 526.7677l0 0c-0.2919922 -3.16333 2.0350952 -5.970581 5.197632 -6.2702026l134.44336 -12.738098c1.5186768 -0.14389038 3.0308838 0.32156372 4.2039795 1.2939453c1.1730957 0.9724121 1.9108887 2.3720703 2.0510254 3.8911743l0 0l0 0c0.2919922 3.163269 -2.0350342 5.97052 -5.197632 6.2701416l-134.44324 12.738098c-3.1625977 0.29962158 -5.9630737 -2.0217896 -6.255127 -5.1850586z" fill-rule="evenodd"/><path fill="#999999" d="m961.91156 555.2017l0 0c-0.2919922 -3.163269 2.0350342 -5.97052 5.197632 -6.2701416l134.4433 -12.738098c1.5186768 -0.1439209 3.0310059 0.3215332 4.2039795 1.2939453c1.1730957 0.9724121 1.9108887 2.3720703 2.0511475 3.8911133l0 0l0 0c0.2919922 3.16333 -2.0351562 5.970581 -5.197632 6.2702026l-134.44336 12.738098c-3.1625977 0.29962158 -5.9630737 -2.0217896 -6.255066 -5.1851196z" fill-rule="evenodd"/><path stroke="#b7b7b7" stroke-width="1.0" stroke-linejoin="round" stroke-linecap="butt" d="m961.91156 555.2017l0 0c-0.2919922 -3.163269 2.0350342 -5.97052 5.197632 -6.2701416l134.4433 -12.738098c1.5186768 -0.1439209 3.0310059 0.3215332 4.2039795 1.2939453c1.1730957 0.9724121 1.9108887 2.3720703 2.0511475 3.8911133l0 0l0 0c0.2919922 3.16333 -2.0351562 5.970581 -5.197632 6.2702026l-134.44336 12.738098c-3.1625977 0.29962158 -5.9630737 -2.0217896 -6.255066 -5.1851196z" fill-rule="evenodd"/><path fill="#999999" d="m964.5363 583.6358l0 0c-0.2919922 -3.163269 2.0350952 -5.97052 5.197632 -6.2702026l134.4433 -12.738037c1.5187988 -0.1439209 3.0310059 0.3215332 4.2039795 1.2939453c1.1730957 0.9723511 1.9108887 2.3720703 2.0511475 3.8911133l0 0l0 0c0.2919922 3.163269 -2.0350342 5.97052 -5.197632 6.2702026l-134.4433 12.738037c-3.1625977 0.29968262 -5.9630737 -2.0217896 -6.255127 -5.1850586z" fill-rule="evenodd"/><path stroke="#b7b7b7" stroke-width="1.0" stroke-linejoin="round" stroke-linecap="butt" d="m964.5363 583.6358l0 0c-0.2919922 -3.163269 2.0350952 -5.97052 5.197632 -6.2702026l134.4433 -12.738037c1.5187988 -0.1439209 3.0310059 0.3215332 4.2039795 1.2939453c1.1730957 0.9723511 1.9108887 2.3720703 2.0511475 3.8911133l0 0l0 0c0.2919922 3.163269 -2.0350342 5.97052 -5.197632 6.2702026l-134.4433 12.738037c-3.1625977 0.29968262 -5.9630737 -2.0217896 -6.255127 -5.1850586z" fill-rule="evenodd"/><path fill="#999999" d="m967.16113 612.0699l0 0c-0.2919922 -3.163269 2.0350342 -5.970581 5.197632 -6.2702026l134.44336 -12.738098c1.5186768 -0.14385986 3.0308838 0.32159424 4.2039795 1.2939453c1.1729736 0.9724121 1.9107666 2.3720703 2.0510254 3.8911743l0 0l0 0c0.2919922 3.163269 -2.0350342 5.97052 -5.197632 6.2702026l-134.4433 12.738037c-3.1625977 0.29968262 -5.9630737 -2.0217896 -6.255066 -5.1850586z" fill-rule="evenodd"/><path stroke="#b7b7b7" stroke-width="1.0" stroke-linejoin="round" stroke-linecap="butt" d="m967.16113 612.0699l0 0c-0.2919922 -3.163269 2.0350342 -5.970581 5.197632 -6.2702026l134.44336 -12.738098c1.5186768 -0.14385986 3.0308838 0.32159424 4.2039795 1.2939453c1.1729736 0.9724121 1.9107666 2.3720703 2.0510254 3.8911743l0 0l0 0c0.2919922 3.163269 -2.0350342 5.97052 -5.197632 6.2702026l-134.4433 12.738037c-3.1625977 0.29968262 -5.9630737 -2.0217896 -6.255066 -5.1850586z" fill-rule="evenodd"/><path fill="#1472ff" d="m950.8743 435.63663l0 0c-0.19451904 -2.1072083 1.3556519 -3.977234 3.4624023 -4.1768494l138.26678 -13.100342c1.0117188 -0.09585571 2.019043 0.21420288 2.800537 0.8619385c0.7813721 0.6477661 1.2728271 1.5801392 1.366333 2.5920715l1.5430908 16.716187c0.19445801 2.1072083 -1.3557129 3.9772644 -3.4624023 4.1768494l-138.26685 13.100372c-2.1067505 0.19958496 -3.97229 -1.3468323 -4.166809 -3.45401z" fill-rule="evenodd"/><path fill="#ffffff" d="m1122.4495 419.47028l0 0c-1.4702148 -15.925842 10.245605 -30.059235 26.167847 -31.56781l115.31555 -10.925812l0 0c7.64624 -0.72442627 15.259644 1.6188965 21.165405 6.5144653c5.905884 4.8955994 9.620361 11.942444 10.326294 19.590302l18.215576 197.32697c1.4700928 15.925842 -10.245605 30.059265 -26.167847 31.56781l-115.315674 10.925842c-15.922241 1.5085449 -30.021484 -10.178955 -31.4917 -26.104797z" fill-rule="evenodd"/><path fill="#999999" d="m1141.7684 480.79535l0 0c-0.2919922 -3.163269 2.0350342 -5.97052 5.197632 -6.270172l134.44336 -12.738098c1.5186768 -0.14389038 3.0308838 0.32156372 4.2039795 1.2939453c1.1729736 0.9724121 1.9107666 2.3721008 2.0510254 3.8911438l0 0l0 0c0.2919922 3.1632996 -2.0350342 5.9705505 -5.197632 6.2702026l-134.44324 12.738068c-3.1625977 0.2996521 -5.963135 -2.0217896 -6.255127 -5.185089z" fill-rule="evenodd"/><path stroke="#b7b7b7" stroke-width="1.0" stroke-linejoin="round" stroke-linecap="butt" d="m1141.7684 480.79535l0 0c-0.2919922 -3.163269 2.0350342 -5.97052 5.197632 -6.270172l134.44336 -12.738098c1.5186768 -0.14389038 3.0308838 0.32156372 4.2039795 1.2939453c1.1729736 0.9724121 1.9107666 2.3721008 2.0510254 3.8911438l0 0l0 0c0.2919922 3.1632996 -2.0350342 5.9705505 -5.197632 6.2702026l-134.44324 12.738068c-3.1625977 0.2996521 -5.963135 -2.0217896 -6.255127 -5.185089z" fill-rule="evenodd"/><path fill="#999999" d="m1144.3932 509.22943l0 0c-0.2919922 -3.1632996 2.0350342 -5.9705505 5.197632 -6.2702026l134.44336 -12.738068c1.5186768 -0.14389038 3.0308838 0.3215332 4.2039795 1.2939453c1.1730957 0.9723816 1.9108887 2.3720703 2.0510254 3.8911438l0 0l0 0c0.2919922 3.163269 -2.0350342 5.9705505 -5.197632 6.270172l-134.44324 12.738068c-3.1625977 0.29968262 -5.963135 -2.0217896 -6.255127 -5.1850586z" fill-rule="evenodd"/><path stroke="#b7b7b7" stroke-width="1.0" stroke-linejoin="round" stroke-linecap="butt" d="m1144.3932 509.22943l0 0c-0.2919922 -3.1632996 2.0350342 -5.9705505 5.197632 -6.2702026l134.44336 -12.738068c1.5186768 -0.14389038 3.0308838 0.3215332 4.2039795 1.2939453c1.1730957 0.9723816 1.9108887 2.3720703 2.0510254 3.8911438l0 0l0 0c0.2919922 3.163269 -2.0350342 5.9705505 -5.197632 6.270172l-134.44324 12.738068c-3.1625977 0.29968262 -5.963135 -2.0217896 -6.255127 -5.1850586z" fill-rule="evenodd"/><path fill="#999999" d="m1147.018 537.6635l0 0c-0.2919922 -3.16333 2.0351562 -5.970581 5.197632 -6.2702026l134.44336 -12.738098c1.5186768 -0.14385986 3.0310059 0.3215332 4.2039795 1.2939453c1.1730957 0.9724121 1.9108887 2.3720703 2.0511475 3.8911743l0 0l0 0c0.2919922 3.163269 -2.0351562 5.97052 -5.197632 6.2701416l-134.44336 12.738098c-3.1625977 0.29962158 -5.9630127 -2.0217896 -6.255127 -5.1850586z" fill-rule="evenodd"/><path stroke="#b7b7b7" stroke-width="1.0" stroke-linejoin="round" stroke-linecap="butt" d="m1147.018 537.6635l0 0c-0.2919922 -3.16333 2.0351562 -5.970581 5.197632 -6.2702026l134.44336 -12.738098c1.5186768 -0.14385986 3.0310059 0.3215332 4.2039795 1.2939453c1.1730957 0.9724121 1.9108887 2.3720703 2.0511475 3.8911743l0 0l0 0c0.2919922 3.163269 -2.0351562 5.97052 -5.197632 6.2701416l-134.44336 12.738098c-3.1625977 0.29962158 -5.9630127 -2.0217896 -6.255127 -5.1850586z" fill-rule="evenodd"/><path fill="#999999" d="m1149.6428 566.09753l0 0c-0.2919922 -3.163269 2.0350342 -5.97052 5.197632 -6.2701416l134.44324 -12.738098c1.5187988 -0.1439209 3.0310059 0.3215332 4.2039795 1.2939453c1.1730957 0.9724121 1.9108887 2.3720703 2.0511475 3.8911133l0 0l0 0c0.2919922 3.16333 -2.0350342 5.970581 -5.197632 6.2702026l-134.44336 12.738098c-3.1625977 0.29962158 -5.9630127 -2.0217896 -6.255005 -5.1851196z" fill-rule="evenodd"/><path stroke="#b7b7b7" stroke-width="1.0" stroke-linejoin="round" stroke-linecap="butt" d="m1149.6428 566.09753l0 0c-0.2919922 -3.163269 2.0350342 -5.97052 5.197632 -6.2701416l134.44324 -12.738098c1.5187988 -0.1439209 3.0310059 0.3215332 4.2039795 1.2939453c1.1730957 0.9724121 1.9108887 2.3720703 2.0511475 3.8911133l0 0l0 0c0.2919922 3.16333 -2.0350342 5.970581 -5.197632 6.2702026l-134.44336 12.738098c-3.1625977 0.29962158 -5.9630127 -2.0217896 -6.255005 -5.1851196z" fill-rule="evenodd"/><path fill="#999999" d="m1152.2676 594.5316l0 0c-0.2919922 -3.163269 2.0350342 -5.97052 5.197632 -6.2702026l134.44336 -12.738037c1.5186768 -0.1439209 3.0308838 0.3215332 4.2039795 1.2939453c1.1729736 0.9723511 1.9107666 2.3720703 2.0510254 3.8911133l0 0l0 0c0.2919922 3.163269 -2.0350342 5.97052 -5.197632 6.2702026l-134.44324 12.738098c-3.1625977 0.29962158 -5.963135 -2.0218506 -6.255127 -5.1851196z" fill-rule="evenodd"/><path stroke="#b7b7b7" stroke-width="1.0" stroke-linejoin="round" stroke-linecap="butt" d="m1152.2676 594.5316l0 0c-0.2919922 -3.163269 2.0350342 -5.97052 5.197632 -6.2702026l134.44336 -12.738037c1.5186768 -0.1439209 3.0308838 0.3215332 4.2039795 1.2939453c1.1729736 0.9723511 1.9107666 2.3720703 2.0510254 3.8911133l0 0l0 0c0.2919922 3.163269 -2.0350342 5.97052 -5.197632 6.2702026l-134.44324 12.738098c-3.1625977 0.29962158 -5.963135 -2.0218506 -6.255127 -5.1851196z" fill-rule="evenodd"/><path fill="#1472ff" d="m1135.9808 418.0984l0 0c-0.19458008 -2.1072083 1.3555908 -3.9772644 3.4622803 -4.1768494l138.26685 -13.100372c1.0117188 -0.09585571 2.019043 0.21420288 2.800537 0.861969c0.7813721 0.6477356 1.2728271 1.5801392 1.366333 2.592041l1.5430908 16.716217c0.19445801 2.1072083 -1.3557129 3.977234 -3.4624023 4.1768494l-138.26685 13.100342c-2.1066895 0.19961548 -3.97229 -1.3468018 -4.166748 -3.45401z" fill-rule="evenodd"/><path fill="#ffffff" d="m71.74195 163.53082l0 0c0.8763046 -11.888855 11.236015 -20.99495 23.139061 -20.339035l596.9935 32.89717c5.7160034 0.31498718 11.030762 2.8850555 14.775085 7.144806c3.7442627 4.2597656 5.611389 9.860275 5.1905518 15.569504l-26.362854 357.6665c-0.8763428 11.888855 -11.236023 20.994934 -23.1391 20.33905l-596.9935 -32.897217l0 0c-11.903046 -0.6558838 -20.841984 -10.825439 -19.96568 -22.714294z" fill-rule="evenodd"/><path stroke="#999999" stroke-width="1.0" stroke-linejoin="round" stroke-linecap="butt" d="m71.74195 163.53082l0 0c0.8763046 -11.888855 11.236015 -20.99495 23.139061 -20.339035l596.9935 32.89717c5.7160034 0.31498718 11.030762 2.8850555 14.775085 7.144806c3.7442627 4.2597656 5.611389 9.860275 5.1905518 15.569504l-26.362854 357.6665c-0.8763428 11.888855 -11.236023 20.994934 -23.1391 20.33905l-596.9935 -32.897217l0 0c-11.903046 -0.6558838 -20.841984 -10.825439 -19.96568 -22.714294z" fill-rule="evenodd"/><path fill="#f0f2f5" d="m99.972755 186.46214l0 0c1.9836426E-4 -0.002670288 0.0025253296 -0.004714966 0.0051956177 -0.0045776367l580.49146 31.992691c0.0012817383 7.6293945E-5 0.0025024414 6.5612793E-4 0.0033569336 0.0016021729c7.9345703E-4 9.613037E-4 0.0012207031 0.0022125244 0.001159668 0.0034942627l-24.213379 328.43753c-1.8310547E-4 0.0026855469 -0.0025024414 0.004699707 -0.0051879883 0.0045776367l-580.49146 -31.992676l0 0c-0.002670288 -1.8310547E-4 -0.004676819 -0.0024414062 -0.004486084 -0.005126953z" fill-rule="evenodd"/><path stroke="#b7b7b7" stroke-width="1.0" stroke-linejoin="round" stroke-linecap="butt" d="m99.972755 186.46214l0 0c1.9836426E-4 -0.002670288 0.0025253296 -0.004714966 0.0051956177 -0.0045776367l580.49146 31.992691c0.0012817383 7.6293945E-5 0.0025024414 6.5612793E-4 0.0033569336 0.0016021729c7.9345703E-4 9.613037E-4 0.0012207031 0.0022125244 0.001159668 0.0034942627l-24.213379 328.43753c-1.8310547E-4 0.0026855469 -0.0025024414 0.004699707 -0.0051879883 0.0045776367l-580.49146 -31.992676l0 0c-0.002670288 -1.8310547E-4 -0.004676819 -0.0024414062 -0.004486084 -0.005126953z" fill-rule="evenodd"/><path fill="#ffffff" d="m134.83414 351.69482l0 0c0.8206787 -9.094391 8.868637 -15.926575 17.975647 -15.260101l67.555115 4.9440002l0 0c4.373337 0.32006836 8.411011 2.361908 11.224747 5.676361c2.8137512 3.3144531 4.1730957 7.630005 3.7789917 11.997284l-5.943634 65.86554c-0.82066345 9.094391 -8.868637 15.926575 -17.975632 15.260071l-67.55513 -4.9439697l0 0c-9.106995 -0.6664734 -15.824402 -8.579254 -15.003738 -17.673676z" fill-rule="evenodd"/><path fill="#6fa8dc" d="m141.78148 274.70657l0 0c0.82066345 -9.094391 8.868637 -15.926575 17.975632 -15.260071l67.55513 4.9439697l0 0c4.373337 0.32006836 8.4109955 2.361908 11.224747 5.676361c2.813736 3.3144531 4.1730804 7.6300354 3.7789917 11.997314l-5.943634 65.86551c-0.8206787 9.094421 -8.868637 15.926575 -17.975647 15.260101l-67.555115 -4.9440002l0 0c-9.10701 -0.6664734 -15.824402 -8.579254 -15.003738 -17.673645z" fill-rule="evenodd"/><path fill="#999999" d="m144.36678 374.95755l0 0c0.08352661 -0.9257202 0.9027405 -1.6211853 1.8297577 -1.5533447l74.06645 5.420532c0.4451599 0.032562256 0.8561554 0.24041748 1.1425781 0.5777893c0.28640747 0.33740234 0.42477417 0.77667236 0.3846588 1.2212219l-0.6049957 6.704529c-0.08354187 0.92575073 -0.90275574 1.6211853 -1.829773 1.5533447l-74.06644 -5.4205017l0 0c-0.9270172 -0.067840576 -1.6107941 -0.873291 -1.5272522 -1.7990112z" fill-rule="evenodd"/><path fill="#999999" d="m142.06987 400.4112l0 0c0.08352661 -0.92575073 0.9027405 -1.6211853 1.8297577 -1.5533447l74.06645 5.4205017c0.4451599 0.032562256 0.8561554 0.24041748 1.1425781 0.5777893c0.28640747 0.33740234 0.42477417 0.77667236 0.3846588 1.2212219l-0.605011 6.7045593c-0.08352661 0.9257202 -0.9027405 1.6211853 -1.8297577 1.5533447l-74.06645 -5.420532l0 0c-0.92700195 -0.067840576 -1.6107788 -0.873291 -1.5272369 -1.7990112z" fill-rule="evenodd"/><path fill="#ffffff" d="m265.36377 356.61124l0 0c0.8206787 -9.094391 8.868652 -15.926575 17.975647 -15.260071l67.555115 4.9439697l0 0c4.373352 0.32006836 8.411011 2.361908 11.224762 5.676361c2.8137207 3.3144531 4.173065 7.6300354 3.7789612 11.997314l-5.943634 65.86551c-0.8206482 9.094421 -8.868622 15.926575 -17.975616 15.260101l-67.555145 -4.9440002l0 0c-9.106995 -0.6664734 -15.824371 -8.579254 -15.003723 -17.673645z" fill-rule="evenodd"/><path fill="#f6b26b" d="m272.3111 279.62302l0 0c0.8206787 -9.094421 8.868652 -15.926575 17.975647 -15.260101l67.555115 4.9440002l0 0c4.373352 0.32003784 8.411011 2.361908 11.224762 5.676361c2.8137512 3.3144531 4.1730957 7.630005 3.7789917 11.997284l-5.943634 65.86554c-0.8206787 9.094391 -8.868652 15.926575 -17.975647 15.260071l-67.555115 -4.9439697l0 0c-9.106995 -0.6665039 -15.824402 -8.579254 -15.003754 -17.673676z" fill-rule="evenodd"/><path fill="#999999" d="m274.8964 379.874l0 0c0.08355713 -0.92575073 0.902771 -1.6211853 1.829773 -1.5533447l74.06644 5.4205017c0.44519043 0.032592773 0.85617065 0.24041748 1.1425781 0.5778198c0.286438 0.33737183 0.4248047 0.77664185 0.38467407 1.2211914l-0.605011 6.7045593c-0.08352661 0.9257202 -0.9027405 1.6211853 -1.8297424 1.5533447l-74.06647 -5.420532l0 0c-0.92700195 -0.067840576 -1.6107788 -0.873291 -1.5272522 -1.7990112z" fill-rule="evenodd"/><path fill="#999999" d="m272.5995 405.3276l0 0c0.08355713 -0.9257202 0.902771 -1.6211853 1.829773 -1.5533447l74.06644 5.4205017c0.4451599 0.032592773 0.85617065 0.24041748 1.1425781 0.5778198c0.286438 0.33737183 0.4248047 0.77667236 0.38467407 1.2212219l-0.605011 6.704529c-0.08352661 0.9257202 -0.9027405 1.6211853 -1.829773 1.5533447l-74.06644 -5.4205017l0 0c-0.92700195 -0.067840576 -1.6107788 -0.873291 -1.5272522 -1.7990417z" fill-rule="evenodd"/><path fill="#ffffff" d="m394.4648 367.07996l0 0c0.8206787 -9.094421 8.868622 -15.926605 17.975647 -15.260101l67.555115 4.9439697l0 0c4.3733215 0.32006836 8.411011 2.3619385 11.224731 5.6763916c2.8137512 3.3144531 4.1730957 7.630005 3.7789917 11.997284l-5.943634 65.86554c-0.8206482 9.094391 -8.868622 15.926575 -17.975616 15.260071l-67.555145 -4.9439697l0 0c-9.106995 -0.6665039 -15.824402 -8.579254 -15.003723 -17.673676z" fill-rule="evenodd"/><path fill="#e06666" d="m401.41214 290.0917l0 0c0.8206787 -9.094421 8.868652 -15.926575 17.975647 -15.260101l67.555115 4.9440002l0 0c4.373352 0.32006836 8.411011 2.361908 11.224762 5.676361c2.8137207 3.3144531 4.173065 7.630005 3.7789917 11.997284l-5.943634 65.86554c-0.8206787 9.094391 -8.868652 15.926575 -17.975647 15.260071l-67.555115 -4.9439697l0 0c-9.107025 -0.6665039 -15.824402 -8.579254 -15.003754 -17.673676z" fill-rule="evenodd"/><path fill="#999999" d="m403.99744 390.34268l0 0c0.08352661 -0.9257202 0.9027405 -1.6211853 1.829773 -1.5533447l74.06644 5.4205017c0.4451599 0.032592773 0.85617065 0.24041748 1.1425781 0.5778198c0.28640747 0.33737183 0.42477417 0.77667236 0.38467407 1.2212219l-0.605011 6.704529c-0.08352661 0.9257202 -0.9027405 1.6211853 -1.829773 1.5533447l-74.06644 -5.4205017l0 0c-0.92700195 -0.067840576 -1.6107788 -0.873291 -1.5272522 -1.7990417z" fill-rule="evenodd"/><path fill="#999999" d="m401.70053 415.7963l0 0c0.08352661 -0.9257202 0.9027405 -1.6211853 1.829773 -1.5533447l74.06644 5.4205017c0.4451599 0.032592773 0.85617065 0.240448 1.1425781 0.5778198c0.28640747 0.33737183 0.42477417 0.77667236 0.38467407 1.2212219l-0.605011 6.704529c-0.08352661 0.92575073 -0.9027405 1.6211853 -1.829773 1.5533447l-74.06644 -5.4205017l0 0c-0.92700195 -0.067840576 -1.6107788 -0.873291 -1.5272522 -1.7990417z" fill-rule="evenodd"/><path fill="#ffffff" d="m524.6281 373.42017l0 0c0.8206787 -9.094421 8.868652 -15.926575 17.975647 -15.260101l67.555115 4.9440002l0 0c4.373352 0.32003784 8.411011 2.361908 11.224731 5.676361c2.8137207 3.3144531 4.1730957 7.630005 3.7789917 11.997284l-5.9436035 65.86554c-0.8206787 9.094391 -8.868652 15.926575 -17.975647 15.260071l-67.555176 -4.9439697l0 0c-9.106995 -0.6665039 -15.824341 -8.579254 -15.003723 -17.673676z" fill-rule="evenodd"/><path fill="#c27ba0" d="m531.57544 296.43192l0 0c0.8206787 -9.094391 8.868652 -15.926575 17.975647 -15.260071l67.555115 4.9439697l0 0c4.373352 0.32006836 8.411011 2.361908 11.224731 5.676361c2.8137817 3.3144531 4.1730957 7.630005 3.7789917 11.997314l-5.9436035 65.86551c-0.8206787 9.094421 -8.868652 15.926575 -17.975647 15.260101l-67.555115 -4.9440002l0 0c-9.106995 -0.6664734 -15.824402 -8.579254 -15.003784 -17.673645z" fill-rule="evenodd"/><path fill="#999999" d="m534.1607 396.6829l0 0c0.08355713 -0.9257202 0.902771 -1.6211853 1.829773 -1.5533447l74.06647 5.4205017c0.44519043 0.032592773 0.85614014 0.240448 1.1425781 0.5778198c0.286438 0.33737183 0.4248047 0.77667236 0.38464355 1.2212219l-0.60498047 6.704529c-0.08355713 0.92575073 -0.902771 1.6211853 -1.829773 1.5533447l-74.06647 -5.4205017l0 0c-0.92700195 -0.067840576 -1.6107788 -0.873291 -1.5272217 -1.7990417z" fill-rule="evenodd"/><path fill="#999999" d="m531.86383 422.1365l0 0c0.08355713 -0.9257202 0.902771 -1.6211853 1.829773 -1.5533447l74.06641 5.420532c0.44519043 0.032562256 0.8562012 0.24041748 1.1425781 0.5777893c0.286438 0.33737183 0.4248047 0.77667236 0.3847046 1.2212219l-0.6050415 6.704529c-0.083496094 0.92575073 -0.90270996 1.6211853 -1.829773 1.5533447l-74.06641 -5.4205017l0 0c-0.92700195 -0.067840576 -1.6107788 -0.873291 -1.5272827 -1.7990112z" fill-rule="evenodd"/></g></svg>