<svg version="1.1" viewBox="0.0 0.0 1030.0839895013123 726.4803149606299" fill="none" stroke="none" stroke-linecap="square" stroke-miterlimit="10" xmlns:xlink="http://www.w3.org/1999/xlink" xmlns="http://www.w3.org/2000/svg"><clipPath id="p.0"><path d="m0 0l1030.084 0l0 726.4803l-1030.084 0l0 -726.4803z" clip-rule="nonzero"/></clipPath><g clip-path="url(#p.0)"><path fill="#000000" fill-opacity="0.0" d="m0 0l1030.084 0l0 726.4803l-1030.084 0z" fill-rule="evenodd"/><path fill="#ffffff" d="m414.6144 19.256105l0 0c0 -10.634518 8.620941 -19.238188 19.255432 -19.216837l576.9579 1.1583838c5.1068726 0.01025331 10.004578 2.0487847 13.615723 5.667141c3.611084 3.6183558 5.6397705 8.52014 5.6397705 13.627014l0 319.93085c0 10.6345215 -8.620972 19.23819 -19.255493 19.216827l-576.9579 -1.1583862l0 0c-10.634491 -0.021331787 -19.255432 -8.659637 -19.255432 -19.294159z" fill-rule="evenodd"/><path stroke="#999999" stroke-width="1.0" stroke-linejoin="round" stroke-linecap="butt" d="m414.6144 19.256105l0 0c0 -10.634518 8.620941 -19.238188 19.255432 -19.216837l576.9579 1.1583838c5.1068726 0.01025331 10.004578 2.0487847 13.615723 5.667141c3.611084 3.6183558 5.6397705 8.52014 5.6397705 13.627014l0 319.93085c0 10.6345215 -8.620972 19.23819 -19.255493 19.216827l-576.9579 -1.1583862l0 0c-10.634491 -0.021331787 -19.255432 -8.659637 -19.255432 -19.294159z" fill-rule="evenodd"/><path fill="#f0f2f5" d="m443.26776 38.356712l0 0c0 -0.002571106 0.0020751953 -0.004650116 0.004638672 -0.0046424866l558.1559 1.1252861c0.0012817383 0 0.0024414062 4.9209595E-4 0.0032958984 0.0013694763c9.1552734E-4 8.735657E-4 0.0014038086 0.0020561218 0.0014038086 0.003288269l-0.004699707 293.78558c0 0.0025634766 -0.0020751953 0.004638672 -0.004638672 0.004638672l-558.1559 -1.1252747l0 0c-0.0025634766 0 -0.0046691895 -0.002105713 -0.0046691895 -0.0046691895z" fill-rule="evenodd"/><path stroke="#b7b7b7" stroke-width="1.0" stroke-linejoin="round" stroke-linecap="butt" d="m443.26776 38.356712l0 0c0 -0.002571106 0.0020751953 -0.004650116 0.004638672 -0.0046424866l558.1559 1.1252861c0.0012817383 0 0.0024414062 4.9209595E-4 0.0032958984 0.0013694763c9.1552734E-4 8.735657E-4 0.0014038086 0.0020561218 0.0014038086 0.003288269l-0.004699707 293.78558c0 0.0025634766 -0.0020751953 0.004638672 -0.004638672 0.004638672l-558.1559 -1.1252747l0 0c-0.0025634766 0 -0.0046691895 -0.002105713 -0.0046691895 -0.0046691895z" fill-rule="evenodd"/><path fill="#ffffff" d="m459.5845 98.353264l0 0c0 -15.0707245 12.217194 -27.263435 27.287903 -27.233177l109.148346 0.21914673l0 0c7.2371826 0.014526367 14.1779785 2.9034348 19.295471 8.031197c5.1174927 5.127762 7.9924316 12.074333 7.9924316 19.311546l0 183.41962c0 15.07074 -12.217224 27.263458 -27.287903 27.233185l-109.148346 -0.21914673c-15.070709 -0.03024292 -27.287903 -12.272003 -27.287903 -27.342743z" fill-rule="evenodd"/><path fill="#999999" d="m472.39996 156.43752l0 0c0 -2.9523468 2.393341 -5.3408966 5.345703 -5.334976l127.401855 0.25579834c1.4177246 0.0028381348 2.7774658 0.56877136 3.7799683 1.5733032c1.0025024 1.0045319 1.5656738 2.3653564 1.5656738 3.7831268l0 0l0 0c0 2.9523468 -2.3933105 5.3408966 -5.345642 5.334976l-127.401855 -0.25579834c-2.952362 -0.00592041 -5.345703 -2.4040833 -5.345703 -5.35643z" fill-rule="evenodd"/><path stroke="#b7b7b7" stroke-width="1.0" stroke-linejoin="round" stroke-linecap="butt" d="m472.39996 156.43752l0 0c0 -2.9523468 2.393341 -5.3408966 5.345703 -5.334976l127.401855 0.25579834c1.4177246 0.0028381348 2.7774658 0.56877136 3.7799683 1.5733032c1.0025024 1.0045319 1.5656738 2.3653564 1.5656738 3.7831268l0 0l0 0c0 2.9523468 -2.3933105 5.3408966 -5.345642 5.334976l-127.401855 -0.25579834c-2.952362 -0.00592041 -5.345703 -2.4040833 -5.345703 -5.35643z" fill-rule="evenodd"/><path fill="#999999" d="m472.39996 182.97552l0 0c0 -2.9523468 2.393341 -5.3408966 5.345703 -5.334976l127.401855 0.25579834c1.4177246 0.0028381348 2.7774658 0.5687866 3.7799683 1.5733032c1.0025024 1.0045319 1.5656738 2.3653564 1.5656738 3.7831268l0 0l0 0c0 2.9523468 -2.3933105 5.3408966 -5.345642 5.334976l-127.401855 -0.25579834c-2.952362 -0.00592041 -5.345703 -2.4040833 -5.345703 -5.35643z" fill-rule="evenodd"/><path stroke="#b7b7b7" stroke-width="1.0" stroke-linejoin="round" stroke-linecap="butt" d="m472.39996 182.97552l0 0c0 -2.9523468 2.393341 -5.3408966 5.345703 -5.334976l127.401855 0.25579834c1.4177246 0.0028381348 2.7774658 0.5687866 3.7799683 1.5733032c1.0025024 1.0045319 1.5656738 2.3653564 1.5656738 3.7831268l0 0l0 0c0 2.9523468 -2.3933105 5.3408966 -5.345642 5.334976l-127.401855 -0.25579834c-2.952362 -0.00592041 -5.345703 -2.4040833 -5.345703 -5.35643z" fill-rule="evenodd"/><path fill="#999999" d="m472.39996 209.51353l0 0c0 -2.9523468 2.393341 -5.3408966 5.345703 -5.334976l127.401855 0.25579834c1.4177246 0.0028381348 2.7774658 0.5687866 3.7799683 1.5733032c1.0025024 1.0045319 1.5656738 2.3653564 1.5656738 3.7831268l0 0l0 0c0 2.952362 -2.3933105 5.3408966 -5.345642 5.334976l-127.401855 -0.25579834c-2.952362 -0.00592041 -5.345703 -2.4040833 -5.345703 -5.35643z" fill-rule="evenodd"/><path stroke="#b7b7b7" stroke-width="1.0" stroke-linejoin="round" stroke-linecap="butt" d="m472.39996 209.51353l0 0c0 -2.9523468 2.393341 -5.3408966 5.345703 -5.334976l127.401855 0.25579834c1.4177246 0.0028381348 2.7774658 0.5687866 3.7799683 1.5733032c1.0025024 1.0045319 1.5656738 2.3653564 1.5656738 3.7831268l0 0l0 0c0 2.952362 -2.3933105 5.3408966 -5.345642 5.334976l-127.401855 -0.25579834c-2.952362 -0.00592041 -5.345703 -2.4040833 -5.345703 -5.35643z" fill-rule="evenodd"/><path fill="#999999" d="m472.39996 236.05154l0 0c0 -2.9523468 2.393341 -5.3408966 5.345703 -5.334976l127.401855 0.25579834c1.4177246 0.0028381348 2.7774658 0.5687866 3.7799683 1.5733032c1.0025024 1.0045319 1.5656738 2.3653564 1.5656738 3.7831268l0 0l0 0c0 2.952362 -2.3933105 5.3408966 -5.345642 5.334976l-127.401855 -0.25578308c-2.952362 -0.005935669 -5.345703 -2.4040985 -5.345703 -5.3564453z" fill-rule="evenodd"/><path stroke="#b7b7b7" stroke-width="1.0" stroke-linejoin="round" stroke-linecap="butt" d="m472.39996 236.05154l0 0c0 -2.9523468 2.393341 -5.3408966 5.345703 -5.334976l127.401855 0.25579834c1.4177246 0.0028381348 2.7774658 0.5687866 3.7799683 1.5733032c1.0025024 1.0045319 1.5656738 2.3653564 1.5656738 3.7831268l0 0l0 0c0 2.952362 -2.3933105 5.3408966 -5.345642 5.334976l-127.401855 -0.25578308c-2.952362 -0.005935669 -5.345703 -2.4040985 -5.345703 -5.3564453z" fill-rule="evenodd"/><path fill="#999999" d="m472.39996 262.58957l0 0c0 -2.952362 2.393341 -5.340912 5.345703 -5.3349915l127.401855 0.25579834c1.4177246 0.0028381348 2.7774658 0.5687866 3.7799683 1.5733032c1.0025024 1.0045471 1.5656738 2.3653564 1.5656738 3.783142l0 0l0 0c0 2.9523315 -2.3933105 5.3408813 -5.345642 5.334961l-127.401855 -0.25579834c-2.952362 -0.00592041 -5.345703 -2.4040833 -5.345703 -5.356415z" fill-rule="evenodd"/><path stroke="#b7b7b7" stroke-width="1.0" stroke-linejoin="round" stroke-linecap="butt" d="m472.39996 262.58957l0 0c0 -2.952362 2.393341 -5.340912 5.345703 -5.3349915l127.401855 0.25579834c1.4177246 0.0028381348 2.7774658 0.5687866 3.7799683 1.5733032c1.0025024 1.0045471 1.5656738 2.3653564 1.5656738 3.783142l0 0l0 0c0 2.9523315 -2.3933105 5.3408813 -5.345642 5.334961l-127.401855 -0.25579834c-2.952362 -0.00592041 -5.345703 -2.4040833 -5.345703 -5.356415z" fill-rule="evenodd"/><path fill="#1472ff" d="m472.39996 97.92132l0 0c0 -1.9666901 1.5942993 -3.557808 3.5610046 -3.553856l130.97122 0.2629547c0.944458 0.0018997192 1.8502197 0.378891 2.5180054 1.0480499c0.6678467 0.66915894 1.0429688 1.5756683 1.0429688 2.520111l0 15.601524c0 1.9666901 -1.5942993 3.5578003 -3.5609741 3.553856l-130.97122 -0.2629547c-1.9667053 -0.0039520264 -3.5610046 -1.601471 -3.5610046 -3.568161z" fill-rule="evenodd"/><path fill="#ffffff" d="m640.48596 98.717186l0 0c0 -15.070732 12.217224 -27.263435 27.287903 -27.233177l109.14838 0.2191391l0 0c7.2371826 0.014533997 14.1779785 2.9034424 19.29541 8.031204c5.1174927 5.127754 7.9924927 12.074333 7.9924927 19.311546l0 183.41962c0 15.07074 -12.217224 27.263428 -27.287903 27.233185l-109.14838 -0.21914673c-15.070679 -0.03024292 -27.287903 -12.272034 -27.287903 -27.342743z" fill-rule="evenodd"/><path fill="#999999" d="m653.3014 156.80144l0 0c0 -2.952362 2.3933716 -5.3408966 5.345703 -5.334976l127.401855 0.25579834c1.4177856 0.0028381348 2.7774658 0.56877136 3.7799683 1.5733032c1.0025024 1.0045319 1.5657349 2.3653564 1.5657349 3.7831268l0 0l0 0c0 2.9523468 -2.3933716 5.3408966 -5.345703 5.334976l-127.401855 -0.25579834c-2.9523315 -0.00592041 -5.345703 -2.4040833 -5.345703 -5.35643z" fill-rule="evenodd"/><path stroke="#b7b7b7" stroke-width="1.0" stroke-linejoin="round" stroke-linecap="butt" d="m653.3014 156.80144l0 0c0 -2.952362 2.3933716 -5.3408966 5.345703 -5.334976l127.401855 0.25579834c1.4177856 0.0028381348 2.7774658 0.56877136 3.7799683 1.5733032c1.0025024 1.0045319 1.5657349 2.3653564 1.5657349 3.7831268l0 0l0 0c0 2.9523468 -2.3933716 5.3408966 -5.345703 5.334976l-127.401855 -0.25579834c-2.9523315 -0.00592041 -5.345703 -2.4040833 -5.345703 -5.35643z" fill-rule="evenodd"/><path fill="#999999" d="m653.3014 183.33945l0 0c0 -2.9523468 2.3933716 -5.3408966 5.345703 -5.334976l127.401855 0.25579834c1.4177856 0.0028381348 2.7774658 0.56877136 3.7799683 1.5733032c1.0025024 1.0045319 1.5657349 2.3653564 1.5657349 3.7831268l0 0l0 0c0 2.9523468 -2.3933716 5.3408966 -5.345703 5.334976l-127.401855 -0.25579834c-2.9523315 -0.00592041 -5.345703 -2.4040833 -5.345703 -5.35643z" fill-rule="evenodd"/><path stroke="#b7b7b7" stroke-width="1.0" stroke-linejoin="round" stroke-linecap="butt" d="m653.3014 183.33945l0 0c0 -2.9523468 2.3933716 -5.3408966 5.345703 -5.334976l127.401855 0.25579834c1.4177856 0.0028381348 2.7774658 0.56877136 3.7799683 1.5733032c1.0025024 1.0045319 1.5657349 2.3653564 1.5657349 3.7831268l0 0l0 0c0 2.9523468 -2.3933716 5.3408966 -5.345703 5.334976l-127.401855 -0.25579834c-2.9523315 -0.00592041 -5.345703 -2.4040833 -5.345703 -5.35643z" fill-rule="evenodd"/><path fill="#999999" d="m653.3014 209.87746l0 0c0 -2.9523468 2.3933716 -5.3408966 5.345703 -5.334976l127.401855 0.25579834c1.4177856 0.0028381348 2.7774658 0.56877136 3.7799683 1.5733032c1.0025024 1.0045319 1.5657349 2.3653564 1.5657349 3.7831268l0 0l0 0c0 2.9523468 -2.3933716 5.3408966 -5.345703 5.334976l-127.401855 -0.25579834c-2.9523315 -0.00592041 -5.345703 -2.4040833 -5.345703 -5.35643z" fill-rule="evenodd"/><path stroke="#b7b7b7" stroke-width="1.0" stroke-linejoin="round" stroke-linecap="butt" d="m653.3014 209.87746l0 0c0 -2.9523468 2.3933716 -5.3408966 5.345703 -5.334976l127.401855 0.25579834c1.4177856 0.0028381348 2.7774658 0.56877136 3.7799683 1.5733032c1.0025024 1.0045319 1.5657349 2.3653564 1.5657349 3.7831268l0 0l0 0c0 2.9523468 -2.3933716 5.3408966 -5.345703 5.334976l-127.401855 -0.25579834c-2.9523315 -0.00592041 -5.345703 -2.4040833 -5.345703 -5.35643z" fill-rule="evenodd"/><path fill="#999999" d="m653.3014 236.41547l0 0c0 -2.9523468 2.3933716 -5.3408966 5.345703 -5.334976l127.401855 0.25579834c1.4177856 0.0028381348 2.7774658 0.5687866 3.7799683 1.5733032c1.0025024 1.0045319 1.5657349 2.3653564 1.5657349 3.7831268l0 0l0 0c0 2.9523468 -2.3933716 5.3408966 -5.345703 5.334976l-127.401855 -0.25579834c-2.9523315 -0.00592041 -5.345703 -2.4040833 -5.345703 -5.35643z" fill-rule="evenodd"/><path stroke="#b7b7b7" stroke-width="1.0" stroke-linejoin="round" stroke-linecap="butt" d="m653.3014 236.41547l0 0c0 -2.9523468 2.3933716 -5.3408966 5.345703 -5.334976l127.401855 0.25579834c1.4177856 0.0028381348 2.7774658 0.5687866 3.7799683 1.5733032c1.0025024 1.0045319 1.5657349 2.3653564 1.5657349 3.7831268l0 0l0 0c0 2.9523468 -2.3933716 5.3408966 -5.345703 5.334976l-127.401855 -0.25579834c-2.9523315 -0.00592041 -5.345703 -2.4040833 -5.345703 -5.35643z" fill-rule="evenodd"/><path fill="#999999" d="m653.3014 262.9535l0 0c0 -2.952362 2.3933716 -5.340912 5.345703 -5.3349915l127.401855 0.25579834c1.4177856 0.0028381348 2.7774658 0.5687866 3.7799683 1.5733032c1.0025024 1.0045166 1.5657349 2.3653564 1.5657349 3.783142l0 0l0 0c0 2.9523315 -2.3933716 5.3408813 -5.345703 5.334961l-127.401855 -0.25579834c-2.9523315 -0.00592041 -5.345703 -2.4040833 -5.345703 -5.356415z" fill-rule="evenodd"/><path stroke="#b7b7b7" stroke-width="1.0" stroke-linejoin="round" stroke-linecap="butt" d="m653.3014 262.9535l0 0c0 -2.952362 2.3933716 -5.340912 5.345703 -5.3349915l127.401855 0.25579834c1.4177856 0.0028381348 2.7774658 0.5687866 3.7799683 1.5733032c1.0025024 1.0045166 1.5657349 2.3653564 1.5657349 3.783142l0 0l0 0c0 2.9523315 -2.3933716 5.3408813 -5.345703 5.334961l-127.401855 -0.25579834c-2.9523315 -0.00592041 -5.345703 -2.4040833 -5.345703 -5.356415z" fill-rule="evenodd"/><path fill="#1472ff" d="m653.3014 98.28524l0 0c0 -1.9666901 1.5943604 -3.557808 3.5610352 -3.553856l130.97125 0.2629547c0.944397 0.0018997192 1.8501587 0.378891 2.5180054 1.0480499c0.66778564 0.66915894 1.0429688 1.5756683 1.0429688 2.5201035l0 15.601532c0 1.9666824 -1.5942993 3.5578003 -3.5609741 3.553856l-130.97125 -0.26296234c-1.9666748 -0.003944397 -3.5610352 -1.6014633 -3.5610352 -3.5681534z" fill-rule="evenodd"/><path fill="#ffffff" d="m815.69257 99.068954l0 0c0 -15.0707245 12.217224 -27.263435 27.287903 -27.233177l109.14838 0.2191391l0 0c7.2371826 0.014533997 14.1779785 2.9034424 19.295471 8.031204c5.1174927 5.127762 7.9924316 12.074333 7.9924316 19.311546l0 183.41962c0 15.07074 -12.217224 27.263428 -27.287903 27.233185l-109.14838 -0.21914673c-15.070679 -0.030273438 -27.287903 -12.272034 -27.287903 -27.342743z" fill-rule="evenodd"/><path fill="#999999" d="m828.50806 157.1532l0 0c0 -2.9523468 2.3933105 -5.3408966 5.345703 -5.334961l127.401855 0.25578308c1.4177246 0.0028533936 2.7774048 0.5687866 3.7799683 1.5733185c1.0025024 1.0045166 1.5656738 2.3653564 1.5656738 3.7831268l0 0l0 0c0 2.9523468 -2.3933105 5.3408966 -5.345642 5.334961l-127.401855 -0.25578308c-2.9523926 -0.005935669 -5.345703 -2.4040833 -5.345703 -5.3564453z" fill-rule="evenodd"/><path stroke="#b7b7b7" stroke-width="1.0" stroke-linejoin="round" stroke-linecap="butt" d="m828.50806 157.1532l0 0c0 -2.9523468 2.3933105 -5.3408966 5.345703 -5.334961l127.401855 0.25578308c1.4177246 0.0028533936 2.7774048 0.5687866 3.7799683 1.5733185c1.0025024 1.0045166 1.5656738 2.3653564 1.5656738 3.7831268l0 0l0 0c0 2.9523468 -2.3933105 5.3408966 -5.345642 5.334961l-127.401855 -0.25578308c-2.9523926 -0.005935669 -5.345703 -2.4040833 -5.345703 -5.3564453z" fill-rule="evenodd"/><path fill="#999999" d="m828.50806 183.69121l0 0c0 -2.9523468 2.3933105 -5.3408966 5.345703 -5.334961l127.401855 0.25578308c1.4177246 0.0028533936 2.7774048 0.5687866 3.7799683 1.5733185c1.0025024 1.0045166 1.5656738 2.3653564 1.5656738 3.7831268l0 0l0 0c0 2.9523468 -2.3933105 5.3408966 -5.345642 5.334961l-127.401855 -0.25578308c-2.9523926 -0.005935669 -5.345703 -2.4040833 -5.345703 -5.3564453z" fill-rule="evenodd"/><path stroke="#b7b7b7" stroke-width="1.0" stroke-linejoin="round" stroke-linecap="butt" d="m828.50806 183.69121l0 0c0 -2.9523468 2.3933105 -5.3408966 5.345703 -5.334961l127.401855 0.25578308c1.4177246 0.0028533936 2.7774048 0.5687866 3.7799683 1.5733185c1.0025024 1.0045166 1.5656738 2.3653564 1.5656738 3.7831268l0 0l0 0c0 2.9523468 -2.3933105 5.3408966 -5.345642 5.334961l-127.401855 -0.25578308c-2.9523926 -0.005935669 -5.345703 -2.4040833 -5.345703 -5.3564453z" fill-rule="evenodd"/><path fill="#999999" d="m828.50806 210.22922l0 0c0 -2.9523468 2.3933105 -5.3408966 5.345703 -5.334961l127.401855 0.25578308c1.4177246 0.0028533936 2.7774048 0.5687866 3.7799683 1.5733185c1.0025024 1.0045166 1.5656738 2.3653564 1.5656738 3.7831268l0 0l0 0c0 2.9523468 -2.3933105 5.3408966 -5.345642 5.334961l-127.401855 -0.25578308c-2.9523926 -0.005935669 -5.345703 -2.4040833 -5.345703 -5.3564453z" fill-rule="evenodd"/><path stroke="#b7b7b7" stroke-width="1.0" stroke-linejoin="round" stroke-linecap="butt" d="m828.50806 210.22922l0 0c0 -2.9523468 2.3933105 -5.3408966 5.345703 -5.334961l127.401855 0.25578308c1.4177246 0.0028533936 2.7774048 0.5687866 3.7799683 1.5733185c1.0025024 1.0045166 1.5656738 2.3653564 1.5656738 3.7831268l0 0l0 0c0 2.9523468 -2.3933105 5.3408966 -5.345642 5.334961l-127.401855 -0.25578308c-2.9523926 -0.005935669 -5.345703 -2.4040833 -5.345703 -5.3564453z" fill-rule="evenodd"/><path fill="#999999" d="m828.50806 236.76724l0 0c0 -2.952362 2.3933105 -5.340912 5.345703 -5.334976l127.401855 0.25578308c1.4177246 0.0028533936 2.7774048 0.5687866 3.7799683 1.5733185c1.0025024 1.0045166 1.5656738 2.3653564 1.5656738 3.7831268l0 0l0 0c0 2.9523468 -2.3933105 5.3408966 -5.345642 5.334961l-127.401855 -0.25578308c-2.9523926 -0.00592041 -5.345703 -2.4040833 -5.345703 -5.35643z" fill-rule="evenodd"/><path stroke="#b7b7b7" stroke-width="1.0" stroke-linejoin="round" stroke-linecap="butt" d="m828.50806 236.76724l0 0c0 -2.952362 2.3933105 -5.340912 5.345703 -5.334976l127.401855 0.25578308c1.4177246 0.0028533936 2.7774048 0.5687866 3.7799683 1.5733185c1.0025024 1.0045166 1.5656738 2.3653564 1.5656738 3.7831268l0 0l0 0c0 2.9523468 -2.3933105 5.3408966 -5.345642 5.334961l-127.401855 -0.25578308c-2.9523926 -0.00592041 -5.345703 -2.4040833 -5.345703 -5.35643z" fill-rule="evenodd"/><path fill="#999999" d="m828.50806 263.30524l0 0c0 -2.9523315 2.3933105 -5.3408813 5.345703 -5.334961l127.401855 0.25579834c1.4177246 0.0028381348 2.7774048 0.5687866 3.7799683 1.5733032c1.0025024 1.0045166 1.5656738 2.3653564 1.5656738 3.7831116l0 0l0 0c0 2.952362 -2.3933105 5.340912 -5.345642 5.3349915l-127.401855 -0.25579834c-2.9523926 -0.00592041 -5.345703 -2.4040833 -5.345703 -5.3564453z" fill-rule="evenodd"/><path stroke="#b7b7b7" stroke-width="1.0" stroke-linejoin="round" stroke-linecap="butt" d="m828.50806 263.30524l0 0c0 -2.9523315 2.3933105 -5.3408813 5.345703 -5.334961l127.401855 0.25579834c1.4177246 0.0028381348 2.7774048 0.5687866 3.7799683 1.5733032c1.0025024 1.0045166 1.5656738 2.3653564 1.5656738 3.7831116l0 0l0 0c0 2.952362 -2.3933105 5.340912 -5.345642 5.3349915l-127.401855 -0.25579834c-2.9523926 -0.00592041 -5.345703 -2.4040833 -5.345703 -5.3564453z" fill-rule="evenodd"/><path fill="#1472ff" d="m828.50806 98.63701l0 0c0 -1.9666901 1.5942993 -3.557808 3.5609741 -3.553856l130.97125 0.2629547c0.944458 0.0018997192 1.8501587 0.378891 2.5180054 1.0480499c0.66778564 0.66915894 1.0429688 1.5756683 1.0429688 2.5201035l0 15.601532c0 1.9666901 -1.5942993 3.5578003 -3.5609741 3.553856l-130.97125 -0.2629547c-1.9666748 -0.0039520264 -3.5609741 -1.601471 -3.5609741 -3.568161z" fill-rule="evenodd"/><path fill="#ffffff" d="m-0.008439027 379.40692l0 0c0 -10.730988 8.698975 -19.368225 19.429703 -19.29181l598.7455 4.2646484c5.153076 0.036712646 10.095093 2.1190186 13.738831 5.788849c3.6437988 3.6697998 5.690857 8.626526 5.690857 13.779755l0 322.8335c0 10.731018 -8.698975 19.368225 -19.429688 19.29181l-598.7455 -4.2646484c-10.730729 -0.076416016 -19.429703 -8.837585 -19.429703 -19.568604z" fill-rule="evenodd"/><path stroke="#999999" stroke-width="1.0" stroke-linejoin="round" stroke-linecap="butt" d="m-0.008439027 379.40692l0 0c0 -10.730988 8.698975 -19.368225 19.429703 -19.29181l598.7455 4.2646484c5.153076 0.036712646 10.095093 2.1190186 13.738831 5.788849c3.6437988 3.6697998 5.690857 8.626526 5.690857 13.779755l0 322.8335c0 10.731018 -8.698975 19.368225 -19.429688 19.29181l-598.7455 -4.2646484c-10.730729 -0.076416016 -19.429703 -8.837585 -19.429703 -19.568604z" fill-rule="evenodd"/><path fill="#f0f2f5" d="m29.675468 398.8342l0 0c0 -0.0026550293 0.0021572113 -0.0047912598 0.0048179626 -0.0047912598l578.2398 4.123413c0.0012817383 3.0517578E-5 0.0025024414 5.493164E-4 0.0034179688 0.0014648438c9.1552734E-4 8.8500977E-4 0.0014038086 0.0021362305 0.0014038086 0.0033874512l-0.0048217773 296.44016c0 0.0026855469 -0.0021362305 0.0048217773 -0.0048217773 0.004760742l-578.2398 -4.123413l0 0c-0.0026607513 0 -0.0048179626 -0.0021972656 -0.0048179626 -0.0048217773z" fill-rule="evenodd"/><path stroke="#b7b7b7" stroke-width="1.0" stroke-linejoin="round" stroke-linecap="butt" d="m29.675468 398.8342l0 0c0 -0.0026550293 0.0021572113 -0.0047912598 0.0048179626 -0.0047912598l578.2398 4.123413c0.0012817383 3.0517578E-5 0.0025024414 5.493164E-4 0.0034179688 0.0014648438c9.1552734E-4 8.8500977E-4 0.0014038086 0.0021362305 0.0014038086 0.0033874512l-0.0048217773 296.44016c0 0.0026855469 -0.0021362305 0.0048217773 -0.0048217773 0.004760742l-578.2398 -4.123413l0 0c-0.0026607513 0 -0.0048179626 -0.0021972656 -0.0048179626 -0.0048217773z" fill-rule="evenodd"/><path fill="#ffffff" d="m79.76267 547.8801l0 0c0 -8.215881 6.6601562 -14.833496 14.875877 -14.780945l70.55167 0.45166016c3.9453278 0.025268555 7.729065 1.6168213 10.518829 4.4244995c2.7897797 2.8076782 4.3570557 6.6015015 4.3570557 10.546936l0 59.50293c0 8.215881 -6.6601562 14.833557 -14.875885 14.780945l-70.55167 -0.45159912l0 0c-8.215721 -0.052612305 -14.875877 -6.755554 -14.875877 -14.971436z" fill-rule="evenodd"/><path fill="#6fa8dc" d="m79.76267 478.32892l0 0c0 -8.215881 6.6601562 -14.833527 14.875877 -14.780945l70.55167 0.45166016c3.9453278 0.025238037 7.729065 1.6167908 10.518829 4.424469c2.7897797 2.8076782 4.3570557 6.601532 4.3570557 10.546936l0 59.50296c0 8.215881 -6.6601562 14.833557 -14.875885 14.780945l-70.55167 -0.45166016l0 0c-8.215721 -0.05255127 -14.875877 -6.755493 -14.875877 -14.9713745z" fill-rule="evenodd"/><path fill="#999999" d="m91.291626 568.20557l0 0c0 -0.8363037 0.677948 -1.5099487 1.5142365 -1.5045776l74.21704 0.47509766c0.40159607 0.0025634766 0.7867584 0.16455078 1.0707245 0.45037842c0.28398132 0.2857666 0.44351196 0.67193604 0.44351196 1.0735474l0 6.056885c0 0.8363037 -0.677948 1.5099487 -1.5142365 1.5045776l-74.21704 -0.47509766c-0.83628845 -0.0053710938 -1.5142365 -0.6876221 -1.5142365 -1.5239258z" fill-rule="evenodd"/><path fill="#999999" d="m91.291626 591.2004l0 0c0 -0.8363037 0.677948 -1.5099487 1.5142365 -1.5045776l74.21704 0.47509766c0.40159607 0.0025634766 0.7867584 0.16455078 1.0707245 0.45037842c0.28398132 0.2857666 0.44351196 0.6719971 0.44351196 1.0735474l0 6.056885c0 0.8363037 -0.677948 1.5099487 -1.5142365 1.5045776l-74.21704 -0.47509766c-0.83628845 -0.0053710938 -1.5142365 -0.6876221 -1.5142365 -1.5239258z" fill-rule="evenodd"/><path fill="#ffffff" d="m205.84593 547.8253l0 0c0 -8.215881 6.6601562 -14.833557 14.87587 -14.780945l70.55167 0.45166016c3.945343 0.025268555 7.729065 1.6167603 10.518829 4.4244385c2.789795 2.8077393 4.3570557 6.6015625 4.3570557 10.546997l0 59.50293c0 8.215881 -6.6601562 14.833557 -14.875885 14.780945l-70.55167 -0.45166016l0 0c-8.2157135 -0.05255127 -14.87587 -6.755493 -14.87587 -14.9713745z" fill-rule="evenodd"/><path fill="#f6b26b" d="m205.84593 478.2741l0 0c0 -8.215881 6.6601562 -14.833557 14.87587 -14.780945l70.55167 0.45162964c3.945343 0.025268555 7.729065 1.6167908 10.518829 4.424469c2.789795 2.8077087 4.3570557 6.601532 4.3570557 10.546967l0 59.50296c0 8.215881 -6.6601562 14.833557 -14.875885 14.780945l-70.55167 -0.45166016l0 0c-8.2157135 -0.052612305 -14.87587 -6.755554 -14.87587 -14.971436z" fill-rule="evenodd"/><path fill="#999999" d="m217.37488 568.1507l0 0c0 -0.8363037 0.677948 -1.5098877 1.5142365 -1.5045776l74.21706 0.4751587c0.4015808 0.0025634766 0.78674316 0.16455078 1.0707092 0.45037842c0.28396606 0.2857666 0.44351196 0.67193604 0.44351196 1.0735474l0 6.056885c0 0.8363037 -0.677948 1.5099487 -1.5142212 1.5045776l-74.21706 -0.47509766c-0.83628845 -0.0053710938 -1.5142365 -0.6876831 -1.5142365 -1.5239868z" fill-rule="evenodd"/><path fill="#999999" d="m217.37488 591.1455l0 0c0 -0.8363037 0.677948 -1.5098877 1.5142365 -1.5045776l74.21706 0.4751587c0.4015808 0.0025634766 0.78674316 0.16455078 1.0707092 0.45037842c0.28396606 0.2857666 0.44351196 0.67193604 0.44351196 1.0735474l0 6.056885c0 0.8363037 -0.677948 1.5099487 -1.5142212 1.5045776l-74.21706 -0.47509766c-0.83628845 -0.0053710938 -1.5142365 -0.6876831 -1.5142365 -1.5239868z" fill-rule="evenodd"/><path fill="#ffffff" d="m332.64432 547.7679l0 0c0 -8.215881 6.6601562 -14.833557 14.8758545 -14.780945l70.5517 0.45166016c3.9453125 0.025268555 7.729065 1.6167603 10.518829 4.4244385c2.7897644 2.8076782 4.357025 6.6015625 4.357025 10.546936l0 59.50299c0 8.215881 -6.6601562 14.833557 -14.8758545 14.780945l-70.5517 -0.45166016l0 0c-8.215698 -0.052612305 -14.8758545 -6.755493 -14.8758545 -14.971436z" fill-rule="evenodd"/><path fill="#e06666" d="m332.64432 478.21667l0 0c0 -8.215912 6.6601562 -14.833557 14.8758545 -14.780975l70.5517 0.45166016c3.9453125 0.025268555 7.729065 1.6167908 10.518829 4.424469c2.7897644 2.8076782 4.357025 6.601532 4.357025 10.546936l0 59.50299c0 8.215881 -6.6601562 14.833496 -14.8758545 14.780945l-70.5517 -0.45166016l0 0c-8.215698 -0.052612305 -14.8758545 -6.755554 -14.8758545 -14.971436z" fill-rule="evenodd"/><path fill="#999999" d="m344.17328 568.09326l0 0c0 -0.8363037 0.6779175 -1.5098877 1.5142212 -1.5045776l74.21704 0.4751587c0.40161133 0.0025634766 0.78674316 0.16455078 1.0707397 0.45031738c0.28396606 0.28582764 0.44348145 0.6719971 0.44348145 1.0736084l0 6.056885c0 0.8363037 -0.677948 1.5099487 -1.5142212 1.5045776l-74.21704 -0.47509766c-0.8363037 -0.0053710938 -1.5142212 -0.6876831 -1.5142212 -1.5239868z" fill-rule="evenodd"/><path fill="#999999" d="m344.17328 591.0881l0 0c0 -0.8363037 0.6779175 -1.5098877 1.5142212 -1.5045776l74.21704 0.4751587c0.40161133 0.0025634766 0.78674316 0.16455078 1.0707397 0.45031738c0.28396606 0.28582764 0.44348145 0.6719971 0.44348145 1.0736084l0 6.056885c0 0.8363037 -0.677948 1.5099487 -1.5142212 1.5045776l-74.21704 -0.47509766c-0.8363037 -0.0053710938 -1.5142212 -0.6876831 -1.5142212 -1.5239868z" fill-rule="evenodd"/><path fill="#ffffff" d="m459.44064 547.71185l0 0c0 -8.215881 6.6601562 -14.833557 14.875885 -14.780945l70.551636 0.45166016c3.9453735 0.025268555 7.729065 1.6167603 10.51886 4.4244385c2.789734 2.8077393 4.3570557 6.6015625 4.3570557 10.546997l0 59.50293c0 8.215881 -6.6601562 14.833557 -14.875916 14.780945l-70.551636 -0.45166016l0 0c-8.215729 -0.05255127 -14.875885 -6.755493 -14.875885 -14.9713745z" fill-rule="evenodd"/><path fill="#c27ba0" d="m459.44064 478.16064l0 0c0 -8.215881 6.6601562 -14.833557 14.875885 -14.780945l70.551636 0.45162964c3.9453735 0.025268555 7.729065 1.6167908 10.51886 4.424469c2.789734 2.8077087 4.3570557 6.6015625 4.3570557 10.546967l0 59.50296c0 8.215881 -6.6601562 14.833557 -14.875916 14.780945l-70.551636 -0.45166016l0 0c-8.215729 -0.052612305 -14.875885 -6.755493 -14.875885 -14.971436z" fill-rule="evenodd"/><path fill="#999999" d="m470.9696 568.03723l0 0c0 -0.8363037 0.677948 -1.5098877 1.5142212 -1.5045776l74.21704 0.4751587c0.40161133 0.0025634766 0.78674316 0.16455078 1.0707397 0.45037842c0.28393555 0.2857666 0.44348145 0.67193604 0.44348145 1.0735474l0 6.056885c0 0.8363037 -0.6779175 1.5099487 -1.5142212 1.5045776l-74.21704 -0.47509766c-0.8362732 -0.0053710938 -1.5142212 -0.6876831 -1.5142212 -1.5239868z" fill-rule="evenodd"/><path fill="#999999" d="m470.9696 591.03204l0 0c0 -0.8363037 0.677948 -1.5098877 1.5142212 -1.5045166l74.21704 0.47509766c0.40161133 0.0025634766 0.78674316 0.16455078 1.0707397 0.45037842c0.28393555 0.2857666 0.44348145 0.67193604 0.44348145 1.0735474l0 6.056885c0 0.8363037 -0.6779175 1.5099487 -1.5142212 1.5045776l-74.21704 -0.47509766c-0.8362732 -0.0053710938 -1.5142212 -0.6876831 -1.5142212 -1.5239868z" fill-rule="evenodd"/></g></svg>