<svg version="1.1" viewBox="0.0 0.0 1030.0839895013123 726.4803149606299" fill="none" stroke="none" stroke-linecap="square" stroke-miterlimit="10" xmlns:xlink="http://www.w3.org/1999/xlink" xmlns="http://www.w3.org/2000/svg"><clipPath id="p.0"><path d="m0 0l1030.084 0l0 726.4803l-1030.084 0l0 -726.4803z" clip-rule="nonzero"/></clipPath><g clip-path="url(#p.0)"><path fill="#000000" fill-opacity="0.0" d="m0 0l1030.084 0l0 726.4803l-1030.084 0z" fill-rule="evenodd"/><path fill="#ffffff" d="m367.2249 101.40993l0 0c-1.8751831 -9.959885 4.675232 -19.572762 14.630768 -21.470947l537.0497 -102.39758c4.7807617 -0.9115429 9.723511 0.11425209 13.740784 2.8517208c4.017273 2.7374687 6.7800903 6.962371 7.680542 11.745278l56.412964 299.63522c1.8751221 9.959869 -4.675293 19.572754 -14.630798 21.470947l-537.0497 102.39758l0 0c-9.955536 1.8981934 -19.546204 -4.6371155 -21.421387 -14.597015z" fill-rule="evenodd"/><path stroke="#999999" stroke-width="1.0" stroke-linejoin="round" stroke-linecap="butt" d="m367.2249 101.40993l0 0c-1.8751831 -9.959885 4.675232 -19.572762 14.630768 -21.470947l537.0497 -102.39758c4.7807617 -0.9115429 9.723511 0.11425209 13.740784 2.8517208c4.017273 2.7374687 6.7800903 6.962371 7.680542 11.745278l56.412964 299.63522c1.8751221 9.959869 -4.675293 19.572754 -14.630798 21.470947l-537.0497 102.39758l0 0c-9.955536 1.8981934 -19.546204 -4.6371155 -21.421387 -14.597015z" fill-rule="evenodd"/><path fill="#f0f2f5" d="m397.2637 114.15778l0 0c-4.5776367E-4 -0.0023880005 0.0010986328 -0.004699707 0.0035095215 -0.0051574707l519.735 -99.09175c0.0010986328 -2.1839142E-4 0.002319336 2.7656555E-5 0.0032958984 6.8569183E-4c9.765625E-4 6.570816E-4 0.0015869141 0.0016727448 0.0018310547 0.0028219223l51.798462 275.14938c4.272461E-4 0.0024108887 -0.001159668 0.0047302246 -0.003540039 0.0051879883l-519.735 99.091736l0 0c-0.0024108887 4.5776367E-4 -0.004699707 -0.0010986328 -0.0051574707 -0.0035095215z" fill-rule="evenodd"/><path stroke="#b7b7b7" stroke-width="1.0" stroke-linejoin="round" stroke-linecap="butt" d="m397.2637 114.15778l0 0c-4.5776367E-4 -0.0023880005 0.0010986328 -0.004699707 0.0035095215 -0.0051574707l519.735 -99.09175c0.0010986328 -2.1839142E-4 0.002319336 2.7656555E-5 0.0032958984 6.8569183E-4c9.765625E-4 6.570816E-4 0.0015869141 0.0016727448 0.0018310547 0.0028219223l51.798462 275.14938c4.272461E-4 0.0024108887 -0.001159668 0.0047302246 -0.003540039 0.0051879883l-519.735 99.091736l0 0c-0.0024108887 4.5776367E-4 -0.004699707 -0.0010986328 -0.0051574707 -0.0035095215z" fill-rule="evenodd"/><path fill="#ffffff" d="m423.0049 167.28445l0 0c-2.6432495 -14.039413 6.59021 -27.589691 20.623474 -30.265366l101.63492 -19.37841l0 0c6.7390137 -1.2849121 13.706238 0.16104889 19.369019 4.0197678c5.662781 3.8587265 9.557129 9.814133 10.826477 16.556107l32.393433 172.05643c2.6431885 14.039429 -6.590271 27.589691 -20.623535 30.26538l-101.63489 19.378418c-14.033295 2.6756897 -27.552277 -6.5364685 -30.195496 -20.575867z" fill-rule="evenodd"/><path fill="#999999" d="m445.20123 219.52086l0 0c-0.52059937 -2.7650604 1.2979126 -5.433777 4.0617676 -5.9607544l118.57855 -22.608994c1.3272095 -0.25306702 2.6994019 0.031707764 3.8146973 0.791687c1.1152954 0.75997925 1.8822632 1.9328918 2.1322632 3.260727l0 0l0 0c0.5206299 2.7650604 -1.2979126 5.433777 -4.0617676 5.9607544l-118.57852 22.608994c-2.763855 0.52697754 -5.426422 -1.2873535 -5.946991 -4.052414z" fill-rule="evenodd"/><path stroke="#b7b7b7" stroke-width="1.0" stroke-linejoin="round" stroke-linecap="butt" d="m445.20123 219.52086l0 0c-0.52059937 -2.7650604 1.2979126 -5.433777 4.0617676 -5.9607544l118.57855 -22.608994c1.3272095 -0.25306702 2.6994019 0.031707764 3.8146973 0.791687c1.1152954 0.75997925 1.8822632 1.9328918 2.1322632 3.260727l0 0l0 0c0.5206299 2.7650604 -1.2979126 5.433777 -4.0617676 5.9607544l-118.57852 22.608994c-2.763855 0.52697754 -5.426422 -1.2873535 -5.946991 -4.052414z" fill-rule="evenodd"/><path fill="#999999" d="m449.8806 244.37537l0 0c-0.52056885 -2.7650604 1.2979431 -5.433792 4.061798 -5.9607544l118.57852 -22.609009c1.3272705 -0.25305176 2.699463 0.031723022 3.8147583 0.7917023c1.1152344 0.75997925 1.8822632 1.9328918 2.1322632 3.2607117l0 0l0 0c0.52056885 2.7650604 -1.2979736 5.433792 -4.0618286 5.9607697l-118.57852 22.608994c-2.7638245 0.52697754 -5.4263916 -1.2873535 -5.946991 -4.052414z" fill-rule="evenodd"/><path stroke="#b7b7b7" stroke-width="1.0" stroke-linejoin="round" stroke-linecap="butt" d="m449.8806 244.37537l0 0c-0.52056885 -2.7650604 1.2979431 -5.433792 4.061798 -5.9607544l118.57852 -22.609009c1.3272705 -0.25305176 2.699463 0.031723022 3.8147583 0.7917023c1.1152344 0.75997925 1.8822632 1.9328918 2.1322632 3.2607117l0 0l0 0c0.52056885 2.7650604 -1.2979736 5.433792 -4.0618286 5.9607697l-118.57852 22.608994c-2.7638245 0.52697754 -5.4263916 -1.2873535 -5.946991 -4.052414z" fill-rule="evenodd"/><path fill="#999999" d="m454.56003 269.22986l0 0c-0.52056885 -2.7650452 1.2979431 -5.433777 4.061798 -5.9607544l118.57855 -22.608994c1.3272095 -0.25306702 2.6994019 0.031723022 3.8146973 0.7917023c1.1152954 0.759964 1.8822632 1.9328918 2.1322632 3.2607117l0 0l0 0c0.52056885 2.7650604 -1.2979126 5.433792 -4.0617676 5.9607544l-118.57855 22.609009c-2.763855 0.52697754 -5.4263916 -1.2873535 -5.946991 -4.052429z" fill-rule="evenodd"/><path stroke="#b7b7b7" stroke-width="1.0" stroke-linejoin="round" stroke-linecap="butt" d="m454.56003 269.22986l0 0c-0.52056885 -2.7650452 1.2979431 -5.433777 4.061798 -5.9607544l118.57855 -22.608994c1.3272095 -0.25306702 2.6994019 0.031723022 3.8146973 0.7917023c1.1152954 0.759964 1.8822632 1.9328918 2.1322632 3.2607117l0 0l0 0c0.52056885 2.7650604 -1.2979126 5.433792 -4.0617676 5.9607544l-118.57855 22.609009c-2.763855 0.52697754 -5.4263916 -1.2873535 -5.946991 -4.052429z" fill-rule="evenodd"/><path fill="#999999" d="m459.23944 294.08438l0 0c-0.52056885 -2.7650757 1.2979431 -5.4338074 4.061798 -5.9607544l118.57852 -22.609009c1.3272705 -0.25305176 2.699463 0.031707764 3.8146973 0.791687c1.1152954 0.75997925 1.8823242 1.9328918 2.1323242 3.2607117l0 0l0 0c0.52056885 2.7650757 -1.2979736 5.4338074 -4.0618286 5.960785l-118.57852 22.608978c-2.763855 0.52697754 -5.426422 -1.2873535 -5.946991 -4.0523987z" fill-rule="evenodd"/><path stroke="#b7b7b7" stroke-width="1.0" stroke-linejoin="round" stroke-linecap="butt" d="m459.23944 294.08438l0 0c-0.52056885 -2.7650757 1.2979431 -5.4338074 4.061798 -5.9607544l118.57852 -22.609009c1.3272705 -0.25305176 2.699463 0.031707764 3.8146973 0.791687c1.1152954 0.75997925 1.8823242 1.9328918 2.1323242 3.2607117l0 0l0 0c0.52056885 2.7650757 -1.2979736 5.4338074 -4.0618286 5.960785l-118.57852 22.608978c-2.763855 0.52697754 -5.426422 -1.2873535 -5.946991 -4.0523987z" fill-rule="evenodd"/><path fill="#999999" d="m463.91885 318.93887l0 0c-0.52059937 -2.7650452 1.2979431 -5.433777 4.061798 -5.9607544l118.57849 -22.609009c1.3272705 -0.25305176 2.699463 0.03173828 3.8147583 0.7917175c1.1152954 0.75994873 1.8822632 1.9328613 2.1322632 3.2607117l0 0l0 0c0.52056885 2.7650452 -1.2979736 5.433777 -4.0617676 5.9607544l-118.57855 22.609009c-2.763855 0.526947 -5.426422 -1.2873535 -5.946991 -4.052429z" fill-rule="evenodd"/><path stroke="#b7b7b7" stroke-width="1.0" stroke-linejoin="round" stroke-linecap="butt" d="m463.91885 318.93887l0 0c-0.52059937 -2.7650452 1.2979431 -5.433777 4.061798 -5.9607544l118.57849 -22.609009c1.3272705 -0.25305176 2.699463 0.03173828 3.8147583 0.7917175c1.1152954 0.75994873 1.8822632 1.9328613 2.1322632 3.2607117l0 0l0 0c0.52056885 2.7650452 -1.2979736 5.433777 -4.0617676 5.9607544l-118.57855 22.609009c-2.763855 0.526947 -5.426422 -1.2873535 -5.946991 -4.052429z" fill-rule="evenodd"/><path fill="#1472ff" d="m434.88315 164.7168l0 0c-0.34680176 -1.8419342 0.864624 -3.61969 2.705719 -3.9707184l121.920044 -23.246124c0.8841553 -0.16856384 1.7982178 0.021133423 2.5411377 0.5273895c0.7429199 0.5062561 1.2539062 1.2875824 1.4204102 2.172104l2.7509766 14.611801c0.34680176 1.8419342 -0.864624 3.61969 -2.7057495 3.9707184l-121.91998 23.246109c-1.8411255 0.3510437 -3.6147766 -0.8575592 -3.9615784 -2.6994781z" fill-rule="evenodd"/><path fill="#ffffff" d="m591.4538 135.16753l0 0c-2.6432495 -14.039413 6.59021 -27.589684 20.623474 -30.265366l101.63495 -19.37841l0 0c6.7390137 -1.2849045 13.706238 0.16104889 19.368958 4.0197754c5.662781 3.8587265 9.55719 9.814133 10.826477 16.556099l32.393433 172.05644c2.6432495 14.039429 -6.59021 27.589691 -20.623474 30.26538l-101.63495 19.378387c-14.033264 2.6756897 -27.552246 -6.536438 -30.195496 -20.575867z" fill-rule="evenodd"/><path fill="#999999" d="m613.6501 187.40393l0 0c-0.52056885 -2.7650604 1.2979736 -5.433777 4.0618286 -5.9607544l118.57849 -22.608994c1.3272705 -0.25306702 2.699463 0.031723022 3.8147583 0.791687c1.1152344 0.75997925 1.8822632 1.9328918 2.1322632 3.260727l0 0l0 0c0.52056885 2.7650604 -1.2979736 5.433777 -4.0618286 5.9607544l-118.57849 22.608994c-2.763855 0.52697754 -5.4264526 -1.2873535 -5.9470215 -4.052414z" fill-rule="evenodd"/><path stroke="#b7b7b7" stroke-width="1.0" stroke-linejoin="round" stroke-linecap="butt" d="m613.6501 187.40393l0 0c-0.52056885 -2.7650604 1.2979736 -5.433777 4.0618286 -5.9607544l118.57849 -22.608994c1.3272705 -0.25306702 2.699463 0.031723022 3.8147583 0.791687c1.1152344 0.75997925 1.8822632 1.9328918 2.1322632 3.260727l0 0l0 0c0.52056885 2.7650604 -1.2979736 5.433777 -4.0618286 5.9607544l-118.57849 22.608994c-2.763855 0.52697754 -5.4264526 -1.2873535 -5.9470215 -4.052414z" fill-rule="evenodd"/><path fill="#999999" d="m618.3295 212.25844l0 0c-0.5206299 -2.7650604 1.2979126 -5.433777 4.0617676 -5.9607544l118.57855 -22.608994c1.3272095 -0.25306702 2.6994019 0.031707764 3.8146973 0.791687c1.1152954 0.75997925 1.8822632 1.9328918 2.1322632 3.260727l0 0l0 0c0.52056885 2.7650604 -1.2979126 5.433777 -4.0617676 5.9607544l-118.57855 22.608994c-2.763855 0.52697754 -5.4263916 -1.2873535 -5.9469604 -4.052414z" fill-rule="evenodd"/><path stroke="#b7b7b7" stroke-width="1.0" stroke-linejoin="round" stroke-linecap="butt" d="m618.3295 212.25844l0 0c-0.5206299 -2.7650604 1.2979126 -5.433777 4.0617676 -5.9607544l118.57855 -22.608994c1.3272095 -0.25306702 2.6994019 0.031707764 3.8146973 0.791687c1.1152954 0.75997925 1.8822632 1.9328918 2.1322632 3.260727l0 0l0 0c0.52056885 2.7650604 -1.2979126 5.433777 -4.0617676 5.9607544l-118.57855 22.608994c-2.763855 0.52697754 -5.4263916 -1.2873535 -5.9469604 -4.052414z" fill-rule="evenodd"/><path fill="#999999" d="m623.0089 237.11295l0 0c-0.52056885 -2.7650604 1.2979736 -5.433792 4.0617676 -5.9607544l118.57855 -22.609009c1.3272705 -0.25305176 2.699463 0.031723022 3.8146973 0.7917023c1.1152954 0.759964 1.8823242 1.9328918 2.1323242 3.2607117l0 0l0 0c0.52056885 2.7650604 -1.2979736 5.433792 -4.0618286 5.9607544l-118.57849 22.609009c-2.763855 0.5269623 -5.4264526 -1.2873535 -5.9470215 -4.052414z" fill-rule="evenodd"/><path stroke="#b7b7b7" stroke-width="1.0" stroke-linejoin="round" stroke-linecap="butt" d="m623.0089 237.11295l0 0c-0.52056885 -2.7650604 1.2979736 -5.433792 4.0617676 -5.9607544l118.57855 -22.609009c1.3272705 -0.25305176 2.699463 0.031723022 3.8146973 0.7917023c1.1152954 0.759964 1.8823242 1.9328918 2.1323242 3.2607117l0 0l0 0c0.52056885 2.7650604 -1.2979736 5.433792 -4.0618286 5.9607544l-118.57849 22.609009c-2.763855 0.5269623 -5.4264526 -1.2873535 -5.9470215 -4.052414z" fill-rule="evenodd"/><path fill="#999999" d="m627.6883 261.96744l0 0c-0.52056885 -2.7650452 1.2979736 -5.433777 4.0618286 -5.9607544l118.57849 -22.608994c1.3272705 -0.25306702 2.699463 0.031723022 3.8147583 0.791687c1.1152954 0.75997925 1.8822632 1.9328918 2.1322632 3.260727l0 0l0 0c0.52056885 2.7650604 -1.2979126 5.433777 -4.0617676 5.9607544l-118.57855 22.609009c-2.763855 0.52697754 -5.4263916 -1.2873535 -5.9470215 -4.052429z" fill-rule="evenodd"/><path stroke="#b7b7b7" stroke-width="1.0" stroke-linejoin="round" stroke-linecap="butt" d="m627.6883 261.96744l0 0c-0.52056885 -2.7650452 1.2979736 -5.433777 4.0618286 -5.9607544l118.57849 -22.608994c1.3272705 -0.25306702 2.699463 0.031723022 3.8147583 0.791687c1.1152954 0.75997925 1.8822632 1.9328918 2.1322632 3.260727l0 0l0 0c0.52056885 2.7650604 -1.2979126 5.433777 -4.0617676 5.9607544l-118.57855 22.609009c-2.763855 0.52697754 -5.4263916 -1.2873535 -5.9470215 -4.052429z" fill-rule="evenodd"/><path fill="#999999" d="m632.36774 286.82196l0 0c-0.52056885 -2.7650757 1.2979126 -5.4338074 4.0617676 -5.960785l118.57855 -22.608978c1.3272705 -0.25305176 2.699463 0.031707764 3.8146973 0.791687c1.1152954 0.75997925 1.8823242 1.9328918 2.1322632 3.2607117l0 0l0 0c0.5206299 2.7650757 -1.2979126 5.4338074 -4.0617676 5.9607544l-118.57855 22.609009c-2.763855 0.52697754 -5.4263916 -1.2873535 -5.9469604 -4.0523987z" fill-rule="evenodd"/><path stroke="#b7b7b7" stroke-width="1.0" stroke-linejoin="round" stroke-linecap="butt" d="m632.36774 286.82196l0 0c-0.52056885 -2.7650757 1.2979126 -5.4338074 4.0617676 -5.960785l118.57855 -22.608978c1.3272705 -0.25305176 2.699463 0.031707764 3.8146973 0.791687c1.1152954 0.75997925 1.8823242 1.9328918 2.1322632 3.2607117l0 0l0 0c0.5206299 2.7650757 -1.2979126 5.4338074 -4.0617676 5.9607544l-118.57855 22.609009c-2.763855 0.52697754 -5.4263916 -1.2873535 -5.9469604 -4.0523987z" fill-rule="evenodd"/><path fill="#1472ff" d="m603.33203 132.59987l0 0c-0.34680176 -1.8419342 0.864624 -3.61969 2.7057495 -3.9707184l121.91998 -23.246117c0.8841553 -0.16857147 1.7982178 0.021133423 2.5411987 0.5273819c0.7429199 0.5062561 1.2538452 1.2875824 1.4203491 2.1721115l2.7510376 14.611801c0.34674072 1.8419266 -0.864624 3.6196747 -2.7057495 3.9707184l-121.920044 23.246117c-1.8411255 0.35102844 -3.614746 -0.85757446 -3.9615479 -2.6994934z" fill-rule="evenodd"/><path fill="#ffffff" d="m754.59973 104.061005l0 0c-2.6432495 -14.039421 6.59021 -27.589691 20.623474 -30.265373l101.63495 -19.378407l0 0c6.7390137 -1.2849083 13.706238 0.16104507 19.369019 4.0197716c5.6627197 3.8587265 9.557129 9.814133 10.826477 16.556099l32.39337 172.05646c2.6432495 14.039413 -6.59021 27.589676 -20.623474 30.265366l-101.63495 19.378418c-14.033264 2.6756592 -27.552246 -6.5364685 -30.195435 -20.575897z" fill-rule="evenodd"/><path fill="#999999" d="m776.796 156.29741l0 0c-0.52056885 -2.7650604 1.2979736 -5.433777 4.0618286 -5.9607544l118.57849 -22.609001c1.3272705 -0.2530594 2.699463 0.031715393 3.8147583 0.79169464c1.1152344 0.75997925 1.8822632 1.9328918 2.1322632 3.2607117l0 0l0 0c0.52056885 2.7650604 -1.2979736 5.433792 -4.0618286 5.9607697l-118.57849 22.608994c-2.763855 0.52697754 -5.4263916 -1.2873535 -5.9470215 -4.052414z" fill-rule="evenodd"/><path stroke="#b7b7b7" stroke-width="1.0" stroke-linejoin="round" stroke-linecap="butt" d="m776.796 156.29741l0 0c-0.52056885 -2.7650604 1.2979736 -5.433777 4.0618286 -5.9607544l118.57849 -22.609001c1.3272705 -0.2530594 2.699463 0.031715393 3.8147583 0.79169464c1.1152344 0.75997925 1.8822632 1.9328918 2.1322632 3.2607117l0 0l0 0c0.52056885 2.7650604 -1.2979736 5.433792 -4.0618286 5.9607697l-118.57849 22.608994c-2.763855 0.52697754 -5.4263916 -1.2873535 -5.9470215 -4.052414z" fill-rule="evenodd"/><path fill="#999999" d="m781.47546 181.15192l0 0c-0.5206299 -2.7650604 1.2979126 -5.433792 4.0617676 -5.9607697l118.57855 -22.608994c1.3272095 -0.25305176 2.6994019 0.031723022 3.8146973 0.7917023c1.1152954 0.759964 1.8822632 1.9328918 2.1322632 3.2607117l0 0l0 0c0.5206299 2.7650604 -1.2979126 5.433792 -4.0617676 5.9607544l-118.57855 22.609009c-2.763855 0.5269623 -5.4263916 -1.2873535 -5.9469604 -4.052414z" fill-rule="evenodd"/><path stroke="#b7b7b7" stroke-width="1.0" stroke-linejoin="round" stroke-linecap="butt" d="m781.47546 181.15192l0 0c-0.5206299 -2.7650604 1.2979126 -5.433792 4.0617676 -5.9607697l118.57855 -22.608994c1.3272095 -0.25305176 2.6994019 0.031723022 3.8146973 0.7917023c1.1152954 0.759964 1.8822632 1.9328918 2.1322632 3.2607117l0 0l0 0c0.5206299 2.7650604 -1.2979126 5.433792 -4.0617676 5.9607544l-118.57855 22.609009c-2.763855 0.5269623 -5.4263916 -1.2873535 -5.9469604 -4.052414z" fill-rule="evenodd"/><path fill="#999999" d="m786.15485 206.00641l0 0c-0.52056885 -2.7650604 1.2979736 -5.433777 4.0618286 -5.9607544l118.57849 -22.608994c1.3272705 -0.25306702 2.699463 0.031723022 3.8147583 0.791687c1.1152344 0.75997925 1.8822632 1.9328918 2.1322632 3.260727l0 0l0 0c0.52056885 2.7650604 -1.2979736 5.433777 -4.0618286 5.9607544l-118.57849 22.608994c-2.763855 0.52697754 -5.4264526 -1.2873535 -5.9470215 -4.052414z" fill-rule="evenodd"/><path stroke="#b7b7b7" stroke-width="1.0" stroke-linejoin="round" stroke-linecap="butt" d="m786.15485 206.00641l0 0c-0.52056885 -2.7650604 1.2979736 -5.433777 4.0618286 -5.9607544l118.57849 -22.608994c1.3272705 -0.25306702 2.699463 0.031723022 3.8147583 0.791687c1.1152344 0.75997925 1.8822632 1.9328918 2.1322632 3.260727l0 0l0 0c0.52056885 2.7650604 -1.2979736 5.433777 -4.0618286 5.9607544l-118.57849 22.608994c-2.763855 0.52697754 -5.4264526 -1.2873535 -5.9470215 -4.052414z" fill-rule="evenodd"/><path fill="#999999" d="m790.8343 230.86092l0 0c-0.5206299 -2.7650604 1.2979126 -5.433777 4.0617676 -5.9607544l118.57855 -22.608994c1.3272095 -0.25306702 2.6994019 0.031707764 3.8146973 0.791687c1.1152954 0.75997925 1.8822632 1.9328918 2.1322632 3.260727l0 0l0 0c0.52056885 2.7650604 -1.2979126 5.433777 -4.0617676 5.9607544l-118.57855 22.608994c-2.763855 0.52697754 -5.4263916 -1.2873535 -5.9469604 -4.052414z" fill-rule="evenodd"/><path stroke="#b7b7b7" stroke-width="1.0" stroke-linejoin="round" stroke-linecap="butt" d="m790.8343 230.86092l0 0c-0.5206299 -2.7650604 1.2979126 -5.433777 4.0617676 -5.9607544l118.57855 -22.608994c1.3272095 -0.25306702 2.6994019 0.031707764 3.8146973 0.791687c1.1152954 0.75997925 1.8822632 1.9328918 2.1322632 3.260727l0 0l0 0c0.52056885 2.7650604 -1.2979126 5.433777 -4.0617676 5.9607544l-118.57855 22.608994c-2.763855 0.52697754 -5.4263916 -1.2873535 -5.9469604 -4.052414z" fill-rule="evenodd"/><path fill="#999999" d="m795.5137 255.71542l0 0c-0.52056885 -2.7650604 1.2979126 -5.433792 4.0617676 -5.9607544l118.57855 -22.609009c1.3272705 -0.25305176 2.699463 0.031723022 3.8146973 0.7917023c1.1152954 0.75997925 1.8823242 1.9328918 2.1323242 3.2607117l0 0l0 0c0.52056885 2.7650604 -1.2979736 5.433792 -4.0618286 5.9607697l-118.57855 22.608978c-2.763794 0.52697754 -5.4263916 -1.2873535 -5.9469604 -4.0523987z" fill-rule="evenodd"/><path stroke="#b7b7b7" stroke-width="1.0" stroke-linejoin="round" stroke-linecap="butt" d="m795.5137 255.71542l0 0c-0.52056885 -2.7650604 1.2979126 -5.433792 4.0617676 -5.9607544l118.57855 -22.609009c1.3272705 -0.25305176 2.699463 0.031723022 3.8146973 0.7917023c1.1152954 0.75997925 1.8823242 1.9328918 2.1323242 3.2607117l0 0l0 0c0.52056885 2.7650604 -1.2979736 5.433792 -4.0618286 5.9607697l-118.57855 22.608978c-2.763794 0.52697754 -5.4263916 -1.2873535 -5.9469604 -4.0523987z" fill-rule="evenodd"/><path fill="#1472ff" d="m766.47797 101.49334l0 0c-0.34680176 -1.8419266 0.864624 -3.6196823 2.7057495 -3.9707184l121.920044 -23.246109c0.88409424 -0.1685791 1.7982178 0.021125793 2.5411377 0.52737427c0.7429199 0.5062561 1.2538452 1.28759 1.4204102 2.1721115l2.7509766 14.611801c0.34680176 1.8419266 -0.864624 3.6196823 -2.7057495 3.9707184l-121.920044 23.246117c-1.8411255 0.35103607 -3.614746 -0.85756683 -3.9615479 -2.6994934z" fill-rule="evenodd"/><path fill="#ffffff" d="m441.95148 379.0749l0 0c1.7362671 -9.66272 10.965759 -16.027405 20.614655 -14.215912l519.8418 97.59549c4.633545 0.86990356 8.746094 3.5474854 11.432983 7.4437256c2.6868286 3.8962402 3.7278442 8.691956 2.894104 13.332153l-52.234253 290.69507c-1.7362671 9.66272 -10.965759 16.027405 -20.614685 14.215942l-519.84174 -97.59552l0 0c-9.648895 -1.8114624 -16.063354 -11.113159 -14.327087 -20.775879z" fill-rule="evenodd"/><path stroke="#999999" stroke-width="1.0" stroke-linejoin="round" stroke-linecap="butt" d="m441.95148 379.0749l0 0c1.7362671 -9.66272 10.965759 -16.027405 20.614655 -14.215912l519.8418 97.59549c4.633545 0.86990356 8.746094 3.5474854 11.432983 7.4437256c2.6868286 3.8962402 3.7278442 8.691956 2.894104 13.332153l-52.234253 290.69507c-1.7362671 9.66272 -10.965759 16.027405 -20.614685 14.215942l-519.84174 -97.59552l0 0c-9.648895 -1.8114624 -16.063354 -11.113159 -14.327087 -20.775879z" fill-rule="evenodd"/><path fill="#f0f2f5" d="m464.6705 401.22678l0 0c3.9672852E-4 -0.002319336 0.0026245117 -0.0038452148 0.0049438477 -0.0034179688l503.12088 94.46063c0.0010986328 2.1362305E-4 0.0020751953 8.544922E-4 0.002746582 0.0017700195c6.1035156E-4 9.460449E-4 9.1552734E-4 0.002105713 6.713867E-4 0.0032043457l-47.969727 266.9383c-4.272461E-4 0.002319336 -0.0026245117 0.0038452148 -0.0049438477 0.0033569336l-503.1209 -94.46063l0 0c-0.002319336 -4.272461E-4 -0.0038452148 -0.0026245117 -0.0034484863 -0.0049438477z" fill-rule="evenodd"/><path stroke="#b7b7b7" stroke-width="1.0" stroke-linejoin="round" stroke-linecap="butt" d="m464.6705 401.22678l0 0c3.9672852E-4 -0.002319336 0.0026245117 -0.0038452148 0.0049438477 -0.0034179688l503.12088 94.46063c0.0010986328 2.1362305E-4 0.0020751953 8.544922E-4 0.002746582 0.0017700195c6.1035156E-4 9.460449E-4 9.1552734E-4 0.002105713 6.713867E-4 0.0032043457l-47.969727 266.9383c-4.272461E-4 0.002319336 -0.0026245117 0.0038452148 -0.0049438477 0.0033569336l-503.1209 -94.46063l0 0c-0.002319336 -4.272461E-4 -0.0038452148 -0.0026245117 -0.0034484863 -0.0049438477z" fill-rule="evenodd"/><path fill="#ffffff" d="m481.52237 541.0455l0 0c1.459137 -7.3738403 8.611206 -12.126526 15.974579 -10.615356l60.320984 12.379395c3.5360107 0.725708 6.6488647 2.828308 8.653748 5.845337c2.0048828 3.0170898 2.7375488 6.701355 2.0368042 10.242432l-10.567688 53.404602c-1.4591675 7.3738403 -8.611206 12.126526 -15.974609 10.615356l-60.320953 -12.379395c-7.3634033 -1.5111694 -12.149719 -8.713867 -10.690582 -16.087769z" fill-rule="evenodd"/><path fill="#6fa8dc" d="m493.87466 478.6224l0 0c1.459137 -7.3738403 8.611206 -12.126526 15.974579 -10.615356l60.320984 12.379425c3.5360107 0.7256775 6.6488647 2.828308 8.653748 5.845337c2.0048218 3.0170288 2.7375488 6.7013245 2.0368042 10.242401l-10.567688 53.404633c-1.4591675 7.3738403 -8.611206 12.126526 -15.974609 10.615356l-60.320984 -12.379456c-7.363373 -1.5111084 -12.149689 -8.713867 -10.690552 -16.087708z" fill-rule="evenodd"/><path fill="#999999" d="m487.92395 561.27344l0 0c0.14852905 -0.75061035 0.8765564 -1.234375 1.6260681 -1.0805664l64.27536 13.190918c0.35992432 0.073913574 0.6767578 0.28790283 0.8808594 0.59503174c0.20410156 0.3071289 0.27868652 0.6821289 0.20733643 1.0426025l-1.0756836 5.436096c-0.14855957 0.75061035 -0.8765869 1.234375 -1.6260986 1.0805664l-64.27533 -13.190979c-0.74954224 -0.1538086 -1.2367554 -0.8869629 -1.0882263 -1.6375732z" fill-rule="evenodd"/><path fill="#999999" d="m483.8401 581.91156l0 0c0.14852905 -0.75061035 0.8765259 -1.234375 1.6260681 -1.0805664l64.27536 13.190918c0.35992432 0.073913574 0.6767578 0.28790283 0.8808594 0.59503174c0.20404053 0.3071289 0.2786255 0.6821289 0.20733643 1.0426025l-1.0757446 5.436096c-0.14849854 0.75061035 -0.8765259 1.234375 -1.6260376 1.0805664l-64.27536 -13.190979c-0.7495117 -0.1538086 -1.2367249 -0.8869629 -1.0881958 -1.6375732z" fill-rule="evenodd"/><path fill="#ffffff" d="m594.84076 560.41516l0 0c1.4591675 -7.3739014 8.611206 -12.126526 15.974609 -10.6154175l60.320984 12.379456c3.5360107 0.725647 6.6488647 2.828308 8.653687 5.845337c2.0048828 3.0170288 2.7375488 6.701355 2.0368652 10.242371l-10.567688 53.404663c-1.4591675 7.3738403 -8.611206 12.126526 -15.974609 10.615356l-60.320984 -12.379456c-7.3634033 -1.5111084 -12.149719 -8.713867 -10.690552 -16.087708z" fill-rule="evenodd"/><path fill="#f6b26b" d="m607.19305 497.99207l0 0c1.4591675 -7.3738403 8.611206 -12.126495 15.974609 -10.615356l60.320984 12.379425c3.5360107 0.7256775 6.6488647 2.828308 8.653687 5.845337c2.0048828 3.0170593 2.7375488 6.7013245 2.0368652 10.242401l-10.567749 53.404602c-1.4591064 7.3739014 -8.611206 12.126526 -15.974548 10.615356l-60.320984 -12.379395c-7.3634033 -1.5111694 -12.149719 -8.713867 -10.690552 -16.087769z" fill-rule="evenodd"/><path fill="#999999" d="m601.2424 580.64307l0 0c0.14849854 -0.75061035 0.8765259 -1.234375 1.6260376 -1.0805664l64.27533 13.190979c0.35998535 0.07385254 0.67681885 0.28790283 0.8809204 0.59503174c0.20404053 0.30706787 0.2786255 0.6821289 0.20733643 1.0425415l-1.0757446 5.436157c-0.14849854 0.7505493 -0.8765259 1.234375 -1.6260376 1.0805054l-64.27533 -13.190918c-0.74957275 -0.1538086 -1.2367554 -0.8870239 -1.0882568 -1.6375732z" fill-rule="evenodd"/><path fill="#999999" d="m597.15845 601.2812l0 0c0.14855957 -0.75061035 0.8765869 -1.234375 1.6260986 -1.0805664l64.27533 13.190979c0.35992432 0.07385254 0.67681885 0.28790283 0.8808594 0.59503174c0.20410156 0.30706787 0.27868652 0.6821289 0.20733643 1.0425415l-1.0756836 5.436157c-0.14849854 0.7505493 -0.8765259 1.234375 -1.6260376 1.0805054l-64.27539 -13.190918c-0.7495117 -0.1538086 -1.2366943 -0.8870239 -1.0881958 -1.6375732z" fill-rule="evenodd"/><path fill="#ffffff" d="m706.4602 584.17773l0 0c1.4591675 -7.3739014 8.611206 -12.126526 15.974609 -10.615356l60.320984 12.379395c3.5360107 0.725647 6.6488647 2.828308 8.653748 5.845337c2.0048218 3.0170288 2.7375488 6.701355 2.0368042 10.242371l-10.567688 53.404663c-1.4591675 7.3738403 -8.611206 12.126526 -15.974609 10.615356l-60.320984 -12.379456c-7.3633423 -1.5111084 -12.149719 -8.713867 -10.690552 -16.087708z" fill-rule="evenodd"/><path fill="#e06666" d="m718.8125 521.75464l0 0c1.4591675 -7.3738403 8.611206 -12.126495 15.974609 -10.615356l60.320984 12.379395c3.5360107 0.725708 6.6488647 2.8283691 8.653748 5.845398c2.0048218 3.0170288 2.7374878 6.701294 2.0368042 10.242371l-10.567688 53.404602c-1.4591675 7.3739014 -8.611206 12.126526 -15.974609 10.615356l-60.320984 -12.379395c-7.3634033 -1.5111694 -12.149719 -8.713867 -10.690552 -16.087708z" fill-rule="evenodd"/><path fill="#999999" d="m712.8618 604.40564l0 0c0.14849854 -0.75061035 0.8765259 -1.234375 1.6260376 -1.0805664l64.27539 13.190979c0.35992432 0.07385254 0.6767578 0.28790283 0.8808594 0.59503174c0.20404053 0.30706787 0.2786255 0.6821289 0.20733643 1.0425415l-1.0756836 5.436157c-0.14855957 0.75061035 -0.8765869 1.234375 -1.6260986 1.0805664l-64.27533 -13.190979c-0.74957275 -0.1538086 -1.2367554 -0.8870239 -1.0881958 -1.6375732z" fill-rule="evenodd"/><path fill="#999999" d="m708.77795 625.04376l0 0c0.14849854 -0.75061035 0.8765259 -1.234375 1.6260376 -1.0805664l64.27533 13.190979c0.35998535 0.07385254 0.67681885 0.28790283 0.8809204 0.59503174c0.20404053 0.30706787 0.2786255 0.6821289 0.20733643 1.0425415l-1.0757446 5.436157c-0.14849854 0.7505493 -0.8765259 1.234375 -1.6260376 1.0805664l-64.27533 -13.190979c-0.74957275 -0.1538086 -1.2367554 -0.8870239 -1.0882568 -1.6375732z" fill-rule="evenodd"/><path fill="#ffffff" d="m819.34296 604.6739l0 0c1.4591675 -7.3739014 8.611206 -12.126526 15.974609 -10.615356l60.320984 12.379395c3.5360107 0.725708 6.6488647 2.828308 8.653687 5.845337c2.0048828 3.0170288 2.7375488 6.701355 2.0368652 10.242371l-10.567688 53.404663c-1.4591675 7.3738403 -8.611206 12.126526 -15.974609 10.615356l-60.320984 -12.379395c-7.3634033 -1.5111694 -12.149719 -8.713928 -10.690552 -16.087769z" fill-rule="evenodd"/><path fill="#c27ba0" d="m831.69525 542.2508l0 0c1.4591064 -7.3738403 8.611206 -12.126526 15.974548 -10.615356l60.321045 12.379456c3.5360107 0.725647 6.6488037 2.828308 8.653687 5.845337c2.0048828 3.0170288 2.7375488 6.701294 2.0368652 10.242371l-10.567749 53.404602c-1.4591064 7.3739014 -8.611206 12.126526 -15.974548 10.6154175l-60.320984 -12.379456c-7.3634033 -1.5111694 -12.149719 -8.713867 -10.690613 -16.087708z" fill-rule="evenodd"/><path fill="#999999" d="m825.74457 624.9018l0 0c0.14849854 -0.7505493 0.8765259 -1.234375 1.6260376 -1.0805054l64.27533 13.190918c0.35998535 0.07385254 0.67681885 0.28790283 0.8809204 0.59503174c0.20404053 0.30706787 0.2786255 0.6821289 0.20733643 1.0425415l-1.0757446 5.436157c-0.14849854 0.75061035 -0.8765259 1.234375 -1.6260376 1.0805664l-64.27539 -13.190979c-0.7495117 -0.1538086 -1.2366943 -0.8869629 -1.0881958 -1.6375732z" fill-rule="evenodd"/><path fill="#999999" d="m821.66064 645.5399l0 0c0.14855957 -0.7505493 0.8765869 -1.234375 1.6260986 -1.0805054l64.27533 13.190918c0.35992432 0.07385254 0.67681885 0.28790283 0.8808594 0.59503174c0.20410156 0.30706787 0.27868652 0.6821289 0.20733643 1.0425415l-1.0756836 5.436157c-0.14849854 0.75061035 -0.8765259 1.234375 -1.6260986 1.0805664l-64.27533 -13.190979c-0.7495117 -0.1538086 -1.2366943 -0.8869629 -1.0881958 -1.6375732z" fill-rule="evenodd"/></g></svg>