<svg id="svg1" viewbox="0 0 800 600" xmlns="http://www.w3.org/2000/svg">
    <g id="FIRST_FLOOR">
        <rect id="svg_02" height="38" width="54" y="162" x="127" stroke="#000" fill="#fff"/>
        <rect id="svg_03" height="38" width="54" y="200" x="127" stroke="#000" fill="#fff"/>
        <rect id="svg_04" height="59" width="55" y="86" x="126" stroke="#000" fill="#fff"/>
        <rect stroke="#000" id="svg_05" height="59" width="38" y="86" x="181" fill="#fff"/>
        <rect id="svg_06" height="60" width="66" y="88" x="235" stroke="#000" fill="#fff"/>
        <rect id="svg_07" height="65" width="93" y="112" x="333" stroke="#000" fill="#fff"/>
        <rect stroke="#000" id="svg_08" height="158" width="123" y="161" x="197" fill="#fff"/>
        <rect stroke="#000" id="svg_09" height="71" width="74" y="177" x="320" fill="#fff"/>
        <rect stroke="#000" id="svg_010" height="71" width="74" y="248" x="320" fill="#fff"/>
        <rect stroke="#000" id="svg_012" height="34" width="70" y="193" x="436" fill="#fff"/>
        <rect id="svg_013" height="46" width="54" y="181" x="506" stroke="#000" fill="#fff"/>
        <rect stroke="#000" id="svg_014" height="41" width="49" y="243" x="584" fill="#fff"/>
        <rect stroke="#000" id="svg_019" height="42" width="49" y="284" x="584" fill="#fff"/>
        <rect stroke="#000" id="svg_020" height="37" width="49" y="326" x="584" fill="#fff"/>
        <rect stroke="#000" id="svg_021" height="41" width="49" y="363" x="584" fill="#fff"/>
        <rect stroke="#000" id="svg_023" height="55" width="41" y="347" x="493" fill="#fff"/>
        <rect stroke="#000" id="svg_025" height="55" width="34" y="347" x="534" fill="#fff"/>
        <rect stroke="#000" id="svg_026" height="77" width="46" y="323" x="447" fill="#fff"/>
        <rect stroke="#000" id="svg_027" height="66.00001" width="60" y="256.99999" x="447" fill="#fff"/>
        <rect stroke="#000" id="svg_028" height="104.00001" width="79" y="368" x="304" fill="#fff"/>
        <rect id="svg_029" height="33" width="17" y="368" x="383" stroke="#000" fill="#fff"/>
        <rect id="svg_030" height="30" width="52" y="434" x="417" stroke="#000" fill="#fff"/>
        <rect id="svg_031" height="100" width="133" y="421" x="469" stroke="#000" fill="#fff"></rect>
        <rect id="svg_032" height="109" width="53" y="420" x="602" stroke="#000" fill="#fff"/>
        <rect stroke="#000" id="svg_033" height="36" width="56" y="436" x="248" fill="#fff"/>
        <rect id="svg_034" height="101" width="134" y="335" x="144" stroke="#000" fill="#fff"/>
        <rect id="svg_035" height="89" width="54" y="453" x="179" stroke="#000" fill="#fff"/>
        <rect stroke="#000" id="svg_037" height="64" width="61" y="241" x="507" fill="#fff"/>
        <rect stroke="#000" id="svg_038" height="34" width="25" y="193" x="411" fill="#fff"/>
        <rect id="svg_0102" height="125" width="34" y="274" x="413" stroke="#000" fill="none"/>
        <rect stroke="#000" id="svg_0140" height="108.99999" width="49" y="122.00001" x="662" fill="none"/>
        <line stroke-width="5" class="Stairs1" id="Stair1L" y2="153" x2="148" y1="153" x1="101" fill="none" stroke="#000"></line>
        <line stroke-width="5" id="svg_10001" y2="153" x2="189" y1="153" x1="148" fill="none" stroke="#000"></line>
        <line stroke-width="5" id="svg_10002" y2="153" x2="224" y1="153" x1="189" fill="none" stroke="#000"></line>
        <line stroke-width="5" id="svg_10003" y2="153" x2="318" y1="153" x1="224" fill="none" stroke="#000"></line>
        <line stroke-width="5" id="svg_10004" y2="153" x2="318" y1="120" x1="318" fill="none" stroke="#000"></line>
        <line stroke-width="5" id="svg_10005" y2="153" x2="326" y1="153" x1="318" fill="none" stroke="#000"></line>
        <line stroke-width="5" id="svg_10006" y2="170" x2="326" y1="153" x1="326" fill="none" stroke="#000"></line>
        <line stroke-width="5" id="svg_10007" y2="120" x2="318" y1="120" x1="301" fill="none" stroke="#000"></line>
        <line stroke-width="5" id="svg_10008" y2="120" x2="333" y1="120" x1="318" fill="none" stroke="#000"></line>
        <line stroke-width="5" id="svg_10009" y2="170" x2="326" y1="170" x1="320" fill="none" stroke="#000"></line>
        <line stroke-width="5" id="svg_10010" y2="187" x2="404" y1="177" x1="404" fill="none" stroke="#000"></line>
        <line stroke-width="5" id="svg_10011" y2="187" x2="459" y1="187" x1="404" fill="none" stroke="#000"></line>
        <line stroke-width="5" id="svg_10012" y2="235" x2="404" y1="187" x1="404" fill="none" stroke="#000"></line>
        <line stroke-width="5" id="svg_10013" y2="235" x2="424" y1="235" x1="404" fill="none" stroke="#000"></line>
        <line stroke-width="5" id="MarketPlace" y2="235" x2="424" y1="227" x1="424" fill="none" stroke="#000"></line>
        <line stroke-width="5" id="svg_10015" y2="235" x2="444" y1="235" x1="424" fill="none" stroke="#000"></line>
        <line stroke-width="5" id="svg_10016" y2="153" x2="224" y1="144" x1="224" fill="none" stroke="#000"></line>
        <line stroke-width="5" id="FITT" y2="144" x2="235" y1="144" x1="224" fill="none" stroke="#000"></line>
        <line stroke-width="5" id="svg_10018" y2="193" x2="189" y1="153" x1="189" fill="none" stroke="#000"></line>
        <line stroke-width="5" id="svg_10019" y2="153" x2="189" y1="145" x1="189" fill="none" stroke="#000"></line>
        <line stroke-width="5" id="svg_10020" y2="153" x2="148" y1="145" x1="148" fill="none" stroke="#000"></line>
        <line stroke-width="5" id="H107" y2="193" x2="189" y1="193" x1="181" fill="none" stroke="#000"></line>
        <line stroke-width="5" id="svg_10022" y2="209" x2="189" y1="193" x1="189" fill="none" stroke="#000"></line>
        <line stroke-width="5" id="H108" y2="209" x2="189" y1="209" x1="181" fill="none" stroke="#000"></line>
        <line stroke-width="5" id="svg_10024" y2="249" x2="189" y1="209" x1="189" fill="none" stroke="#000"></line>
        <line stroke-width="5" id="svg_10025" y2="268" x2="424" y1="235" x1="424" fill="none" stroke="#000"></line>
        <line stroke-width="5" id="svg_10026" y2="268" x2="424" y1="268" x1="405" fill="none" stroke="#000"></line>
        <line stroke-width="5" id="svg_10027" y2="330" x2="405" y1="268" x1="405" fill="none" stroke="#000"></line>
        <line stroke-width="5" id="svg_10028" y2="396" x2="405" y1="330" x1="405" fill="none" stroke="#000"></line>
        <line stroke-width="5" id="svg_10029" y2="410" x2="405" y1="396" x1="405" fill="none" stroke="#000"></line>
        <line stroke-width="5" id="svg_10030" y2="423" x2="405" y1="410" x1="405" fill="none" stroke="#000"></line>
        <line stroke-width="5" id="svg_10031" y2="478" x2="405" y1="423" x1="405" fill="none" stroke="#000"></line>
        <line stroke-width="5" id="svg_10032" y2="482" x2="405" y1="478" x1="405" fill="none" stroke="#000"></line>
        <line stroke-width="5" id="svg_10033" y2="482" x2="405" y1="482" x1="383" fill="none" stroke="#000"></line>
        <line stroke-width="5" id="svg_10034" y2="482" x2="383" y1="482" x1="321" fill="none" stroke="#000"></line>
        <line stroke-width="5" id="svg_10035" y2="482" x2="321" y1="482" x1="254" fill="none" stroke="#000"></line>
        <line stroke-width="5" id="svg_10036" y2="482" x2="254" y1="482" x1="240" fill="none" stroke="#000"></line>
        <line stroke-width="5" id="MGYM" y2="468" x2="240" y1="436" x1="240" fill="none" stroke="#000"></line>
        <line stroke-width="5" id="svg_10038" y2="482" x2="240" y1="468" x1="240" fill="none" stroke="#000"></line>
        <line stroke-width="5" id="M101" y2="468" x2="240" y1="468" x1="233" fill="none" stroke="#000"></line>
        <line stroke-width="5" id="M100" y2="482" x2="254" y1="472" x1="254" fill="none" stroke="#000"></line>
        <line stroke-width="5" id="Library" y2="482" x2="321" y1="472" x1="321" fill="none" stroke="#000"></line>
        <line stroke-width="5" id="svg_10042" y2="478" x2="425" y1="478" x1="405" fill="none" stroke="#000"></line>
        <line stroke-width="5" id="Nurse" y2="478" x2="425" y1="464" x1="425" fill="none" stroke="#000"></line>
        <line stroke-width="5" id="Auditorium" y2="478" x2="469" y1="478" x1="425" fill="none" stroke="#000"></line>
        <line stroke-width="5" class="Stairs1" id="Stair5L" y2="423" x2="425" y1="423" x1="405" fill="none" stroke="#000"></line>
        <line stroke-width="5" id="WC" y2="396" x2="405" y1="396" x1="400" fill="none" stroke="#000"></line>
        <line stroke-width="5" id="svg_10047" y2="410" x2="453" y1="410" x1="405" fill="none" stroke="#000"></line>
        <line stroke-width="5" id="svg_10048" y2="330" x2="405" y1="330" x1="311" fill="none" stroke="#000"></line>
        <line stroke-width="5" class="Stairs1" id="Stair6L" y2="346" x2="311" y1="330" x1="311" fill="none" stroke="#000"></line>
        <line stroke-width="5" id="HGYM" y2="330" x2="311" y1="319" x1="311" fill="none" stroke="#000"></line>
        <line stroke-width="5" id="svg_10051" y2="330" x2="311" y1="330" x1="280" fill="none" stroke="#000"></line>
        <line stroke-width="5" id="svg_10052" y2="330" x2="280" y1="330" x1="267" fill="none" stroke="#000"></line>
        <line stroke-width="5" id="svg_10053" y2="330" x2="280" y1="319" x1="280" fill="none" stroke="#000"></line>
        <line stroke-width="5" id="svg_10054" y2="335" x2="267" y1="330" x1="267" fill="none" stroke="#000"></line>
        <line stroke-width="5" id="Cafeteria" y2="235" x2="444" y1="227" x1="444" fill="none" stroke="#000"></line>
        <line stroke-width="5" id="svg_10056" y2="274" x2="424" y1="268" x1="424" fill="none" stroke="#000"></line>
        <line stroke-width="5" id="svg_10057" y2="330" x2="413" y1="330" x1="405" fill="none" stroke="#000"></line>
        <line stroke-width="5" id="svg_10058" y2="268" x2="405" y1="256" x1="405" fill="none" stroke="#000"></line>
        <line stroke-width="5" id="svg_10059" y2="256" x2="405" y1="256" x1="394" fill="none" stroke="#000"></line>
        <line stroke-width="5" id="svg_10060" y2="246" x2="405" y1="246" x1="394" fill="none" stroke="#000"></line>
        <line stroke-width="5" id="svg_10061" y2="256" x2="405" y1="246" x1="405" fill="none" stroke="#000"></line>
        <line stroke-width="5" id="svg_10062" y2="235" x2="484" y1="235" x1="444" fill="none" stroke="#000"></line>
        <line stroke-width="5" id="BandRoom" y2="257" x2="484" y1="235" x1="484" fill="none" stroke="#000"></line>
        <line stroke-width="5" id="svg_10064" y2="235" x2="498" y1="235" x1="484" fill="none" stroke="#000"></line>
        <line stroke-width="5" id="svg_10065" y2="235" x2="498" y1="227" x1="498" fill="none" stroke="#000"></line>
        <line stroke-width="5" id="svg_10066" y2="235" x2="574" y1="235" x1="498" fill="none" stroke="#000"></line>
        <line stroke-width="5" id="svg_10067" y2="235" x2="641" y1="235" x1="574" fill="none" stroke="#000"></line>
        <line stroke-width="5" id="svg_10068" y2="280" x2="574" y1="235" x1="574" fill="none" stroke="#000"></line>
        <line stroke-width="5" id="svg_10069" y2="288" x2="574" y1="280" x1="574" fill="none" stroke="#000"></line>
        <line stroke-width="5" id="H105" y2="280" x2="584" y1="280" x1="574" fill="none" stroke="#000"></line>
        <line stroke-width="5" id="H104" y2="288" x2="584" y1="288" x1="574" fill="none" stroke="#000"></line>
        <line stroke-width="5" id="svg_10072" y2="329" x2="574" y1="288" x1="574" fill="none" stroke="#000"></line>
        <line stroke-width="5" id="svg_10073" y2="329" x2="574" y1="329" x1="497" fill="none" stroke="#000"></line>
        <line stroke-width="5" id="svg_10074" y2="329" x2="497" y1="323" x1="497" fill="none" stroke="#000"></line>
        <line stroke-width="5" id="svg_10075" y2="359" x2="574" y1="329" x1="574" fill="none" stroke="#000"></line>
        <line stroke-width="5" id="H103" y2="359" x2="584" y1="359" x1="574" fill="none" stroke="#000"></line>
        <line stroke-width="5" id="svg_10077" y2="410" x2="574" y1="359" x1="574" fill="none" stroke="#000"></line>
        <line stroke-width="5" id="H101" y2="410" x2="539" y1="402" x1="539" fill="none" stroke="#000"></line>
        <line stroke-width="5" id="H100" y2="410" x2="526" y1="402" x1="526" fill="none" stroke="#000"></line>
        <line stroke-width="5" id="LGI" y2="410" x2="453" y1="400" x1="453" fill="none" stroke="#000"></line>
        <line stroke-width="5" id="H102" y2="410" x2="622" y1="404" x1="622" fill="none" stroke="#000"></line>
        <line stroke-width="5" class="Stairs1" id="Stair4L" y2="410" x2="652" y1="410" x1="622" fill="none" stroke="#000"></line>
        <line stroke-width="5" id="svg_10083" y2="410" x2="526" y1="410" x1="453" fill="none" stroke="#000"></line>
        <line stroke-width="5" id="svg_10084" y2="410" x2="539" y1="410" x1="526" fill="none" stroke="#000"></line>
        <line stroke-width="5" id="svg_10085" y2="410" x2="574" y1="410" x1="539" fill="none" stroke="#000"></line>
        <line stroke-width="5" id="svg_10086" y2="410" x2="622" y1="410" x1="574" fill="none" stroke="#000"></line>
        <line stroke-width="5" id="Faculty" y2="288" x2="574" y1="288" x1="568" fill="none" stroke="#000"></line>
        <line stroke-width="5" class="Stairs1" id="Stair2L" y2="187" x2="459" y1="177" x1="459" fill="none" stroke="#000"></line>
        <line stroke-width="5" id="svg_10089" y2="120" x2="404" y1="120" x1="333" fill="none" stroke="#000"></line>
        <line stroke-width="5" id="MCAF" y2="177" x2="404" y1="120" x1="404" fill="none" stroke="#000"></line>
        <line stroke-width="5" id="Entrance" y2="496" x2="383" y1="482" x1="383" fill="none" stroke="#000"></line>
        <line stroke-width="5" id="PORT" y2="258" x2="668" y1="231" x1="668" fill="none" stroke="#000"></line>
        <line stroke-width="5" class="Stairs1" id="Stair3L" y2="235" x2="652" y1="235" x1="641" fill="none" stroke="#000"></line>
        <line stroke-width="5" id="svg_10094" y2="258" x2="641" y1="235" x1="641" fill="none" stroke="#000"></line>
        <line stroke-width="5" id="svg_10095" y2="258" x2="668" y1="258" x1="641" fill="none" stroke="#000"></line>
        <text xml:space="preserve" text-anchor="start" font-family="Noto Sans JP" font-size="18" stroke-width="0" id="svg_146" y="187" x="133" stroke="#000" fill="#000000">H107</text>
        <text xml:space="preserve" text-anchor="start" font-family="Noto Sans JP" font-size="18" stroke-width="0" id="svg_147" y="226" x="133" stroke="#000" fill="#000000">H108</text>
        <text xml:space="preserve" text-anchor="start" font-family="Noto Sans JP" font-size="18" stroke-width="0" id="svg_148" y="125" x="248" stroke="#000" fill="#000000">FITT</text>
        <text style="cursor: move;" xml:space="preserve" text-anchor="start" font-family="Noto Sans JP" font-size="18" stroke-width="0" id="svg_149" y="243" x="227" stroke="#000" fill="#000000">HGYM</text>
        <g id="svg_152">
        <text stroke="#000" transform="matrix(0.794794 0 0 1 70.3335 -1)" stroke-width="0" xml:space="preserve" text-anchor="start" font-family="Noto Sans JP" font-size="14" id="svg_0150" y="147" x="332.51637" fill="#000000">Middle School</text>
        <text stroke="#000" transform="matrix(0.794794 0 0 1 69.3335 17)" stroke-width="0" xml:space="preserve" text-anchor="start" font-family="Noto Sans JP" font-size="14" id="svg_0151" y="144" x="351.87282" fill="#000000">Cafeteria</text>
        </g>
        <g id="svg_162">
        <text xml:space="preserve" text-anchor="start" font-family="Noto Sans JP" font-size="14" stroke-width="0" id="svg_0153" y="198" x="338" stroke="#000" fill="#000000">Boy's</text>
        <text xml:space="preserve" text-anchor="start" font-family="Noto Sans JP" font-size="14" stroke-width="0" id="svg_0154" y="216" x="334" stroke="#000" fill="#000000">Locker</text>
        <text xml:space="preserve" text-anchor="start" font-family="Noto Sans JP" font-size="14" stroke-width="0" id="svg_0155" y="234" x="336" stroke="#000" fill="#000000">Room</text>
        </g>
        <g id="svg_163">
        <text xml:space="preserve" text-anchor="start" font-family="Noto Sans JP" font-size="14" stroke-width="0" id="svg_0159" y="271" x="338" stroke="#000" fill="#000000">Girl's</text>
        <text xml:space="preserve" text-anchor="start" font-family="Noto Sans JP" font-size="14" stroke-width="0" id="svg_0160" y="289" x="334" stroke="#000" fill="#000000">Locker</text>
        <text xml:space="preserve" text-anchor="start" font-family="Noto Sans JP" font-size="14" stroke-width="0" id="svg_0161" y="307" x="336" stroke="#000" fill="#000000">Room</text>
        </g>
        <text xml:space="preserve" text-anchor="start" font-family="Noto Sans JP" font-size="14" stroke-width="0" id="svg_0165" y="214" x="445" stroke="#000" fill="#000000">Cafeteria</text>
        <g id="svg_169">
        <text xml:space="preserve" text-anchor="start" font-family="Noto Sans JP" font-size="14" stroke-width="0" id="svg_0167" y="286" x="460" stroke="#000" fill="#000000">Band</text>
        <text xml:space="preserve" text-anchor="start" font-family="Noto Sans JP" font-size="14" stroke-width="0" id="svg_0168" y="305" x="459" stroke="#000" fill="#000000">Room</text>
        </g>
        <text xml:space="preserve" text-anchor="start" font-family="Noto Sans JP" font-size="14" stroke-width="0" id="svg_0170" y="366" x="458" stroke="#000" fill="#000000">LGI</text>
        <text xml:space="preserve" text-anchor="start" font-family="Noto Sans JP" font-size="14" stroke-width="0" id="svg_0171" y="379" x="498" stroke="#000" fill="#000000">H100</text>
        <text xml:space="preserve" text-anchor="start" font-family="Noto Sans JP" font-size="14" stroke-width="0" id="svg_0172" y="379" x="536" stroke="#000" fill="#000000">H101</text>
        <text xml:space="preserve" text-anchor="start" font-family="Noto Sans JP" font-size="14" stroke-width="0" id="svg_0173" y="268" x="593" stroke="#000" fill="#000000">H105</text>
        <text style="cursor: move;" xml:space="preserve" text-anchor="start" font-family="Noto Sans JP" font-size="14" stroke-width="0" id="svg_0174" y="310" x="593" stroke="#000" fill="#000000">H104</text>
        <text style="cursor: move;" xml:space="preserve" text-anchor="start" font-family="Noto Sans JP" font-size="14" stroke-width="0" id="svg_0175" y="351" x="593" stroke="#000" fill="#000000">H103</text>
        <text style="cursor: move;" xml:space="preserve" text-anchor="start" font-family="Noto Sans JP" font-size="14" stroke-width="0" id="svg_0176" y="387" x="593" stroke="#000" fill="#000000">H102</text>
        <text transform="rotate(90 430.008 336.25)" xml:space="preserve" text-anchor="start" font-family="Noto Sans JP" font-size="18" id="svg_0177" y="342" x="393" stroke-width="0" stroke="#000" fill="#000000">Commons</text>
        <text xml:space="preserve" text-anchor="start" font-family="Noto Sans JP" font-size="18" id="svg_0178" y="279.80939" x="510.84959" stroke-width="0" stroke="#000" fill="#000000">Faculty</text>
        <text transform="rotate(90 390.07 383.977)" xml:space="preserve" text-anchor="start" font-family="Noto Sans JP" font-size="14" stroke-width="0" id="svg_0179" y="388.47815" x="378.79517" stroke="#000" fill="#000000">WC</text>
        <text xml:space="preserve" text-anchor="start" font-family="Noto Sans JP" font-size="18" stroke-width="0" id="svg_0181" y="427" x="318" stroke="#000" fill="#000000">Library</text>
        <text xml:space="preserve" text-anchor="start" font-family="Noto Sans JP" font-size="18" stroke-width="0" id="svg_0182" y="394" x="179" stroke="#000" fill="#000000">MGYM</text>
        <text xml:space="preserve" text-anchor="start" font-family="Noto Sans JP" font-size="18" stroke-width="0" id="svg_0183" y="149" x="665" stroke="#000" fill="#000000">Port 2</text>
        <text xml:space="preserve" text-anchor="start" font-family="Noto Sans JP" font-size="18" stroke-width="0" id="svg_0184" y="205" x="665" stroke="#000" fill="#000000">Port 1</text>
        <text xml:space="preserve" text-anchor="start" font-family="Noto Sans JP" font-size="18" id="svg_0185" y="460" x="255" stroke-width="0" stroke="#000" fill="#000000">M100</text>
        <text style="cursor: move;" xml:space="preserve" text-anchor="start" font-family="Noto Sans JP" font-size="18" id="svg_0186" y="502" x="184" stroke-width="0" stroke="#000" fill="#000000">M101</text>
        <text xml:space="preserve" text-anchor="start" font-family="Noto Sans JP" font-size="18" id="svg_0187" y="454" x="421" stroke-width="0" stroke="#000" fill="#000000">Nurse</text>
        <text xml:space="preserve" text-anchor="start" font-family="Noto Sans JP" font-size="18" id="svg_0188" y="480" x="496" stroke-width="0" stroke="#000" fill="#000000">Auditorium</text>
        <text transform="rotate(90 628 476.25)" xml:space="preserve" text-anchor="start" font-family="Noto Sans JP" font-size="18" id="svg_0189" y="482" x="608" stroke-width="0" stroke="#000" fill="#000000">Stage</text>
    </g>
</svg>